G04*
G04 #@! TF.GenerationSoftware,Altium Limited,Altium Designer,22.7.1 (60)*
G04*
G04 Layer_Color=255*
%FSLAX44Y44*%
%MOMM*%
G71*
G04*
G04 #@! TF.SameCoordinates,91C71047-42CA-43BF-A667-CA5565F335C7*
G04*
G04*
G04 #@! TF.FilePolarity,Positive*
G04*
G01*
G75*
%ADD43C,3.0000*%
%ADD44C,2.0000*%
%ADD45C,3.5000*%
%ADD46O,2.0000X1.5000*%
%ADD47R,1.1000X1.1000*%
%ADD48R,1.1000X1.1000*%
%ADD49C,2.5000*%
%ADD52C,1.5000*%
%ADD53C,1.3000*%
D43*
X840000Y830000D02*
D03*
Y880000D02*
D03*
X150000Y885000D02*
D03*
Y835000D02*
D03*
D44*
X570000Y330000D02*
D03*
Y360000D02*
D03*
Y390000D02*
D03*
Y420000D02*
D03*
X270000Y910000D02*
D03*
Y810000D02*
D03*
X739200Y319200D02*
D03*
X764600D02*
D03*
X790000D02*
D03*
X815400D02*
D03*
X840800D02*
D03*
Y420800D02*
D03*
X815400D02*
D03*
X790000D02*
D03*
X764600D02*
D03*
X739200D02*
D03*
D45*
X970000Y30000D02*
D03*
X30000D02*
D03*
X970000Y970000D02*
D03*
X30000D02*
D03*
D46*
X250800Y660000D02*
D03*
Y680000D02*
D03*
Y700000D02*
D03*
X200000Y720000D02*
D03*
Y680000D02*
D03*
Y660000D02*
D03*
D47*
X896000Y640000D02*
D03*
X870000D02*
D03*
X883000D02*
D03*
X813000D02*
D03*
X787000D02*
D03*
X800000D02*
D03*
X643000D02*
D03*
X617000D02*
D03*
X630000D02*
D03*
X726000D02*
D03*
X700000D02*
D03*
X713000D02*
D03*
D48*
X180000Y537000D02*
D03*
Y563000D02*
D03*
Y550000D02*
D03*
D49*
X348800Y902000D02*
D03*
X500000Y900000D02*
D03*
X550400D02*
D03*
X600800D02*
D03*
Y824000D02*
D03*
X550400D02*
D03*
X500000D02*
D03*
X348800D02*
D03*
D52*
X130000Y411000D02*
D03*
Y460000D02*
D03*
D53*
X890000Y910000D02*
D03*
Y800000D02*
D03*
X50000Y805000D02*
D03*
Y915000D02*
D03*
M02*
