G04*
G04 #@! TF.GenerationSoftware,Altium Limited,Altium Designer,22.7.1 (60)*
G04*
G04 Layer_Color=255*
%FSLAX44Y44*%
%MOMM*%
G71*
G04*
G04 #@! TF.SameCoordinates,91C71047-42CA-43BF-A667-CA5565F335C7*
G04*
G04*
G04 #@! TF.FilePolarity,Positive*
G04*
G01*
G75*
%ADD12R,1.6000X1.3000*%
%ADD13R,1.3000X1.6000*%
G04:AMPARAMS|DCode=14|XSize=1.85mm|YSize=0.6mm|CornerRadius=0.15mm|HoleSize=0mm|Usage=FLASHONLY|Rotation=0.000|XOffset=0mm|YOffset=0mm|HoleType=Round|Shape=RoundedRectangle|*
%AMROUNDEDRECTD14*
21,1,1.8500,0.3000,0,0,0.0*
21,1,1.5500,0.6000,0,0,0.0*
1,1,0.3000,0.7750,-0.1500*
1,1,0.3000,-0.7750,-0.1500*
1,1,0.3000,-0.7750,0.1500*
1,1,0.3000,0.7750,0.1500*
%
%ADD14ROUNDEDRECTD14*%
%ADD15R,1.3500X0.4000*%
%ADD16R,0.9000X1.3000*%
%ADD17R,2.0000X1.5000*%
%ADD24C,0.5000*%
%ADD42C,1.1000*%
%ADD43C,3.0000*%
%ADD44C,2.0000*%
%ADD45C,3.5000*%
%ADD46O,2.0000X1.5000*%
%ADD47R,1.1000X1.1000*%
%ADD48R,1.1000X1.1000*%
%ADD49C,2.5000*%
D12*
X440000Y699750D02*
D03*
Y680250D02*
D03*
Y649750D02*
D03*
Y630250D02*
D03*
X460000Y399750D02*
D03*
Y380250D02*
D03*
X430000Y399750D02*
D03*
Y380250D02*
D03*
X240000Y399750D02*
D03*
Y380250D02*
D03*
X210000Y399750D02*
D03*
Y380250D02*
D03*
X110000Y530250D02*
D03*
Y549751D02*
D03*
X890000Y70250D02*
D03*
Y89750D02*
D03*
X590000Y70250D02*
D03*
Y89750D02*
D03*
X170000Y270250D02*
D03*
Y289750D02*
D03*
X240000Y499500D02*
D03*
Y480000D02*
D03*
X270000Y480250D02*
D03*
Y499750D02*
D03*
X890000Y150250D02*
D03*
Y169750D02*
D03*
X570000Y470250D02*
D03*
Y489750D02*
D03*
X70000Y400500D02*
D03*
Y420000D02*
D03*
X440000Y510250D02*
D03*
Y529750D02*
D03*
X70000Y470250D02*
D03*
Y489750D02*
D03*
X200000Y270250D02*
D03*
Y289750D02*
D03*
X330000Y529750D02*
D03*
Y510250D02*
D03*
X80000Y699750D02*
D03*
Y680250D02*
D03*
D13*
X320250Y60000D02*
D03*
X339750D02*
D03*
X320250Y90000D02*
D03*
X339750D02*
D03*
X320250Y120000D02*
D03*
X339750D02*
D03*
X320250Y150000D02*
D03*
X339750D02*
D03*
Y180000D02*
D03*
X320250D02*
D03*
X339750Y210000D02*
D03*
X320250D02*
D03*
X339750Y240000D02*
D03*
X320250D02*
D03*
X849750Y580000D02*
D03*
X830250D02*
D03*
X899750D02*
D03*
X880250D02*
D03*
X780500D02*
D03*
X800000D02*
D03*
X660250D02*
D03*
X679750D02*
D03*
X610250D02*
D03*
X629750D02*
D03*
X729750D02*
D03*
X710250D02*
D03*
D14*
X135142Y194450D02*
D03*
Y181750D02*
D03*
Y169050D02*
D03*
Y156350D02*
D03*
Y143650D02*
D03*
X134858Y130950D02*
D03*
X135142Y118250D02*
D03*
Y105550D02*
D03*
X205143D02*
D03*
Y118250D02*
D03*
Y130950D02*
D03*
Y143650D02*
D03*
Y156350D02*
D03*
Y169050D02*
D03*
Y181750D02*
D03*
Y194450D02*
D03*
D15*
X311250Y409250D02*
D03*
Y402750D02*
D03*
Y396250D02*
D03*
Y389750D02*
D03*
Y383250D02*
D03*
Y376750D02*
D03*
Y370250D02*
D03*
Y363750D02*
D03*
Y357250D02*
D03*
Y350750D02*
D03*
X368750D02*
D03*
Y357250D02*
D03*
Y363750D02*
D03*
Y370250D02*
D03*
Y376750D02*
D03*
Y383250D02*
D03*
Y389750D02*
D03*
Y396250D02*
D03*
Y402750D02*
D03*
Y409250D02*
D03*
D16*
X375000Y503000D02*
D03*
X405000D02*
D03*
D17*
X665000Y145000D02*
D03*
X815000D02*
D03*
X665000Y95000D02*
D03*
X815000D02*
D03*
D24*
X390000Y503000D02*
D03*
D42*
X890000Y910000D02*
D03*
Y800000D02*
D03*
X50000Y805000D02*
D03*
Y915000D02*
D03*
D43*
X840000Y830000D02*
D03*
Y880000D02*
D03*
X150000Y885000D02*
D03*
Y835000D02*
D03*
D44*
X570000Y330000D02*
D03*
Y360000D02*
D03*
Y390000D02*
D03*
Y420000D02*
D03*
X270000Y910000D02*
D03*
Y810000D02*
D03*
X739200Y319200D02*
D03*
X764600D02*
D03*
X790000D02*
D03*
X815400D02*
D03*
X840800D02*
D03*
Y420800D02*
D03*
X815400D02*
D03*
X790000D02*
D03*
X764600D02*
D03*
X739200D02*
D03*
D45*
X970000Y30000D02*
D03*
X30000D02*
D03*
X970000Y970000D02*
D03*
X30000D02*
D03*
D46*
X250800Y660000D02*
D03*
Y680000D02*
D03*
Y700000D02*
D03*
X200000Y720000D02*
D03*
Y680000D02*
D03*
Y660000D02*
D03*
D47*
X896000Y640000D02*
D03*
X870000D02*
D03*
X883000D02*
D03*
X813000D02*
D03*
X787000D02*
D03*
X800000D02*
D03*
X643000D02*
D03*
X617000D02*
D03*
X630000D02*
D03*
X726000D02*
D03*
X700000D02*
D03*
X713000D02*
D03*
D48*
X180000Y537000D02*
D03*
Y563000D02*
D03*
Y550000D02*
D03*
D49*
X348800Y902000D02*
D03*
X500000Y900000D02*
D03*
X550400D02*
D03*
X600800D02*
D03*
Y824000D02*
D03*
X550400D02*
D03*
X500000D02*
D03*
X348800D02*
D03*
M02*
