G04*
G04 #@! TF.GenerationSoftware,Altium Limited,Altium Designer,22.7.1 (60)*
G04*
G04 Layer_Color=8388736*
%FSLAX44Y44*%
%MOMM*%
G71*
G04*
G04 #@! TF.SameCoordinates,91C71047-42CA-43BF-A667-CA5565F335C7*
G04*
G04*
G04 #@! TF.FilePolarity,Negative*
G04*
G01*
G75*
%ADD20R,1.8032X1.5032*%
%ADD21R,1.5032X1.8032*%
G04:AMPARAMS|DCode=22|XSize=2.0532mm|YSize=0.8032mm|CornerRadius=0.2516mm|HoleSize=0mm|Usage=FLASHONLY|Rotation=0.000|XOffset=0mm|YOffset=0mm|HoleType=Round|Shape=RoundedRectangle|*
%AMROUNDEDRECTD22*
21,1,2.0532,0.3000,0,0,0.0*
21,1,1.5500,0.8032,0,0,0.0*
1,1,0.5032,0.7750,-0.1500*
1,1,0.5032,-0.7750,-0.1500*
1,1,0.5032,-0.7750,0.1500*
1,1,0.5032,0.7750,0.1500*
%
%ADD22ROUNDEDRECTD22*%
%ADD23R,1.5532X0.6032*%
%ADD24C,0.5000*%
%ADD25R,1.1032X1.5032*%
%ADD26R,2.2032X1.7032*%
%ADD27R,1.1032X1.6782*%
%ADD28R,1.9352X3.3282*%
%ADD29C,1.3032*%
%ADD30C,3.2032*%
%ADD31C,2.2032*%
%ADD32C,3.7032*%
%ADD33C,0.2032*%
%ADD34O,2.2032X1.7032*%
%ADD35R,1.3032X1.3032*%
%ADD36R,1.3032X1.3032*%
%ADD37C,2.7032*%
%ADD38C,1.0032*%
%ADD39C,1.4732*%
D20*
X440000Y699750D02*
D03*
Y680250D02*
D03*
Y649750D02*
D03*
Y630250D02*
D03*
X460000Y399750D02*
D03*
Y380250D02*
D03*
X430000Y399750D02*
D03*
Y380250D02*
D03*
X240000Y399750D02*
D03*
Y380250D02*
D03*
X210000Y399750D02*
D03*
Y380250D02*
D03*
X110000Y530250D02*
D03*
Y549751D02*
D03*
X890000Y70250D02*
D03*
Y89750D02*
D03*
X590000Y70250D02*
D03*
Y89750D02*
D03*
X170000Y270250D02*
D03*
Y289750D02*
D03*
X240000Y499500D02*
D03*
Y480000D02*
D03*
X270000Y480250D02*
D03*
Y499750D02*
D03*
X890000Y150250D02*
D03*
Y169750D02*
D03*
X570000Y470250D02*
D03*
Y489750D02*
D03*
X70000Y400500D02*
D03*
Y420000D02*
D03*
X440000Y510250D02*
D03*
Y529750D02*
D03*
X70000Y470250D02*
D03*
Y489750D02*
D03*
X200000Y270250D02*
D03*
Y289750D02*
D03*
X330000Y529750D02*
D03*
Y510250D02*
D03*
X80000Y699750D02*
D03*
Y680250D02*
D03*
D21*
X320250Y60000D02*
D03*
X339750D02*
D03*
X320250Y90000D02*
D03*
X339750D02*
D03*
X320250Y120000D02*
D03*
X339750D02*
D03*
X320250Y150000D02*
D03*
X339750D02*
D03*
Y180000D02*
D03*
X320250D02*
D03*
X339750Y210000D02*
D03*
X320250D02*
D03*
X339750Y240000D02*
D03*
X320250D02*
D03*
X849750Y580000D02*
D03*
X830250D02*
D03*
X899750D02*
D03*
X880250D02*
D03*
X780500D02*
D03*
X800000D02*
D03*
X660250D02*
D03*
X679750D02*
D03*
X610250D02*
D03*
X629750D02*
D03*
X729750D02*
D03*
X710250D02*
D03*
D22*
X135142Y194450D02*
D03*
Y181750D02*
D03*
Y169050D02*
D03*
Y156350D02*
D03*
Y143650D02*
D03*
X134858Y130950D02*
D03*
X135142Y118250D02*
D03*
Y105550D02*
D03*
X205143D02*
D03*
Y118250D02*
D03*
Y130950D02*
D03*
Y143650D02*
D03*
Y156350D02*
D03*
Y169050D02*
D03*
Y181750D02*
D03*
Y194450D02*
D03*
D23*
X311250Y409250D02*
D03*
Y402750D02*
D03*
Y396250D02*
D03*
Y389750D02*
D03*
Y383250D02*
D03*
Y376750D02*
D03*
Y370250D02*
D03*
Y363750D02*
D03*
Y357250D02*
D03*
Y350750D02*
D03*
X368750D02*
D03*
Y357250D02*
D03*
Y363750D02*
D03*
Y370250D02*
D03*
Y376750D02*
D03*
Y383250D02*
D03*
Y389750D02*
D03*
Y396250D02*
D03*
Y402750D02*
D03*
Y409250D02*
D03*
D24*
X390000Y503000D02*
D03*
D25*
X375000D02*
D03*
X405000D02*
D03*
D26*
X665000Y145000D02*
D03*
X815000D02*
D03*
X665000Y95000D02*
D03*
X815000D02*
D03*
D27*
X390000Y504100D02*
D03*
D28*
X389995Y527000D02*
D03*
D29*
X890000Y910000D02*
D03*
Y800000D02*
D03*
X50000Y805000D02*
D03*
Y915000D02*
D03*
D30*
X840000Y830000D02*
D03*
Y880000D02*
D03*
X150000Y885000D02*
D03*
Y835000D02*
D03*
D31*
X570000Y330000D02*
D03*
Y360000D02*
D03*
Y390000D02*
D03*
Y420000D02*
D03*
X270000Y910000D02*
D03*
Y810000D02*
D03*
X739200Y319200D02*
D03*
X764600D02*
D03*
X790000D02*
D03*
X815400D02*
D03*
X840800D02*
D03*
Y420800D02*
D03*
X815400D02*
D03*
X790000D02*
D03*
X764600D02*
D03*
X739200D02*
D03*
D32*
X970000Y30000D02*
D03*
X30000D02*
D03*
X970000Y970000D02*
D03*
X30000D02*
D03*
D33*
X130000Y411000D02*
D03*
Y460000D02*
D03*
D34*
X250800Y660000D02*
D03*
Y680000D02*
D03*
Y700000D02*
D03*
X200000Y720000D02*
D03*
Y680000D02*
D03*
Y660000D02*
D03*
D35*
X896000Y640000D02*
D03*
X870000D02*
D03*
X883000D02*
D03*
X813000D02*
D03*
X787000D02*
D03*
X800000D02*
D03*
X643000D02*
D03*
X617000D02*
D03*
X630000D02*
D03*
X726000D02*
D03*
X700000D02*
D03*
X713000D02*
D03*
D36*
X180000Y537000D02*
D03*
Y563000D02*
D03*
Y550000D02*
D03*
D37*
X348800Y902000D02*
D03*
X500000Y900000D02*
D03*
X550400D02*
D03*
X600800D02*
D03*
Y824000D02*
D03*
X550400D02*
D03*
X500000D02*
D03*
X348800D02*
D03*
D38*
X350000Y640000D02*
D03*
X240000Y340000D02*
D03*
X180000Y350000D02*
D03*
X300000Y500000D02*
D03*
X310000Y460000D02*
D03*
D39*
X460000Y420000D02*
D03*
X901700Y210820D02*
D03*
X556782D02*
D03*
X395732Y462026D02*
D03*
X729750Y538988D02*
D03*
X780500Y564642D02*
D03*
X354330Y401828D02*
D03*
X95288Y680212D02*
D03*
X279624Y240000D02*
D03*
X188468Y194450D02*
D03*
X339852Y255270D02*
D03*
X370078Y272542D02*
D03*
X430530Y60000D02*
D03*
X400812Y326390D02*
D03*
X325374Y405384D02*
D03*
X280924Y401066D02*
D03*
X815044Y580000D02*
D03*
X289306Y373888D02*
D03*
X151638Y194450D02*
D03*
X118618Y156464D02*
D03*
X294640Y352044D02*
D03*
X151638Y143650D02*
D03*
X325374Y335026D02*
D03*
X373380Y335788D02*
D03*
X118364Y135636D02*
D03*
X410972Y541274D02*
D03*
X430000Y427736D02*
D03*
X119634Y489750D02*
D03*
X102108Y505206D02*
D03*
X387350Y358648D02*
D03*
X361950Y440944D02*
D03*
X349504Y357124D02*
D03*
X151638Y118250D02*
D03*
X325374Y370332D02*
D03*
X118732Y237096D02*
D03*
X384048Y405384D02*
D03*
X349758Y297180D02*
D03*
X379984Y306578D02*
D03*
X320294Y44704D02*
D03*
X188468Y118364D02*
D03*
M02*
