G04*
G04 #@! TF.GenerationSoftware,Altium Limited,Altium Designer,22.7.1 (60)*
G04*
G04 Layer_Color=16711935*
%FSLAX44Y44*%
%MOMM*%
G71*
G04*
G04 #@! TF.SameCoordinates,91C71047-42CA-43BF-A667-CA5565F335C7*
G04*
G04*
G04 #@! TF.FilePolarity,Negative*
G04*
G01*
G75*
%ADD30C,3.2032*%
%ADD31C,2.2032*%
%ADD32C,3.7032*%
%ADD34O,2.2032X1.7032*%
%ADD35R,1.3032X1.3032*%
%ADD36R,1.3032X1.3032*%
%ADD37C,2.7032*%
%ADD38C,1.0032*%
%ADD39C,1.4732*%
%ADD54C,1.5032*%
%ADD55C,1.7032*%
D30*
X840000Y830000D02*
D03*
Y880000D02*
D03*
X150000Y885000D02*
D03*
Y835000D02*
D03*
D31*
X570000Y330000D02*
D03*
Y360000D02*
D03*
Y390000D02*
D03*
Y420000D02*
D03*
X270000Y910000D02*
D03*
Y810000D02*
D03*
X739200Y319200D02*
D03*
X764600D02*
D03*
X790000D02*
D03*
X815400D02*
D03*
X840800D02*
D03*
Y420800D02*
D03*
X815400D02*
D03*
X790000D02*
D03*
X764600D02*
D03*
X739200D02*
D03*
D32*
X970000Y30000D02*
D03*
X30000D02*
D03*
X970000Y970000D02*
D03*
X30000D02*
D03*
D34*
X250800Y660000D02*
D03*
Y680000D02*
D03*
Y700000D02*
D03*
X200000Y720000D02*
D03*
Y680000D02*
D03*
Y660000D02*
D03*
D35*
X896000Y640000D02*
D03*
X870000D02*
D03*
X883000D02*
D03*
X813000D02*
D03*
X787000D02*
D03*
X800000D02*
D03*
X643000D02*
D03*
X617000D02*
D03*
X630000D02*
D03*
X726000D02*
D03*
X700000D02*
D03*
X713000D02*
D03*
D36*
X180000Y537000D02*
D03*
Y563000D02*
D03*
Y550000D02*
D03*
D37*
X348800Y902000D02*
D03*
X500000Y900000D02*
D03*
X550400D02*
D03*
X600800D02*
D03*
Y824000D02*
D03*
X550400D02*
D03*
X500000D02*
D03*
X348800D02*
D03*
D38*
X350000Y640000D02*
D03*
X240000Y340000D02*
D03*
X180000Y350000D02*
D03*
X300000Y500000D02*
D03*
X310000Y460000D02*
D03*
D39*
X460000Y420000D02*
D03*
X901700Y210820D02*
D03*
X556782D02*
D03*
X395732Y462026D02*
D03*
X729750Y538988D02*
D03*
X780500Y564642D02*
D03*
X354330Y401828D02*
D03*
X95288Y680212D02*
D03*
X279624Y240000D02*
D03*
X188468Y194450D02*
D03*
X339852Y255270D02*
D03*
X370078Y272542D02*
D03*
X430530Y60000D02*
D03*
X400812Y326390D02*
D03*
X325374Y405384D02*
D03*
X280924Y401066D02*
D03*
X815044Y580000D02*
D03*
X289306Y373888D02*
D03*
X151638Y194450D02*
D03*
X118618Y156464D02*
D03*
X294640Y352044D02*
D03*
X151638Y143650D02*
D03*
X325374Y335026D02*
D03*
X373380Y335788D02*
D03*
X118364Y135636D02*
D03*
X410972Y541274D02*
D03*
X430000Y427736D02*
D03*
X119634Y489750D02*
D03*
X102108Y505206D02*
D03*
X387350Y358648D02*
D03*
X361950Y440944D02*
D03*
X349504Y357124D02*
D03*
X151638Y118250D02*
D03*
X325374Y370332D02*
D03*
X118732Y237096D02*
D03*
X384048Y405384D02*
D03*
X349758Y297180D02*
D03*
X379984Y306578D02*
D03*
X320294Y44704D02*
D03*
X188468Y118364D02*
D03*
D54*
X890000Y910000D02*
D03*
Y800000D02*
D03*
X50000Y805000D02*
D03*
Y915000D02*
D03*
D55*
X130000Y411000D02*
D03*
Y460000D02*
D03*
M02*
