G04*
G04 #@! TF.GenerationSoftware,Altium Limited,Altium Designer,22.7.1 (60)*
G04*
G04 Layer_Color=32768*
%FSLAX44Y44*%
%MOMM*%
G71*
G04*
G04 #@! TF.SameCoordinates,91C71047-42CA-43BF-A667-CA5565F335C7*
G04*
G04*
G04 #@! TF.FilePolarity,Positive*
G04*
G01*
G75*
%ADD11C,0.2540*%
%ADD56C,0.1000*%
%ADD57C,0.1500*%
D11*
X327800Y929000D02*
X624800D01*
Y797000D02*
Y929000D01*
X327800Y797000D02*
X624800D01*
X327800D02*
Y929000D01*
D56*
X904790Y624743D02*
G03*
X861211Y624743I-21789J15257D01*
G01*
X821789D02*
G03*
X778211Y624743I-21789J15257D01*
G01*
X164743Y528211D02*
G03*
X164743Y571789I15257J21789D01*
G01*
X651789Y624743D02*
G03*
X608211Y624743I-21789J15257D01*
G01*
X734790D02*
G03*
X691211Y624743I-21789J15257D01*
G01*
X440000Y685000D02*
X440001Y695000D01*
X435000Y690000D02*
X445000D01*
X431000Y709000D02*
X449000D01*
Y671000D02*
Y709000D01*
X431000Y671000D02*
Y709000D01*
Y671000D02*
X449000D01*
X431000Y621000D02*
X449000D01*
X431000D02*
Y659000D01*
X449000D01*
Y621000D02*
Y659000D01*
X440000Y635000D02*
Y645000D01*
X435000Y640000D02*
X445000D01*
X325000Y60001D02*
X335000Y60000D01*
X330000Y55000D02*
Y65000D01*
X311000Y51000D02*
Y69000D01*
X349000D01*
X311000Y51000D02*
X349000D01*
Y69000D01*
X325000Y90001D02*
X335000Y90000D01*
X330000Y85000D02*
Y95000D01*
X311000Y81000D02*
Y99000D01*
X349000D01*
X311000Y81000D02*
X349000D01*
Y99000D01*
X325000Y120001D02*
X335000Y120000D01*
X330000Y115000D02*
Y125000D01*
X311000Y111000D02*
Y129000D01*
X349000D01*
X311000Y111000D02*
X349000D01*
Y129000D01*
X325000Y150001D02*
X335000Y150000D01*
X330000Y145000D02*
Y155000D01*
X311000Y141000D02*
Y159000D01*
X349000D01*
X311000Y141000D02*
X349000D01*
Y159000D01*
X325000Y180000D02*
X335000Y179999D01*
X330000Y175000D02*
Y185000D01*
X349000Y171000D02*
Y189000D01*
X311000Y171000D02*
X349000D01*
X311000Y189000D02*
X349000D01*
X311000Y171000D02*
Y189000D01*
X325000Y210000D02*
X335000Y209999D01*
X330000Y205000D02*
Y215000D01*
X349000Y201000D02*
Y219000D01*
X311000Y201000D02*
X349000D01*
X311000Y219000D02*
X349000D01*
X311000Y201000D02*
Y219000D01*
X325000Y240000D02*
X335000Y239999D01*
X330000Y235000D02*
Y245000D01*
X349000Y231000D02*
Y249000D01*
X311000Y231000D02*
X349000D01*
X311000Y249000D02*
X349000D01*
X311000Y231000D02*
Y249000D01*
X451000Y371000D02*
X469000D01*
X451000D02*
Y409000D01*
X469000D01*
Y371000D02*
Y409000D01*
X460000Y385000D02*
Y395000D01*
X455000Y390000D02*
X465000D01*
X421000Y371000D02*
X439000D01*
X421000D02*
Y409000D01*
X439000D01*
Y371000D02*
Y409000D01*
X430000Y385000D02*
Y395000D01*
X425000Y390000D02*
X435000D01*
X231000Y371000D02*
X249000D01*
X231000D02*
Y409000D01*
X249000D01*
Y371000D02*
Y409000D01*
X240000Y385000D02*
Y395000D01*
X235000Y390000D02*
X245000D01*
X201000Y371000D02*
X219000D01*
X201000D02*
Y409000D01*
X219000D01*
Y371000D02*
Y409000D01*
X210000Y385000D02*
Y395000D01*
X205000Y390000D02*
X215000D01*
X270000Y855000D02*
Y865000D01*
X265000Y860000D02*
X275000D01*
X257000Y923000D02*
X283000D01*
X257000Y797000D02*
X283000D01*
Y923000D01*
X257000Y797000D02*
Y923000D01*
X124000Y200000D02*
X216000D01*
Y100000D02*
Y200000D01*
X124000Y100000D02*
X216000D01*
X124000D02*
Y200000D01*
X170000Y145000D02*
Y155000D01*
X165000Y150000D02*
X175000D01*
X340000Y375000D02*
Y385000D01*
X335000Y380000D02*
X345000D01*
X303000Y414000D02*
X377000D01*
Y346000D02*
Y414000D01*
X303000Y346000D02*
X377000D01*
X303000D02*
Y414000D01*
X385000Y520000D02*
X395000D01*
X390000Y515000D02*
Y525000D01*
X367000Y545000D02*
X413000D01*
Y495000D02*
Y545000D01*
X367000Y495000D02*
X413000D01*
X367000D02*
Y545000D01*
X220400Y690000D02*
X230400D01*
X225400Y685000D02*
Y695000D01*
X158000Y736000D02*
X291000D01*
Y644000D02*
Y736000D01*
X158000Y644000D02*
X291000D01*
X158000D02*
Y736000D01*
X735000Y120000D02*
X745000D01*
X740000Y115000D02*
Y125000D01*
X663000Y180000D02*
X817000D01*
Y60000D02*
Y180000D01*
X663000Y60000D02*
X817000D01*
X663000D02*
Y180000D01*
X835000Y580000D02*
X845000Y579999D01*
X840000Y575000D02*
Y585000D01*
X859000Y571000D02*
Y589000D01*
X821000Y571000D02*
X859000D01*
X821000Y589000D02*
X859000D01*
X821000Y571000D02*
Y589000D01*
X885000Y580000D02*
X895000Y579999D01*
X890000Y575000D02*
Y585000D01*
X909000Y571000D02*
Y589000D01*
X871000Y571000D02*
X909000D01*
X871000Y589000D02*
X909000D01*
X871000Y571000D02*
Y589000D01*
X785250Y580001D02*
X795250Y580000D01*
X790250Y575000D02*
Y585000D01*
X771250Y571000D02*
Y589000D01*
X809250D01*
X771250Y571000D02*
X809250D01*
Y589000D01*
X109999Y535000D02*
X110000Y545000D01*
X105000Y540000D02*
X115000D01*
X101000Y521000D02*
X119000D01*
X101000D02*
Y559000D01*
X119000Y521000D02*
Y559000D01*
X101000D02*
X119000D01*
X665000Y580001D02*
X675000Y580000D01*
X670000Y575000D02*
Y585000D01*
X651000Y571000D02*
Y589000D01*
X689000D01*
X651000Y571000D02*
X689000D01*
Y589000D01*
X615000Y580001D02*
X625000Y580000D01*
X620000Y575000D02*
Y585000D01*
X601000Y571000D02*
Y589000D01*
X639000D01*
X601000Y571000D02*
X639000D01*
Y589000D01*
X889999Y75000D02*
X890000Y85000D01*
X885000Y80000D02*
X895000D01*
X881000Y61000D02*
X899000D01*
X881000D02*
Y99000D01*
X899000Y61000D02*
Y99000D01*
X881000D02*
X899000D01*
X589999Y75000D02*
X590000Y85000D01*
X585000Y80000D02*
X595000D01*
X581000Y61000D02*
X599000D01*
X581000D02*
Y99000D01*
X599000Y61000D02*
Y99000D01*
X581000D02*
X599000D01*
X715000Y580000D02*
X725000Y579999D01*
X720000Y575000D02*
Y585000D01*
X739000Y571000D02*
Y589000D01*
X701000Y571000D02*
X739000D01*
X701000Y589000D02*
X739000D01*
X701000Y571000D02*
Y589000D01*
X169999Y275000D02*
X170000Y285000D01*
X165000Y280000D02*
X175000D01*
X161000Y261000D02*
X179000D01*
X161000D02*
Y299000D01*
X179000Y261000D02*
Y299000D01*
X161000D02*
X179000D01*
X240000Y484750D02*
X240000Y494750D01*
X235000Y489750D02*
X245000D01*
X231000Y508750D02*
X249000D01*
Y470750D02*
Y508750D01*
X231000Y470750D02*
Y508750D01*
Y470750D02*
X249000D01*
X269999Y485000D02*
X270000Y495000D01*
X265000Y490000D02*
X275000D01*
X261000Y471000D02*
X279000D01*
X261000D02*
Y509000D01*
X279000Y471000D02*
Y509000D01*
X261000D02*
X279000D01*
X861210Y624743D02*
X904790D01*
X883000Y635000D02*
Y645000D01*
X878000Y640000D02*
X888000D01*
X778211Y624743D02*
X821790D01*
X800000Y635000D02*
Y645000D01*
X795000Y640000D02*
X805000D01*
X164743Y528211D02*
Y571790D01*
X175000Y550000D02*
X185000D01*
X180000Y545000D02*
Y555000D01*
X608211Y624743D02*
X651789D01*
X630000Y635000D02*
Y645000D01*
X625000Y640000D02*
X635000D01*
X691211Y624743D02*
X734790D01*
X713000Y635000D02*
Y645000D01*
X708000Y640000D02*
X718000D01*
X469800Y863000D02*
X479800D01*
X474800Y858000D02*
Y868000D01*
X714000Y299000D02*
Y441000D01*
X866000Y299000D02*
Y441000D01*
X714000D02*
X866000D01*
X714000Y299000D02*
X866000D01*
X790000Y365000D02*
Y375000D01*
X785000Y370000D02*
X795000D01*
X881000Y179000D02*
X899000D01*
Y141000D02*
Y179000D01*
X881000Y141000D02*
X899000D01*
X881000D02*
Y179000D01*
X890000Y155000D02*
Y165000D01*
X885000Y160000D02*
X895000D01*
X561000Y499000D02*
X579000D01*
Y461000D02*
Y499000D01*
X561000Y461000D02*
X579000D01*
X561000D02*
Y499000D01*
X570000Y475000D02*
Y485000D01*
X565000Y480000D02*
X575000D01*
X61000Y429250D02*
X79000D01*
Y391250D02*
Y429250D01*
X61000Y391250D02*
X79000D01*
X61000D02*
Y429250D01*
X70000Y405250D02*
Y415250D01*
X65000Y410250D02*
X75000D01*
X431000Y539000D02*
X449000D01*
Y501000D02*
Y539000D01*
X431000Y501000D02*
X449000D01*
X431000D02*
Y539000D01*
X440000Y515000D02*
Y525000D01*
X435000Y520000D02*
X445000D01*
X61000Y499000D02*
X79000D01*
Y461000D02*
Y499000D01*
X61000Y461000D02*
X79000D01*
X61000D02*
Y499000D01*
X70000Y475000D02*
Y485000D01*
X65000Y480000D02*
X75000D01*
X191000Y299000D02*
X209000D01*
Y261000D02*
Y299000D01*
X191000Y261000D02*
X209000D01*
X191000D02*
Y299000D01*
X200000Y275000D02*
Y285000D01*
X195000Y280000D02*
X205000D01*
X321000Y501000D02*
X339000D01*
X321000D02*
Y539000D01*
X339000D01*
Y501000D02*
Y539000D01*
X330000Y515000D02*
Y525000D01*
X325000Y520000D02*
X335000D01*
X71000Y671000D02*
X89000D01*
X71000D02*
Y709000D01*
X89000D01*
Y671000D02*
Y709000D01*
X80000Y685000D02*
Y695000D01*
X75000Y690000D02*
X85000D01*
D57*
X905001Y850000D02*
Y860000D01*
X900000Y855000D02*
X910000D01*
X980000Y788000D02*
Y922000D01*
X830000Y788000D02*
X980000D01*
X830000D02*
Y922000D01*
X980000D01*
X90000Y855000D02*
Y865000D01*
X85000Y860000D02*
X95000D01*
X20000Y793000D02*
Y927000D01*
X160000D01*
Y793000D02*
Y927000D01*
X20000Y793000D02*
X160000D01*
M02*
