G04*
G04 #@! TF.GenerationSoftware,Altium Limited,Altium Designer,22.7.1 (60)*
G04*
G04 Layer_Color=16711935*
%FSLAX44Y44*%
%MOMM*%
G71*
G04*
G04 #@! TF.SameCoordinates,91C71047-42CA-43BF-A667-CA5565F335C7*
G04*
G04*
G04 #@! TF.FilePolarity,Positive*
G04*
G01*
G75*
%ADD10C,0.2000*%
%ADD11C,0.2540*%
%ADD56C,0.1000*%
%ADD57C,0.1500*%
%ADD58C,0.1100*%
D10*
X904790Y624743D02*
G03*
X861211Y624743I-21789J15257D01*
G01*
X821789D02*
G03*
X778211Y624743I-21789J15257D01*
G01*
X164743Y528211D02*
G03*
X164743Y571789I15257J21789D01*
G01*
X651789Y624743D02*
G03*
X608211Y624743I-21789J15257D01*
G01*
X734790D02*
G03*
X691211Y624743I-21789J15257D01*
G01*
X861210Y624743D02*
X904790D01*
X778211D02*
X821790D01*
X164743Y528211D02*
Y571790D01*
X608211Y624743D02*
X651789D01*
X691211D02*
X734790D01*
D11*
X257500Y922500D02*
X282500D01*
X257500Y797500D02*
X282500D01*
Y922500D01*
X257500Y797500D02*
Y922500D01*
X327800Y928000D02*
X623800D01*
Y797000D02*
Y928000D01*
X327800Y797000D02*
X623800D01*
X327800D02*
Y928000D01*
D56*
X830000Y921500D02*
X979000D01*
Y788500D02*
Y921500D01*
X830000Y788500D02*
X979000D01*
X830000D02*
Y921500D01*
X433250Y678250D02*
X446750D01*
X433250D02*
Y701250D01*
X446750D01*
Y678250D02*
Y701250D01*
X433550Y630000D02*
X446450D01*
X433550D02*
Y650000D01*
X446450D01*
Y630000D02*
Y650000D01*
X341750Y53250D02*
Y66750D01*
X318750Y53250D02*
X341750D01*
X318750D02*
Y66750D01*
X341750D01*
Y83250D02*
Y96750D01*
X318750Y83250D02*
X341750D01*
X318750D02*
Y96750D01*
X341750D01*
Y113250D02*
Y126750D01*
X318750Y113250D02*
X341750D01*
X318750D02*
Y126750D01*
X341750D01*
Y143250D02*
Y156750D01*
X318750Y143250D02*
X341750D01*
X318750D02*
Y156750D01*
X341750D01*
X318250Y173250D02*
Y186750D01*
X341250D01*
Y173250D02*
Y186750D01*
X318250Y173250D02*
X341250D01*
X318250Y203250D02*
Y216750D01*
X341250D01*
Y203250D02*
Y216750D01*
X318250Y203250D02*
X341250D01*
X318250Y233250D02*
Y246750D01*
X341250D01*
Y233250D02*
Y246750D01*
X318250Y233250D02*
X341250D01*
X453550Y380000D02*
X466450D01*
X453550D02*
Y400000D01*
X466450D01*
Y380000D02*
Y400000D01*
X423550Y380000D02*
X436450D01*
X423550D02*
Y400000D01*
X436450D01*
Y380000D02*
Y400000D01*
X233550Y380000D02*
X246450D01*
X233550D02*
Y400000D01*
X246450D01*
Y380000D02*
Y400000D01*
X203550Y380000D02*
X216450D01*
X203550D02*
Y400000D01*
X216450D01*
Y380000D02*
Y400000D01*
X20500Y926500D02*
X160000D01*
X20500Y793500D02*
Y926500D01*
Y793500D02*
X160000D01*
Y926500D01*
X308000Y412500D02*
X372000D01*
Y347500D02*
Y412500D01*
X308000Y347500D02*
X372000D01*
X308000D02*
Y412500D01*
X367000Y495000D02*
Y545000D01*
Y495000D02*
X413000D01*
Y545000D01*
X367000D02*
X413000D01*
X663000Y60000D02*
Y180000D01*
Y60000D02*
X817000D01*
Y180000D01*
X663000D02*
X817000D01*
X828250Y573250D02*
Y586750D01*
X851250D01*
Y573250D02*
Y586750D01*
X828250Y573250D02*
X851250D01*
X878250D02*
Y586750D01*
X901250D01*
Y573250D02*
Y586750D01*
X878250Y573250D02*
X901250D01*
X802000D02*
Y586750D01*
X779000Y573250D02*
X802000D01*
X779000D02*
Y586750D01*
X802000D01*
X103250Y551750D02*
X116750D01*
Y528750D02*
Y551750D01*
X103250Y528750D02*
X116750D01*
X103250D02*
Y551750D01*
X681750Y573250D02*
Y586750D01*
X658750Y573250D02*
X681750D01*
X658750D02*
Y586750D01*
X681750D01*
X631750Y573250D02*
Y586750D01*
X608750Y573250D02*
X631750D01*
X608750D02*
Y586750D01*
X631750D01*
X883250Y91750D02*
X896750D01*
Y68750D02*
Y91750D01*
X883250Y68750D02*
X896750D01*
X883250D02*
Y91750D01*
X583250D02*
X596750D01*
Y68750D02*
Y91750D01*
X583250Y68750D02*
X596750D01*
X583250D02*
Y91750D01*
X708250Y573250D02*
Y586750D01*
X731250D01*
Y573250D02*
Y586750D01*
X708250Y573250D02*
X731250D01*
X163250Y291750D02*
X176750D01*
Y268750D02*
Y291750D01*
X163250Y268750D02*
X176750D01*
X163250D02*
Y291750D01*
X233250Y478000D02*
X246750D01*
X233250D02*
Y501000D01*
X246750D01*
Y478000D02*
Y501000D01*
X263250Y501750D02*
X276750D01*
Y478750D02*
Y501750D01*
X263250Y478750D02*
X276750D01*
X263250D02*
Y501750D01*
X714000Y299000D02*
Y441000D01*
X866000Y299000D02*
Y441000D01*
X714000D02*
X866000D01*
X714000Y299000D02*
X866000D01*
X883550Y170000D02*
X896450D01*
Y150000D02*
Y170000D01*
X883550Y150000D02*
X896450D01*
X883550D02*
Y170000D01*
X563550Y490000D02*
X576450D01*
Y470000D02*
Y490000D01*
X563550Y470000D02*
X576450D01*
X563550D02*
Y490000D01*
X63550Y420250D02*
X76450D01*
Y400250D02*
Y420250D01*
X63550Y400250D02*
X76450D01*
X63550D02*
Y420250D01*
X433550Y530000D02*
X446450D01*
Y510000D02*
Y530000D01*
X433550Y510000D02*
X446450D01*
X433550D02*
Y530000D01*
X63550Y490000D02*
X76450D01*
Y470000D02*
Y490000D01*
X63550Y470000D02*
X76450D01*
X63550D02*
Y490000D01*
X193550Y290000D02*
X206450D01*
Y270000D02*
Y290000D01*
X193550Y270000D02*
X206450D01*
X193550D02*
Y290000D01*
X323550Y510000D02*
X336450D01*
X323550D02*
Y530000D01*
X336450D01*
Y510000D02*
Y530000D01*
X73550Y680000D02*
X86450D01*
X73550D02*
Y700000D01*
X86450D01*
Y680000D02*
Y700000D01*
X280997Y859000D02*
X274332D01*
X271000Y855668D01*
X274332Y852336D01*
X280997D01*
Y849003D02*
X271000D01*
Y844005D01*
X272666Y842339D01*
X279331D01*
X280997Y844005D01*
Y849003D01*
X271000Y839006D02*
Y835674D01*
Y837340D01*
X280997D01*
X279331Y839006D01*
X171000Y160997D02*
Y152666D01*
X172666Y151000D01*
X175998D01*
X177665Y152666D01*
Y160997D01*
X185995Y151000D02*
Y160997D01*
X180997Y155998D01*
X187661D01*
X391000Y513997D02*
Y505666D01*
X392666Y504000D01*
X395998D01*
X397664Y505666D01*
Y513997D01*
X407661Y504000D02*
X400997D01*
X407661Y510664D01*
Y512331D01*
X405995Y513997D01*
X402663D01*
X400997Y512331D01*
X747664Y129331D02*
X745998Y130997D01*
X742666D01*
X741000Y129331D01*
Y127664D01*
X742666Y125998D01*
X745998D01*
X747664Y124332D01*
Y122666D01*
X745998Y121000D01*
X742666D01*
X741000Y122666D01*
X750997Y121000D02*
X754329D01*
X752663D01*
Y130997D01*
X750997Y129331D01*
X475800Y873997D02*
Y864000D01*
Y867332D01*
X482464Y873997D01*
X477466Y868998D01*
X482464Y864000D01*
X485797D02*
X489129D01*
X487463D01*
Y873997D01*
X485797Y872331D01*
X791000Y380997D02*
Y371000D01*
X795998D01*
X797664Y372666D01*
Y379331D01*
X795998Y380997D01*
X791000D01*
X807661Y379331D02*
X805995Y380997D01*
X802663D01*
X800997Y379331D01*
Y377664D01*
X802663Y375998D01*
X805995D01*
X807661Y374332D01*
Y372666D01*
X805995Y371000D01*
X802663D01*
X800997Y372666D01*
X810994Y371000D02*
X814326D01*
X812660D01*
Y380997D01*
X810994Y379331D01*
D57*
X140642Y100450D02*
Y199450D01*
Y100450D02*
X199643D01*
Y199450D01*
X140642D02*
X199643D01*
X876497Y853500D02*
X866500Y846835D01*
X876497D02*
X866500Y853500D01*
Y836839D02*
Y843503D01*
X873165Y836839D01*
X874831D01*
X876497Y838505D01*
Y841837D01*
X874831Y843503D01*
X438501Y688251D02*
Y678254D01*
X433502D01*
X431836Y679920D01*
Y683252D01*
X433502Y684919D01*
X438501D01*
X435168D02*
X431836Y688251D01*
X428504D02*
X425172D01*
X426838D01*
Y678254D01*
X428504Y679920D01*
X420173D02*
X418507Y678254D01*
X415175D01*
X413509Y679920D01*
Y681586D01*
X415175Y683252D01*
X413509Y684919D01*
Y686585D01*
X415175Y688251D01*
X418507D01*
X420173Y686585D01*
Y684919D01*
X418507Y683252D01*
X420173Y681586D01*
Y679920D01*
X418507Y683252D02*
X415175D01*
X431836Y630169D02*
X433502Y628503D01*
X436834D01*
X438500Y630169D01*
Y636834D01*
X436834Y638500D01*
X433502D01*
X431836Y636834D01*
X421839Y628503D02*
X428503D01*
Y633502D01*
X425171Y631836D01*
X423505D01*
X421839Y633502D01*
Y636834D01*
X423505Y638500D01*
X426837D01*
X428503Y636834D01*
X331749Y58501D02*
X341746D01*
Y53502D01*
X340080Y51836D01*
X336748D01*
X335081Y53502D01*
Y58501D01*
Y55169D02*
X331749Y51836D01*
X341746Y48504D02*
Y41839D01*
X340080D01*
X333415Y48504D01*
X331749D01*
X331749Y88501D02*
X341746D01*
Y83502D01*
X340080Y81836D01*
X336748D01*
X335081Y83502D01*
Y88501D01*
Y85169D02*
X331749Y81836D01*
X340080Y78504D02*
X341746Y76838D01*
Y73506D01*
X340080Y71839D01*
X338414D01*
X336748Y73506D01*
X335081Y71839D01*
X333415D01*
X331749Y73506D01*
Y76838D01*
X333415Y78504D01*
X335081D01*
X336748Y76838D01*
X338414Y78504D01*
X340080D01*
X336748Y76838D02*
Y73506D01*
X331749Y118501D02*
X341746D01*
Y113502D01*
X340080Y111836D01*
X336748D01*
X335081Y113502D01*
Y118501D01*
Y115169D02*
X331749Y111836D01*
X333415Y108504D02*
X331749Y106838D01*
Y103506D01*
X333415Y101840D01*
X340080D01*
X341746Y103506D01*
Y106838D01*
X340080Y108504D01*
X338414D01*
X336748Y106838D01*
Y101840D01*
X331749Y148501D02*
X341746D01*
Y143503D01*
X340080Y141836D01*
X336748D01*
X335081Y143503D01*
Y148501D01*
Y145169D02*
X331749Y141836D01*
Y138504D02*
Y135172D01*
Y136838D01*
X341746D01*
X340080Y138504D01*
Y130173D02*
X341746Y128507D01*
Y125175D01*
X340080Y123509D01*
X333415D01*
X331749Y125175D01*
Y128507D01*
X333415Y130173D01*
X340080D01*
X328251Y181499D02*
X318254D01*
Y186497D01*
X319920Y188164D01*
X323252D01*
X324919Y186497D01*
Y181499D01*
Y184831D02*
X328251Y188164D01*
Y196494D02*
X318254D01*
X323252Y191496D01*
Y198160D01*
X328251Y211499D02*
X318254D01*
Y216497D01*
X319920Y218164D01*
X323252D01*
X324919Y216497D01*
Y211499D01*
Y214831D02*
X328251Y218164D01*
X318254Y228160D02*
Y221496D01*
X323252D01*
X321586Y224828D01*
Y226494D01*
X323252Y228160D01*
X326585D01*
X328251Y226494D01*
Y223162D01*
X326585Y221496D01*
X328251Y241499D02*
X318254D01*
Y246498D01*
X319920Y248164D01*
X323252D01*
X324919Y246498D01*
Y241499D01*
Y244831D02*
X328251Y248164D01*
X318254Y258160D02*
X319920Y254828D01*
X323252Y251496D01*
X326585D01*
X328251Y253162D01*
Y256494D01*
X326585Y258160D01*
X324919D01*
X323252Y256494D01*
Y251496D01*
X451836Y380169D02*
X453502Y378503D01*
X456834D01*
X458500Y380169D01*
Y386834D01*
X456834Y388500D01*
X453502D01*
X451836Y386834D01*
X448503Y380169D02*
X446837Y378503D01*
X443505D01*
X441839Y380169D01*
Y381836D01*
X443505Y383502D01*
X441839Y385168D01*
Y386834D01*
X443505Y388500D01*
X446837D01*
X448503Y386834D01*
Y385168D01*
X446837Y383502D01*
X448503Y381836D01*
Y380169D01*
X446837Y383502D02*
X443505D01*
X421836Y380169D02*
X423502Y378503D01*
X426834D01*
X428500Y380169D01*
Y386834D01*
X426834Y388500D01*
X423502D01*
X421836Y386834D01*
X418503D02*
X416837Y388500D01*
X413505D01*
X411839Y386834D01*
Y380169D01*
X413505Y378503D01*
X416837D01*
X418503Y380169D01*
Y381836D01*
X416837Y383502D01*
X411839D01*
X231835Y380169D02*
X233502Y378503D01*
X236834D01*
X238500Y380169D01*
Y386834D01*
X236834Y388500D01*
X233502D01*
X231835Y386834D01*
X228503Y388500D02*
X225171D01*
X226837D01*
Y378503D01*
X228503Y380169D01*
X220173Y388500D02*
X216840D01*
X218507D01*
Y378503D01*
X220173Y380169D01*
X201835D02*
X203502Y378503D01*
X206834D01*
X208500Y380169D01*
Y386834D01*
X206834Y388500D01*
X203502D01*
X201835Y386834D01*
X198503Y388500D02*
X195171D01*
X196837D01*
Y378503D01*
X198503Y380169D01*
X190173D02*
X188507Y378503D01*
X185174D01*
X183508Y380169D01*
Y386834D01*
X185174Y388500D01*
X188507D01*
X190173Y386834D01*
Y380169D01*
X88503Y861500D02*
X98500Y868165D01*
X88503D02*
X98500Y861500D01*
Y871497D02*
Y874829D01*
Y873163D01*
X88503D01*
X90169Y871497D01*
X341500Y391497D02*
Y383166D01*
X343166Y381500D01*
X346498D01*
X348164Y383166D01*
Y391497D01*
X351497Y389831D02*
X353163Y391497D01*
X356495D01*
X358161Y389831D01*
Y388164D01*
X356495Y386498D01*
X354829D01*
X356495D01*
X358161Y384832D01*
Y383166D01*
X356495Y381500D01*
X353163D01*
X351497Y383166D01*
X226900Y701497D02*
Y693166D01*
X228566Y691500D01*
X231898D01*
X233565Y693166D01*
Y701497D01*
X236897Y691500D02*
X240229D01*
X238563D01*
Y701497D01*
X236897Y699830D01*
X838251Y581499D02*
X828254D01*
Y586498D01*
X829920Y588164D01*
X833252D01*
X834919Y586498D01*
Y581499D01*
Y584831D02*
X838251Y588164D01*
Y598160D02*
Y591496D01*
X831586Y598160D01*
X829920D01*
X828254Y596494D01*
Y593162D01*
X829920Y591496D01*
Y601493D02*
X828254Y603159D01*
Y606491D01*
X829920Y608157D01*
X836585D01*
X838251Y606491D01*
Y603159D01*
X836585Y601493D01*
X829920D01*
X888251Y581499D02*
X878254D01*
Y586498D01*
X879920Y588164D01*
X883252D01*
X884919Y586498D01*
Y581499D01*
Y584831D02*
X888251Y588164D01*
Y591496D02*
Y594828D01*
Y593162D01*
X878254D01*
X879920Y591496D01*
X886585Y599827D02*
X888251Y601493D01*
Y604825D01*
X886585Y606491D01*
X879920D01*
X878254Y604825D01*
Y601493D01*
X879920Y599827D01*
X881586D01*
X883252Y601493D01*
Y606491D01*
X791999Y578501D02*
X801996D01*
Y573503D01*
X800330Y571836D01*
X796998D01*
X795331Y573503D01*
Y578501D01*
Y575169D02*
X791999Y571836D01*
Y568504D02*
Y565172D01*
Y566838D01*
X801996D01*
X800330Y568504D01*
X801996Y560173D02*
Y553509D01*
X800330D01*
X793665Y560173D01*
X791999D01*
X111499Y541749D02*
Y551746D01*
X116498D01*
X118164Y550080D01*
Y546748D01*
X116498Y545081D01*
X111499D01*
X114831D02*
X118164Y541749D01*
X121496D02*
X124828D01*
X123162D01*
Y551746D01*
X121496Y550080D01*
X136491Y551746D02*
X133159Y550080D01*
X129827Y546748D01*
Y543415D01*
X131493Y541749D01*
X134825D01*
X136491Y543415D01*
Y545081D01*
X134825Y546748D01*
X129827D01*
X671749Y578501D02*
X681746D01*
Y573503D01*
X680080Y571836D01*
X676748D01*
X675081Y573503D01*
Y578501D01*
Y575169D02*
X671749Y571836D01*
Y568504D02*
Y565172D01*
Y566838D01*
X681746D01*
X680080Y568504D01*
X681746Y553509D02*
Y560173D01*
X676748D01*
X678414Y556841D01*
Y555175D01*
X676748Y553509D01*
X673415D01*
X671749Y555175D01*
Y558507D01*
X673415Y560173D01*
X621749Y578501D02*
X631746D01*
Y573503D01*
X630080Y571836D01*
X626748D01*
X625081Y573503D01*
Y578501D01*
Y575169D02*
X621749Y571836D01*
Y568504D02*
Y565172D01*
Y566838D01*
X631746D01*
X630080Y568504D01*
X621749Y555175D02*
X631746D01*
X626748Y560173D01*
Y553509D01*
X891499Y81749D02*
Y91746D01*
X896497D01*
X898164Y90080D01*
Y86748D01*
X896497Y85081D01*
X891499D01*
X894831D02*
X898164Y81749D01*
X901496D02*
X904828D01*
X903162D01*
Y91746D01*
X901496Y90080D01*
X909827D02*
X911493Y91746D01*
X914825D01*
X916491Y90080D01*
Y88414D01*
X914825Y86748D01*
X913159D01*
X914825D01*
X916491Y85081D01*
Y83415D01*
X914825Y81749D01*
X911493D01*
X909827Y83415D01*
X591499Y81749D02*
Y91746D01*
X596498D01*
X598164Y90080D01*
Y86748D01*
X596498Y85081D01*
X591499D01*
X594831D02*
X598164Y81749D01*
X601496D02*
X604828D01*
X603162D01*
Y91746D01*
X601496Y90080D01*
X616491Y81749D02*
X609827D01*
X616491Y88414D01*
Y90080D01*
X614825Y91746D01*
X611493D01*
X609827Y90080D01*
X718251Y581499D02*
X708254D01*
Y586498D01*
X709920Y588164D01*
X713252D01*
X714919Y586498D01*
Y581499D01*
Y584831D02*
X718251Y588164D01*
Y591496D02*
Y594828D01*
Y593162D01*
X708254D01*
X709920Y591496D01*
X718251Y599827D02*
Y603159D01*
Y601493D01*
X708254D01*
X709920Y599827D01*
X171499Y281749D02*
Y291746D01*
X176497D01*
X178164Y290080D01*
Y286748D01*
X176497Y285081D01*
X171499D01*
X174831D02*
X178164Y281749D01*
X181496Y290080D02*
X183162Y291746D01*
X186494D01*
X188160Y290080D01*
Y288414D01*
X186494Y286748D01*
X184828D01*
X186494D01*
X188160Y285081D01*
Y283415D01*
X186494Y281749D01*
X183162D01*
X181496Y283415D01*
X238501Y488001D02*
Y478004D01*
X233502D01*
X231836Y479670D01*
Y483003D01*
X233502Y484669D01*
X238501D01*
X235169D02*
X231836Y488001D01*
X221840D02*
X228504D01*
X221840Y481336D01*
Y479670D01*
X223506Y478004D01*
X226838D01*
X228504Y479670D01*
X271499Y491749D02*
Y501746D01*
X276497D01*
X278164Y500080D01*
Y496748D01*
X276497Y495081D01*
X271499D01*
X274831D02*
X278164Y491749D01*
X281496D02*
X284828D01*
X283162D01*
Y501746D01*
X281496Y500080D01*
X891164Y643166D02*
Y649831D01*
X889498Y651497D01*
X886166D01*
X884500Y649831D01*
Y643166D01*
X886166Y641500D01*
X889498D01*
X887832Y644832D02*
X891164Y641500D01*
X889498D02*
X891164Y643166D01*
X901161Y651497D02*
X894497D01*
Y646498D01*
X897829Y648165D01*
X899495D01*
X901161Y646498D01*
Y643166D01*
X899495Y641500D01*
X896163D01*
X894497Y643166D01*
X808165D02*
Y649831D01*
X806498Y651497D01*
X803166D01*
X801500Y649831D01*
Y643166D01*
X803166Y641500D01*
X806498D01*
X804832Y644832D02*
X808165Y641500D01*
X806498D02*
X808165Y643166D01*
X816495Y641500D02*
Y651497D01*
X811497Y646498D01*
X818161D01*
X183166Y541836D02*
X189831D01*
X191497Y543502D01*
Y546834D01*
X189831Y548500D01*
X183166D01*
X181500Y546834D01*
Y543502D01*
X184832Y545168D02*
X181500Y541836D01*
Y543502D02*
X183166Y541836D01*
X189831Y538503D02*
X191497Y536837D01*
Y533505D01*
X189831Y531839D01*
X188164D01*
X186498Y533505D01*
Y535171D01*
Y533505D01*
X184832Y531839D01*
X183166D01*
X181500Y533505D01*
Y536837D01*
X183166Y538503D01*
X638164Y643166D02*
Y649831D01*
X636498Y651497D01*
X633166D01*
X631500Y649831D01*
Y643166D01*
X633166Y641500D01*
X636498D01*
X634832Y644832D02*
X638164Y641500D01*
X636498D02*
X638164Y643166D01*
X648161Y641500D02*
X641497D01*
X648161Y648165D01*
Y649831D01*
X646495Y651497D01*
X643163D01*
X641497Y649831D01*
X721164Y643166D02*
Y649831D01*
X719498Y651497D01*
X716166D01*
X714500Y649831D01*
Y643166D01*
X716166Y641500D01*
X719498D01*
X717832Y644832D02*
X721164Y641500D01*
X719498D02*
X721164Y643166D01*
X724497Y641500D02*
X727829D01*
X726163D01*
Y651497D01*
X724497Y649831D01*
X898165Y169831D02*
X896498Y171497D01*
X893166D01*
X891500Y169831D01*
Y163166D01*
X893166Y161500D01*
X896498D01*
X898165Y163166D01*
X901497Y161500D02*
X904829D01*
X903163D01*
Y171497D01*
X901497Y169831D01*
X909827D02*
X911494Y171497D01*
X914826D01*
X916492Y169831D01*
Y168165D01*
X914826Y166498D01*
X913160D01*
X914826D01*
X916492Y164832D01*
Y163166D01*
X914826Y161500D01*
X911494D01*
X909827Y163166D01*
X578164Y489831D02*
X576498Y491497D01*
X573166D01*
X571500Y489831D01*
Y483166D01*
X573166Y481500D01*
X576498D01*
X578164Y483166D01*
X581497Y481500D02*
X584829D01*
X583163D01*
Y491497D01*
X581497Y489831D01*
X596492Y481500D02*
X589827D01*
X596492Y488164D01*
Y489831D01*
X594826Y491497D01*
X591493D01*
X589827Y489831D01*
X78165Y420081D02*
X76498Y421747D01*
X73166D01*
X71500Y420081D01*
Y413416D01*
X73166Y411750D01*
X76498D01*
X78165Y413416D01*
X81497Y421747D02*
X88161D01*
Y420081D01*
X81497Y413416D01*
Y411750D01*
X448164Y529831D02*
X446498Y531497D01*
X443166D01*
X441500Y529831D01*
Y523166D01*
X443166Y521500D01*
X446498D01*
X448164Y523166D01*
X458161Y531497D02*
X454829Y529831D01*
X451497Y526498D01*
Y523166D01*
X453163Y521500D01*
X456495D01*
X458161Y523166D01*
Y524832D01*
X456495Y526498D01*
X451497D01*
X78165Y489831D02*
X76498Y491497D01*
X73166D01*
X71500Y489831D01*
Y483166D01*
X73166Y481500D01*
X76498D01*
X78165Y483166D01*
X86495Y481500D02*
Y491497D01*
X81497Y486498D01*
X88161D01*
X208165Y289831D02*
X206498Y291497D01*
X203166D01*
X201500Y289831D01*
Y283166D01*
X203166Y281500D01*
X206498D01*
X208165Y283166D01*
X211497Y289831D02*
X213163Y291497D01*
X216495D01*
X218161Y289831D01*
Y288165D01*
X216495Y286498D01*
X214829D01*
X216495D01*
X218161Y284832D01*
Y283166D01*
X216495Y281500D01*
X213163D01*
X211497Y283166D01*
X321836Y510169D02*
X323502Y508503D01*
X326834D01*
X328500Y510169D01*
Y516834D01*
X326834Y518500D01*
X323502D01*
X321836Y516834D01*
X311839Y518500D02*
X318503D01*
X311839Y511836D01*
Y510169D01*
X313505Y508503D01*
X316837D01*
X318503Y510169D01*
X71835Y680169D02*
X73502Y678503D01*
X76834D01*
X78500Y680169D01*
Y686834D01*
X76834Y688500D01*
X73502D01*
X71835Y686834D01*
X68503Y688500D02*
X65171D01*
X66837D01*
Y678503D01*
X68503Y680169D01*
D58*
X158400Y736000D02*
X291401D01*
Y644000D02*
Y736000D01*
X158400Y644000D02*
X291401D01*
X158400D02*
Y736000D01*
M02*
