G04*
G04 #@! TF.GenerationSoftware,Altium Limited,Altium Designer,22.7.1 (60)*
G04*
G04 Layer_Physical_Order=4*
G04 Layer_Color=16711680*
%FSLAX44Y44*%
%MOMM*%
G71*
G04*
G04 #@! TF.SameCoordinates,91C71047-42CA-43BF-A667-CA5565F335C7*
G04*
G04*
G04 #@! TF.FilePolarity,Positive*
G04*
G01*
G75*
%ADD11C,0.2540*%
%ADD40C,0.2032*%
%ADD41C,0.5000*%
%ADD43C,3.0000*%
%ADD44C,2.0000*%
%ADD45C,3.5000*%
%ADD46O,2.0000X1.5000*%
%ADD47R,1.1000X1.1000*%
%ADD48R,1.1000X1.1000*%
%ADD49C,2.5000*%
%ADD50C,0.8000*%
%ADD51C,1.2700*%
%ADD52C,1.5000*%
%ADD53C,1.3000*%
D11*
X822460Y880000D02*
X840000D01*
X857540D01*
X840000D02*
Y897540D01*
Y862460D02*
Y880000D01*
X350000Y640000D02*
X356540D01*
X350000D02*
Y646540D01*
Y633460D02*
Y640000D01*
X343460D02*
X350000D01*
X300000Y500000D02*
Y506540D01*
Y500000D02*
X306540D01*
X300000Y493460D02*
Y500000D01*
X293460D02*
X300000D01*
X310000Y453460D02*
Y460000D01*
X316540D01*
X310000D02*
Y466540D01*
X303460Y460000D02*
X310000D01*
X150000Y885000D02*
X167540D01*
X150000D02*
Y902540D01*
X132460Y885000D02*
X150000D01*
Y867460D02*
Y885000D01*
X200000Y680000D02*
X212540D01*
X187460D02*
X200000D01*
Y690040D01*
X180000Y350000D02*
X186540D01*
X240000Y340000D02*
Y346540D01*
X180000Y350000D02*
Y356540D01*
X173460Y350000D02*
X180000D01*
Y343460D02*
Y350000D01*
X240000Y340000D02*
X246540D01*
X240000Y333460D02*
Y340000D01*
X233460D02*
X240000D01*
D40*
X964195Y988633D02*
G03*
X988633Y964195I5805J-18633D01*
G01*
X898516Y910000D02*
G03*
X898516Y910000I-8516J0D01*
G01*
X858556Y880000D02*
G03*
X858556Y880000I-18556J0D01*
G01*
X857016Y830000D02*
G03*
X857016Y830000I-17016J0D01*
G01*
X898516Y800000D02*
G03*
X898516Y800000I-8516J0D01*
G01*
X823410Y580000D02*
G03*
X823410Y580000I-8366J0D01*
G01*
X852816Y420800D02*
G03*
X852816Y420800I-12016J0D01*
G01*
X773457Y560126D02*
G03*
X788866Y564642I7042J4516D01*
G01*
D02*
G03*
X773457Y569158I-8366J0D01*
G01*
X802016Y420800D02*
G03*
X778933Y416119I-12016J0D01*
G01*
X827416Y420800D02*
G03*
X827416Y420800I-12016J0D01*
G01*
X785320Y409733D02*
G03*
X802016Y420800I4680J11067D01*
G01*
X615316Y900000D02*
G03*
X615316Y900000I-14516J0D01*
G01*
X564916D02*
G03*
X564916Y900000I-14516J0D01*
G01*
X514516D02*
G03*
X514516Y900000I-14516J0D01*
G01*
X615316Y824000D02*
G03*
X615316Y824000I-14516J0D01*
G01*
X564916D02*
G03*
X564916Y824000I-14516J0D01*
G01*
X514516D02*
G03*
X514516Y824000I-14516J0D01*
G01*
X479806Y569158D02*
G03*
X476610Y567832I0J-4516D01*
G01*
X479806Y569158D02*
G03*
X476613Y567835I0J-4516D01*
G01*
X738116Y538988D02*
G03*
X722708Y543504I-8366J0D01*
G01*
Y534472D02*
G03*
X738116Y538988I7042J4516D01*
G01*
X776616Y420800D02*
G03*
X753533Y416119I-12016J0D01*
G01*
X751216Y420800D02*
G03*
X751216Y420800I-12016J0D01*
G01*
X759920Y409733D02*
G03*
X776616Y420800I4680J11067D01*
G01*
X472694Y543504D02*
G03*
X469501Y542181I0J-4516D01*
G01*
X472694Y543504D02*
G03*
X469498Y542178I0J-4516D01*
G01*
X582016Y420000D02*
G03*
X582016Y420000I-12016J0D01*
G01*
X468366D02*
G03*
X468366Y420000I-8366J0D01*
G01*
X852816Y319200D02*
G03*
X852816Y319200I-12016J0D01*
G01*
X827416D02*
G03*
X804333Y314519I-12016J0D01*
G01*
X802016Y319200D02*
G03*
X802016Y319200I-12016J0D01*
G01*
X810720Y308133D02*
G03*
X827416Y319200I4680J11067D01*
G01*
X776616D02*
G03*
X776616Y319200I-12016J0D01*
G01*
X894658Y206304D02*
G03*
X910066Y210820I7042J4516D01*
G01*
D02*
G03*
X894658Y215336I-8366J0D01*
G01*
X768742Y268026D02*
G03*
X771938Y269352I0J4516D01*
G01*
X768742Y268026D02*
G03*
X771936Y269349I0J4516D01*
G01*
X988633Y35805D02*
G03*
X964195Y11367I-18633J-5805D01*
G01*
X743596Y395280D02*
G03*
X746792Y396606I0J4516D01*
G01*
X743596Y395280D02*
G03*
X746789Y396603I0J4516D01*
G01*
X602416Y404312D02*
G03*
X599223Y402989I0J-4516D01*
G01*
X602416Y404312D02*
G03*
X599220Y402986I0J-4516D01*
G01*
X580629Y384395D02*
G03*
X582016Y390000I-10629J5605D01*
G01*
X579120Y371984D02*
G03*
X582316Y373310I0J4516D01*
G01*
X579120Y371984D02*
G03*
X582313Y373307I0J4516D01*
G01*
X715700Y341984D02*
G03*
X718896Y343309I0J4516D01*
G01*
X715700Y341984D02*
G03*
X718893Y343306I0J4516D01*
G01*
X577979Y351016D02*
G03*
X582016Y360000I-7979J8984D01*
G01*
D02*
G03*
X570871Y371984I-12016J0D01*
G01*
X582016Y390000D02*
G03*
X562020Y381016I-12016J0D01*
G01*
X569128Y371984D02*
G03*
X562020Y351016I872J-11984D01*
G01*
X751216Y319200D02*
G03*
X751216Y319200I-12016J0D01*
G01*
X569121Y341984D02*
G03*
X582016Y330000I878J-11984D01*
G01*
D02*
G03*
X570878Y341984I-12016J0D01*
G01*
X563824Y215336D02*
G03*
X563824Y206304I-7042J-4516D01*
G01*
X363316Y902000D02*
G03*
X363316Y902000I-14516J0D01*
G01*
Y824000D02*
G03*
X363316Y824000I-14516J0D01*
G01*
X419338Y541274D02*
G03*
X419338Y541274I-8366J0D01*
G01*
X382636Y473858D02*
G03*
X381310Y470662I3190J-3196D01*
G01*
X382633Y473855D02*
G03*
X381310Y470662I3193J-3193D01*
G01*
X397519Y470199D02*
G03*
X390342Y468424I-1787J-8173D01*
G01*
X438366Y427736D02*
G03*
X438366Y427736I-8366J0D01*
G01*
X404098Y462026D02*
G03*
X403905Y463812I-8366J0D01*
G01*
X390342Y455628D02*
G03*
X404098Y462026I5390J6398D01*
G01*
X370316Y440944D02*
G03*
X370316Y440944I-8366J0D01*
G01*
X389019Y430131D02*
G03*
X390342Y433324I-3193J3193D01*
G01*
X389016Y430128D02*
G03*
X390342Y433324I-3190J3196D01*
G01*
X357556Y640000D02*
G03*
X357556Y640000I-7556J0D01*
G01*
X307556Y500000D02*
G03*
X307556Y500000I-7556J0D01*
G01*
X317556Y460000D02*
G03*
X317556Y460000I-7556J0D01*
G01*
X282016Y910000D02*
G03*
X282016Y910000I-12016J0D01*
G01*
X168556Y885000D02*
G03*
X168556Y885000I-18556J0D01*
G01*
X49516Y970000D02*
G03*
X35805Y988633I-19516J0D01*
G01*
X58516Y915000D02*
G03*
X58516Y915000I-8516J0D01*
G01*
X282016Y810000D02*
G03*
X282016Y810000I-12016J0D01*
G01*
X212016Y720000D02*
G03*
X202500Y729516I-9516J0D01*
G01*
X197500D02*
G03*
X197500Y710484I0J-9516D01*
G01*
X167016Y835000D02*
G03*
X167016Y835000I-17016J0D01*
G01*
X58516Y805000D02*
G03*
X58516Y805000I-8516J0D01*
G01*
X11367Y964195D02*
G03*
X49516Y970000I18633J5805D01*
G01*
X262816Y700000D02*
G03*
X253300Y709516I-9516J0D01*
G01*
Y690484D02*
G03*
X262816Y700000I0J9516D01*
G01*
X248300Y709516D02*
G03*
X248300Y690484I0J-9516D01*
G01*
Y689516D02*
G03*
X248300Y670484I0J-9516D01*
G01*
X262816Y680000D02*
G03*
X253300Y689516I-9516J0D01*
G01*
Y670484D02*
G03*
X262816Y680000I0J9516D01*
G01*
X253300Y650484D02*
G03*
X262816Y660000I0J9516D01*
G01*
D02*
G03*
X253300Y669516I-9516J0D01*
G01*
X202500Y710484D02*
G03*
X212016Y720000I0J9516D01*
G01*
X197500Y691056D02*
G03*
X195098Y669208I0J-11056D01*
G01*
X213556Y680000D02*
G03*
X202500Y691056I-11056J0D01*
G01*
X204902Y669208D02*
G03*
X213556Y680000I-2402J10792D01*
G01*
X212016Y660000D02*
G03*
X204902Y669208I-9516J0D01*
G01*
X202500Y650484D02*
G03*
X212016Y660000I0J9516D01*
G01*
X195098Y669208D02*
G03*
X197500Y650484I2402J-9208D01*
G01*
X248300Y669516D02*
G03*
X248300Y650484I0J-9516D01*
G01*
X144420Y482742D02*
G03*
X141224Y484068I-3196J-3190D01*
G01*
X144417Y482745D02*
G03*
X141224Y484068I-3193J-3193D01*
G01*
X103654Y680212D02*
G03*
X103654Y680212I-8366J0D01*
G01*
X106624Y498164D02*
G03*
X110474Y505206I-4516J7042D01*
G01*
D02*
G03*
X97592Y498164I-8366J0D01*
G01*
X125774Y484068D02*
G03*
X128000Y489750I-6140J5682D01*
G01*
X139516Y460000D02*
G03*
X139516Y460000I-9516J0D01*
G01*
X128000Y489750D02*
G03*
X113494Y484068I-8366J0D01*
G01*
X107043Y476359D02*
G03*
X110236Y475036I3193J3193D01*
G01*
X97592Y487680D02*
G03*
X98918Y484484I4516J0D01*
G01*
X97592Y487680D02*
G03*
X98915Y484487I4516J0D01*
G01*
X107040Y476362D02*
G03*
X110236Y475036I3196J3190D01*
G01*
X435682Y381016D02*
G03*
X432489Y379693I0J-4516D01*
G01*
X435682Y381016D02*
G03*
X432486Y379691I0J-4516D01*
G01*
X392414Y405384D02*
G03*
X392414Y405384I-8366J0D01*
G01*
X395716Y358648D02*
G03*
X385564Y366821I-8366J0D01*
G01*
X379177Y360434D02*
G03*
X395716Y358648I8173J-1787D01*
G01*
X420922Y351016D02*
G03*
X417728Y349693I0J-4516D01*
G01*
X420922Y351016D02*
G03*
X417726Y349690I0J-4516D01*
G01*
X381746Y335788D02*
G03*
X381746Y335788I-8366J0D01*
G01*
X362696Y401828D02*
G03*
X362503Y403615I-8366J0D01*
G01*
X357377Y394036D02*
G03*
X362696Y401828I-3047J7792D01*
G01*
X359558Y392826D02*
G03*
X357377Y394036I-3196J-3190D01*
G01*
X359555Y392829D02*
G03*
X357377Y394036I-3193J-3193D01*
G01*
X356116Y410001D02*
G03*
X351003Y394152I-1787J-8173D01*
G01*
X357870Y357124D02*
G03*
X357870Y357124I-8366J0D01*
G01*
X402598Y334563D02*
G03*
X400309Y334741I-1787J-8173D01*
G01*
X392461Y326893D02*
G03*
X409178Y326390I8351J-503D01*
G01*
D02*
G03*
X408985Y328176I-8366J0D01*
G01*
X388350Y306578D02*
G03*
X384500Y313620I-8366J0D01*
G01*
X376794Y323998D02*
G03*
X375468Y320802I3190J-3196D01*
G01*
X376791Y323995D02*
G03*
X375468Y320802I3193J-3193D01*
G01*
X438896Y60000D02*
G03*
X438896Y60000I-8366J0D01*
G01*
X375468Y313620D02*
G03*
X388350Y306578I4516J-7042D01*
G01*
X377120Y277058D02*
G03*
X377120Y268026I-7042J-4516D01*
G01*
X358124Y297180D02*
G03*
X358124Y297180I-8366J0D01*
G01*
X333740Y405384D02*
G03*
X333740Y405384I-8366J0D01*
G01*
X289290Y401066D02*
G03*
X276214Y394152I-8366J0D01*
G01*
X285634D02*
G03*
X289290Y401066I-4710J6914D01*
G01*
X227944Y386446D02*
G03*
X231140Y385120I3196J3190D01*
G01*
X227947Y386443D02*
G03*
X231140Y385120I3193J3193D01*
G01*
X333740Y370332D02*
G03*
X333740Y370332I-8366J0D01*
G01*
X297672Y373888D02*
G03*
X297672Y373888I-8366J0D01*
G01*
X303006Y352044D02*
G03*
X303006Y352044I-8366J0D01*
G01*
X247556Y340000D02*
G03*
X247556Y340000I-7556J0D01*
G01*
X187556Y350000D02*
G03*
X187556Y350000I-7556J0D01*
G01*
X139516Y411000D02*
G03*
X139516Y411000I-9516J0D01*
G01*
X333740Y335026D02*
G03*
X333740Y335026I-8366J0D01*
G01*
X348218Y255270D02*
G03*
X348218Y255270I-8366J0D01*
G01*
X287990Y240000D02*
G03*
X287990Y240000I-8366J0D01*
G01*
X196834Y194450D02*
G03*
X196834Y194450I-8366J0D01*
G01*
X160004D02*
G03*
X160004Y194450I-8366J0D01*
G01*
X127098Y237096D02*
G03*
X127098Y237096I-8366J0D01*
G01*
X160004Y143650D02*
G03*
X160004Y143650I-8366J0D01*
G01*
X126984Y156464D02*
G03*
X126984Y156464I-8366J0D01*
G01*
X126730Y135636D02*
G03*
X126730Y135636I-8366J0D01*
G01*
X328660Y44704D02*
G03*
X328660Y44704I-8366J0D01*
G01*
X196834Y118364D02*
G03*
X196834Y118364I-8366J0D01*
G01*
X160004Y118250D02*
G03*
X160004Y118250I-8366J0D01*
G01*
X49516Y30000D02*
G03*
X11367Y35805I-19516J0D01*
G01*
X35805Y11367D02*
G03*
X49516Y30000I-5805J18633D01*
G01*
X951103Y988633D02*
X956069Y983667D01*
X958288Y988633D02*
X960101Y986819D01*
X943919Y988633D02*
X952988Y979564D01*
X915182Y988633D02*
X988633Y915182D01*
X907998Y988633D02*
X988633Y907998D01*
X893630Y988633D02*
X988633Y893630D01*
X889776Y918513D02*
X959896Y988633D01*
X886445D02*
X988633Y886445D01*
X855001Y890922D02*
X952712Y988633D01*
X983667Y956069D02*
X988633Y951103D01*
X979564Y952988D02*
X988633Y943919D01*
X986819Y960101D02*
X988633Y958288D01*
X967544Y950639D02*
X988633Y929551D01*
X974385Y950983D02*
X988633Y936735D01*
X900814Y988633D02*
X988633Y900814D01*
X922367Y988633D02*
X988633Y922367D01*
X872077Y988633D02*
X988633Y872077D01*
X879261Y988633D02*
X988633Y879261D01*
X846926Y897215D02*
X938343Y988633D01*
X929551D02*
X950639Y967544D01*
X841052Y898526D02*
X931159Y988633D01*
X851476Y894582D02*
X945528Y988633D01*
X832160Y896818D02*
X923975Y988633D01*
X821788D02*
X892191Y918229D01*
X814603Y988633D02*
X885818Y917418D01*
X807419Y988633D02*
X882337Y913715D01*
X800235Y988633D02*
X882136Y906731D01*
X936735Y988633D02*
X950983Y974385D01*
X898139Y912507D02*
X951033Y965402D01*
X895195Y916748D02*
X950603Y972156D01*
X858556Y880109D02*
X883252Y904805D01*
X857483Y886220D02*
X881487Y910224D01*
X897419Y905818D02*
X988633Y814603D01*
X893821Y807611D02*
X988633Y902422D01*
X898230Y912191D02*
X988633Y821788D01*
X897475Y804080D02*
X988633Y895238D01*
X893715Y902337D02*
X988633Y807419D01*
X886994Y807968D02*
X988633Y909606D01*
X856919Y828182D02*
X988633Y959896D01*
X855379Y890384D02*
X988633Y757130D01*
X886732Y902136D02*
X988633Y800235D01*
X858556Y880022D02*
X988633Y749946D01*
X857517Y873877D02*
X988633Y742761D01*
X898168Y797589D02*
X988633Y888054D01*
X851550Y865476D02*
X988633Y728393D01*
X855056Y869154D02*
X988633Y735577D01*
X841176Y861481D02*
X988633Y714024D01*
X847019Y862822D02*
X988633Y721209D01*
X805569Y647516D02*
X988633Y830580D01*
X798385Y647516D02*
X988633Y837764D01*
X857709Y988633D02*
X988633Y857709D01*
X850524Y988633D02*
X988633Y850524D01*
X864893Y988633D02*
X988633Y864893D01*
X845944Y845944D02*
X956200Y956200D01*
X845944Y845944D02*
X956200Y956200D01*
X843340Y988633D02*
X988633Y843340D01*
X839831Y847015D02*
X953084Y960268D01*
X828972Y988633D02*
X988633Y828972D01*
X836156Y988633D02*
X988633Y836156D01*
X850542Y843357D02*
X960268Y953084D01*
X854017Y839648D02*
X965402Y951033D01*
X855631Y869999D02*
X887493Y901861D01*
X856331Y834779D02*
X972156Y950603D01*
X856965Y831324D02*
X883184Y805105D01*
X832402Y863071D02*
X887373Y808100D01*
X757130Y988633D02*
X850384Y895378D01*
X778682Y988633D02*
X988633Y778682D01*
X749946Y988633D02*
X840023Y898556D01*
X764314Y988633D02*
X988633Y764314D01*
X771498Y988633D02*
X988633Y771498D01*
X541603Y988633D02*
X882720Y647516D01*
X656551Y988633D02*
X988633Y656551D01*
X699656Y988633D02*
X841325Y846964D01*
X555972Y988633D02*
X897088Y647516D01*
X548787Y988633D02*
X889904Y647516D01*
X785866Y988633D02*
X988633Y785866D01*
X712174Y647516D02*
X988633Y923975D01*
X793051Y988633D02*
X988633Y793051D01*
X784016Y647516D02*
X988633Y852133D01*
X719358Y647516D02*
X988633Y916791D01*
X649367Y988633D02*
X988633Y649367D01*
X615305Y900563D02*
X868352Y647516D01*
X697806D02*
X988633Y938343D01*
X633148Y647516D02*
X850001Y864369D01*
X728393Y988633D02*
X825477Y891549D01*
X735577Y988633D02*
X829154Y895056D01*
X721209Y988633D02*
X822823Y887019D01*
X706840Y988633D02*
X823071Y872402D01*
X714024Y988633D02*
X821482Y881176D01*
X678103Y988633D02*
X826447Y840289D01*
X670919Y988633D02*
X823937Y835615D01*
X663735Y988633D02*
X822996Y829372D01*
X615312Y823654D02*
X780291Y988633D01*
X742761D02*
X833878Y897516D01*
X692472Y988633D02*
X834878Y846227D01*
X685288Y988633D02*
X830089Y843831D01*
X625964Y647516D02*
X839892Y861444D01*
X618779Y647516D02*
X833780Y862517D01*
X563851Y894543D02*
X810878Y647516D01*
X561061Y890149D02*
X803694Y647516D01*
X611595D02*
X829078Y864999D01*
X564900Y900678D02*
X818062Y647516D01*
X634998Y988633D02*
X988633Y634998D01*
X627814Y988633D02*
X988633Y627814D01*
X642182Y988633D02*
X988633Y642182D01*
X613445Y988633D02*
X988633Y613445D01*
X620630Y988633D02*
X988633Y620630D01*
X563156Y988633D02*
X988633Y563156D01*
X605079Y569158D02*
X988633Y952712D01*
X484130Y988633D02*
X988633Y484130D01*
X491314Y988633D02*
X988633Y491314D01*
X684105Y569158D02*
X988633Y873686D01*
X791200Y647516D02*
X988633Y844949D01*
X704990Y647516D02*
X988633Y931159D01*
X698474Y569158D02*
X988633Y859317D01*
X691290Y569158D02*
X988633Y866501D01*
X676921Y569158D02*
X988633Y880870D01*
X612263Y569158D02*
X988633Y945528D01*
X601623Y885508D02*
X988633Y498498D01*
X607296Y887019D02*
X988633Y505682D01*
X599077Y988633D02*
X988633Y599077D01*
X591893Y988633D02*
X988633Y591893D01*
X606261Y988633D02*
X988633Y606261D01*
X577524Y988633D02*
X988633Y577524D01*
X584709Y988633D02*
X988633Y584709D01*
X482947Y569158D02*
X902422Y988633D01*
X534419D02*
X875536Y647516D01*
X497316Y569158D02*
X916791Y988633D01*
X490132Y569158D02*
X909606Y988633D01*
X614219Y894465D02*
X862484Y646200D01*
X611408Y890091D02*
X862484Y639016D01*
X563516Y830220D02*
X808511Y585225D01*
X570340Y988633D02*
X988633Y570340D01*
X526053Y569158D02*
X825419Y868524D01*
X504500Y569158D02*
X823182Y887840D01*
X510714Y890206D02*
X812848Y588072D01*
X518868Y569158D02*
X822785Y873075D01*
X511684Y569158D02*
X821474Y878948D01*
X853832Y820089D02*
X988633Y685288D01*
X895105Y793184D02*
X988633Y699656D01*
X898101Y797372D02*
X988633Y706840D01*
X845615Y813937D02*
X988633Y670919D01*
X850289Y816447D02*
X988633Y678103D01*
X812753Y647516D02*
X988633Y823396D01*
X819937Y647516D02*
X988633Y816212D01*
X839372Y812996D02*
X988633Y663735D01*
X820516Y633727D02*
X988633Y801843D01*
X820516Y640911D02*
X988633Y809028D01*
X891779Y647516D02*
X988633Y744370D01*
X898964Y647516D02*
X988633Y737185D01*
X889612Y791493D02*
X988633Y692472D01*
X903516Y637700D02*
X988633Y722817D01*
X903516Y644885D02*
X988633Y730001D01*
X870227Y647516D02*
X988633Y765922D01*
X863043Y647516D02*
X988633Y773107D01*
X884595Y647516D02*
X988633Y751554D01*
X877411Y647516D02*
X988633Y758738D01*
X875484Y647516D02*
X877516D01*
X862484D02*
X875484D01*
X862484Y646957D02*
X863043Y647516D01*
X862484Y632484D02*
Y647516D01*
X856227Y824878D02*
X881493Y799612D01*
X805484Y647516D02*
X807516D01*
X820516D01*
X805484D02*
X807516D01*
X888484D02*
X890516D01*
X888484D02*
X890516D01*
X877516D02*
X888484D01*
X890516D02*
X903516D01*
X888484Y632484D02*
X890516D01*
X875484Y647516D02*
X877516D01*
X805484Y632484D02*
X807516D01*
X820516D01*
X805484D02*
X807516D01*
X903516Y633904D02*
X988633Y548787D01*
X897752Y632484D02*
X988633Y541603D01*
X903516Y641088D02*
X988633Y555972D01*
X820516Y637878D02*
X988633Y469761D01*
X869015Y632484D02*
X988633Y512867D01*
X818726Y632484D02*
X988633Y462577D01*
X820516Y645062D02*
X988633Y476945D01*
X813414Y432650D02*
X988633Y607870D01*
X811541Y632484D02*
X988633Y455393D01*
X847475Y430791D02*
X988633Y571949D01*
X851008Y427139D02*
X988633Y564764D01*
X842230Y432730D02*
X988633Y579133D01*
X852780Y421727D02*
X988633Y557580D01*
X826828Y424512D02*
X988633Y586317D01*
X824158Y429026D02*
X988633Y593501D01*
X819892Y431945D02*
X988633Y600685D01*
X820270Y573466D02*
X988633Y405103D01*
X823117Y577803D02*
X988633Y412287D01*
X875484Y632484D02*
X877516D01*
X875484D02*
X877516D01*
X862484D02*
X875484D01*
X903516D02*
Y647516D01*
X877516Y632484D02*
X888484D01*
X817795Y587901D02*
X862484Y632589D01*
X820516Y632484D02*
Y647516D01*
X823362Y579098D02*
X876747Y632484D01*
X821889Y584810D02*
X869563Y632484D01*
X890516D02*
X903516D01*
X890568D02*
X988633Y534419D01*
X888484Y632484D02*
X890516D01*
X876199D02*
X988633Y520051D01*
X883383Y632484D02*
X988633Y527235D01*
X827248Y422804D02*
X828793Y421259D01*
X826935Y417435D02*
X828869Y419369D01*
X726543Y647516D02*
X882032Y803006D01*
X733516Y647306D02*
X882390Y796179D01*
X650516Y643332D02*
X826643Y819459D01*
X763132Y569158D02*
X988633Y794659D01*
X650516Y636148D02*
X830352Y815984D01*
X647516Y647516D02*
X824056Y824056D01*
X647516Y647516D02*
X824056Y824056D01*
X640332Y647516D02*
X822985Y830169D01*
X597895Y569158D02*
X841818Y813081D01*
X590711Y569158D02*
X835221Y813669D01*
X770316Y569158D02*
X988633Y787475D01*
X781311Y572969D02*
X988633Y780291D01*
X786247Y570721D02*
X862484Y646957D01*
X804357Y632484D02*
X988633Y448209D01*
X788748Y566038D02*
X862484Y639773D01*
X733516Y632937D02*
X892411Y791832D01*
X733516Y640121D02*
X885920Y792525D01*
X755947Y569158D02*
X819274Y632484D01*
X748763Y569158D02*
X812089Y632484D01*
X792484Y647516D02*
X794516D01*
X792484D02*
X794516D01*
X779484D02*
X792484D01*
X794516D02*
X805484D01*
X720026Y569158D02*
X783353Y632484D01*
X614011Y830014D02*
X796509Y647516D01*
X613201Y816456D02*
X782141Y647516D01*
X564749Y821803D02*
X806679Y579873D01*
X615134Y821708D02*
X789325Y647516D01*
X792484Y632484D02*
X794516D01*
X792484D02*
X794516D01*
X779484D02*
X792484D01*
X794516D02*
X805484D01*
X734395Y569158D02*
X797721Y632484D01*
X727211Y569158D02*
X790537Y632484D01*
X741579Y569158D02*
X804905Y632484D01*
X741512Y432591D02*
X988633Y679712D01*
X769451Y431793D02*
X988633Y650975D01*
X763209Y432735D02*
X988633Y658159D01*
X749782Y426492D02*
X988633Y665343D01*
X746471Y430366D02*
X988633Y672527D01*
X598425Y809679D02*
X988633Y419472D01*
X732534Y430798D02*
X988633Y686896D01*
X698865Y404312D02*
X988633Y694080D01*
X691681Y404312D02*
X988633Y701264D01*
X789989Y632484D02*
X988633Y433840D01*
X791879Y432668D02*
X988633Y629422D01*
X797173Y632484D02*
X988633Y441024D01*
X800399Y426820D02*
X988633Y615054D01*
X796977Y430583D02*
X988633Y622238D01*
X782805Y632484D02*
X988633Y426656D01*
X773602Y428759D02*
X988633Y643791D01*
X776148Y424121D02*
X988633Y636606D01*
X670128Y404312D02*
X898300Y632484D01*
X736923Y534682D02*
X838934Y432670D01*
X686843Y534472D02*
X788583Y432732D01*
X679659Y534472D02*
X783334Y430797D01*
X701211Y534472D02*
X806649Y429034D01*
X694027Y534472D02*
X803976Y424524D01*
X648575Y404312D02*
X815946Y571683D01*
X634207Y404312D02*
X807144Y577249D01*
X662944Y404312D02*
X891116Y632484D01*
X655759Y404312D02*
X883932Y632484D01*
X802008Y421245D02*
X803549Y422786D01*
X801932Y419383D02*
X803858Y417457D01*
X715580Y534472D02*
X817404Y432647D01*
X708396Y534472D02*
X810919Y431949D01*
X733099Y531321D02*
X833831Y430589D01*
X725385Y531851D02*
X830406Y426830D01*
X705484Y647516D02*
X707516D01*
X705484D02*
X707516D01*
X692484D02*
X705484D01*
X718484D02*
X720516D01*
X707516D02*
X718484D01*
X614175Y894359D02*
X708449Y988633D01*
X611306Y834017D02*
X765922Y988633D01*
X615104Y902472D02*
X701264Y988633D01*
X609835Y812638D02*
X779484Y642989D01*
X614157Y829683D02*
X773107Y988633D01*
X720516Y647516D02*
X733516D01*
X718484Y632484D02*
X720516D01*
X718484Y647516D02*
X720516D01*
X779484Y632484D02*
Y647516D01*
X718484Y632484D02*
X720516D01*
X705484D02*
X707516D01*
X692484D02*
X705484D01*
X707516D02*
X718484D01*
X705484D02*
X707516D01*
X622484Y647516D02*
X624516D01*
X635484D01*
X622484D02*
X624516D01*
X635484D02*
X637516D01*
X635484D02*
X637516D01*
X613122Y907674D02*
X694080Y988633D01*
X609717Y911454D02*
X686896Y988633D01*
X609484Y647516D02*
X622484D01*
X609484Y632484D02*
Y647516D01*
X637516D02*
X650516D01*
X635484Y632484D02*
X637516D01*
X635484D02*
X637516D01*
X692484D02*
Y647516D01*
X650516Y632484D02*
Y647516D01*
X609484Y632484D02*
X622484D01*
X609484Y633384D02*
X610383Y632484D01*
X622484D02*
X624516D01*
X622484D02*
X624516D01*
X733516D02*
Y647516D01*
X650516Y642641D02*
X723999Y569158D01*
X650516Y635457D02*
X716815Y569158D01*
X712842D02*
X779484Y635800D01*
X705658Y569158D02*
X779484Y642984D01*
X639120Y632484D02*
X702447Y569158D01*
X633816D02*
X697142Y632484D01*
X646304D02*
X709631Y569158D01*
X641000D02*
X704326Y632484D01*
X710962D02*
X773798Y569649D01*
X718147Y632484D02*
X778004Y572627D01*
X720516Y632484D02*
X733516D01*
X703778D02*
X767104Y569158D01*
X696594Y632484D02*
X759920Y569158D01*
X655368D02*
X718695Y632484D01*
X648184Y569158D02*
X711511Y632484D01*
X669737Y569158D02*
X733063Y632484D01*
X662553Y569158D02*
X725879Y632484D01*
X637516D02*
X650516D01*
X624752D02*
X688078Y569158D01*
X624516Y632484D02*
X635484D01*
X631936D02*
X695262Y569158D01*
X626632D02*
X692484Y635010D01*
X617568Y632484D02*
X680894Y569158D01*
X610383Y632484D02*
X673710Y569158D01*
X619448D02*
X692484Y642195D01*
X610900Y560126D02*
X627522Y543504D01*
X632452Y560126D02*
X649074Y543504D01*
X636899D02*
X653521Y560126D01*
X629715Y543504D02*
X646337Y560126D01*
X644083Y543504D02*
X660705Y560126D01*
X639636D02*
X656258Y543504D01*
X618084Y560126D02*
X634706Y543504D01*
X615346D02*
X631968Y560126D01*
X625268D02*
X641890Y543504D01*
X622530D02*
X639152Y560126D01*
X562764Y907606D02*
X643791Y988633D01*
X598171Y914276D02*
X672527Y988633D01*
X559380Y911406D02*
X636606Y988633D01*
X563692Y894166D02*
X658159Y988633D01*
X564720Y902378D02*
X650975Y988633D01*
X547905Y914300D02*
X622238Y988633D01*
X554665Y913876D02*
X629422Y988633D01*
X527235D02*
X601362Y914505D01*
X513202Y893965D02*
X607870Y988633D01*
X514335Y902283D02*
X600685Y988633D01*
X604980Y913901D02*
X679712Y988633D01*
X601423Y838503D02*
X751554Y988633D01*
X607156Y837050D02*
X758738Y988633D01*
X560960Y833960D02*
X715633Y988633D01*
X551328Y885514D02*
X598508Y838334D01*
X551129Y838498D02*
X598328Y885696D01*
X556970Y887056D02*
X606814Y837211D01*
X556830Y837014D02*
X606441Y886625D01*
X504349Y913849D02*
X579133Y988633D01*
X509041Y911357D02*
X586317Y988633D01*
X497639Y914323D02*
X571949Y988633D01*
X505682D02*
X587819Y906497D01*
X498498Y988633D02*
X586307Y900824D01*
X476945Y988633D02*
X551078Y914500D01*
X469761Y988633D02*
X544943Y913451D01*
X462577Y988633D02*
X540549Y910661D01*
X455393Y988633D02*
X537456Y906570D01*
X512406Y907538D02*
X593501Y988633D01*
X520051D02*
X595264Y913419D01*
X512867Y988633D02*
X590891Y910608D01*
X506643Y887093D02*
X556621Y837116D01*
X500834Y838492D02*
X548022Y885680D01*
X506504Y836977D02*
X556235Y886708D01*
X501031Y885521D02*
X548203Y838349D01*
X564909Y823541D02*
X730001Y988633D01*
X559496Y812687D02*
X724667Y647516D01*
X563790Y829606D02*
X722817Y988633D01*
X562843Y816524D02*
X731852Y647516D01*
X514363Y821899D02*
X692484Y643778D01*
X513012Y830435D02*
X695930Y647516D01*
X510613Y833903D02*
X665343Y988633D01*
X509157Y812737D02*
X752736Y569158D01*
X512485Y816594D02*
X692484Y636594D01*
X554825Y810175D02*
X717483Y647516D01*
X605141Y810148D02*
X779484Y635805D01*
X569158Y569158D02*
X632484Y632484D01*
X583526Y569158D02*
X646853Y632484D01*
X576342Y569158D02*
X639668Y632484D01*
X479806Y569158D02*
X773457D01*
X548157Y809658D02*
X710299Y647516D01*
X504508Y810202D02*
X745552Y569158D01*
X497887Y809639D02*
X738368Y569158D01*
X514505Y823426D02*
X586899Y895820D01*
X540421Y569158D02*
X609484Y638221D01*
X533237Y569158D02*
X609484Y645405D01*
X514494Y900795D02*
X586948Y828341D01*
X513422Y829528D02*
X586524Y902629D01*
X513483Y894622D02*
X586479Y821625D01*
X561974Y569158D02*
X625300Y632484D01*
X569158Y569158D02*
X632484Y632484D01*
X600978Y543504D02*
X617600Y560126D01*
X608162Y543504D02*
X624784Y560126D01*
X603715D02*
X620337Y543504D01*
X554790Y569158D02*
X618116Y632484D01*
X547605Y569158D02*
X610932Y632484D01*
X718663Y560126D02*
X731654Y547134D01*
X726141Y546535D02*
X739731Y560126D01*
X711479D02*
X725444Y546161D01*
X715925Y543504D02*
X732547Y560126D01*
X708741Y543504D02*
X725363Y560126D01*
X694372Y543504D02*
X710994Y560126D01*
X697110D02*
X713732Y543504D01*
X689926Y560126D02*
X706548Y543504D01*
X704294Y560126D02*
X720916Y543504D01*
X701557D02*
X718179Y560126D01*
X733336Y546547D02*
X746916Y560126D01*
X737049Y543076D02*
X754100Y560126D01*
X737772Y536614D02*
X761284Y560126D01*
X665290Y534472D02*
X767240Y432522D01*
X636554Y534472D02*
X738248Y432778D01*
X658106Y534472D02*
X760488Y432090D01*
X629369Y534472D02*
X732844Y430997D01*
X596531Y560126D02*
X613153Y543504D01*
X646821Y560126D02*
X663443Y543504D01*
X593793D02*
X610415Y560126D01*
X654005D02*
X670627Y543504D01*
X651267D02*
X667889Y560126D01*
X582163D02*
X598785Y543504D01*
X579425D02*
X596047Y560126D01*
X589347D02*
X605969Y543504D01*
X586609D02*
X603231Y560126D01*
X675557D02*
X692179Y543504D01*
X680004D02*
X696626Y560126D01*
X672820Y543504D02*
X689442Y560126D01*
X687188Y543504D02*
X703810Y560126D01*
X682742D02*
X699364Y543504D01*
X661189Y560126D02*
X677811Y543504D01*
X658451D02*
X675073Y560126D01*
X668373D02*
X684995Y543504D01*
X665636D02*
X682258Y560126D01*
X672475Y534472D02*
X779798Y427149D01*
X776322Y423440D02*
X778021Y421741D01*
X650922Y534472D02*
X756100Y429294D01*
X612654Y404312D02*
X768468Y560126D01*
X643738Y534472D02*
X753306Y424903D01*
X627023Y404312D02*
X779104Y556393D01*
X619838Y404312D02*
X774421Y558894D01*
X775886Y416675D02*
X778132Y418921D01*
X775890Y416688D02*
X777696Y414882D01*
X773094Y412300D02*
X774104Y411290D01*
X768704Y409506D02*
X770512Y407698D01*
X751178Y419847D02*
X752881Y418145D01*
X751216Y420742D02*
X752665Y422191D01*
X741726Y404312D02*
X753533Y416119D01*
X749397Y414444D02*
X750628Y413214D01*
X615001Y534472D02*
X727267Y422206D01*
X622185Y534472D02*
X729198Y427459D01*
X593448Y534472D02*
X723608Y404312D01*
X607817Y534472D02*
X737977Y404312D01*
X600633Y534472D02*
X730792Y404312D01*
X581380Y416143D02*
X699709Y534472D01*
X581508Y423456D02*
X692525Y534472D01*
X586264D02*
X716424Y404312D01*
X579080Y534472D02*
X709240Y404312D01*
X745859Y410798D02*
X747035Y409622D01*
X740607Y408866D02*
X743443Y406030D01*
X720417Y404312D02*
X729634Y413528D01*
X734786Y404312D02*
X739258Y408784D01*
X727601Y404312D02*
X733507Y410218D01*
X602416Y404312D02*
X741726D01*
X605470D02*
X732124Y530966D01*
X706049Y404312D02*
X729202Y427465D01*
X713233Y404312D02*
X727409Y418487D01*
X543504Y543504D02*
X560126Y560126D01*
X543504Y543504D02*
X560126Y560126D01*
X539057D02*
X555680Y543504D01*
X550688D02*
X567310Y560126D01*
X546242D02*
X562864Y543504D01*
X529136D02*
X545758Y560126D01*
X524689D02*
X541311Y543504D01*
X536320D02*
X552942Y560126D01*
X531873D02*
X548495Y543504D01*
X565057D02*
X581679Y560126D01*
X567794D02*
X584416Y543504D01*
X560610Y560126D02*
X577232Y543504D01*
X574978Y560126D02*
X591600Y543504D01*
X572241D02*
X588863Y560126D01*
X481677D02*
X773457D01*
X472694Y543504D02*
X722708D01*
X557872D02*
X574494Y560126D01*
X553426D02*
X570048Y543504D01*
X495952Y560126D02*
X512574Y543504D01*
X500399D02*
X517021Y560126D01*
X493214Y543504D02*
X509837Y560126D01*
X507583Y543504D02*
X524205Y560126D01*
X503136D02*
X519758Y543504D01*
X486030D02*
X502652Y560126D01*
X478846Y543504D02*
X495468Y560126D01*
X488768D02*
X505390Y543504D01*
X471502Y543344D02*
X488284Y560126D01*
X510321D02*
X526943Y543504D01*
X514767D02*
X531389Y560126D01*
X481630Y560080D02*
X498206Y543504D01*
X521951D02*
X538573Y560126D01*
X517505D02*
X534127Y543504D01*
X474446Y552895D02*
X483837Y543504D01*
X470854Y549303D02*
X476653Y543504D01*
X478038Y556488D02*
X491021Y543504D01*
X467262Y545711D02*
X470212Y542761D01*
X514422Y534472D02*
X644582Y404312D01*
X521606Y534472D02*
X651766Y404312D01*
X507238Y534472D02*
X637398Y404312D01*
X535975Y534472D02*
X666135Y404312D01*
X528790Y534472D02*
X658950Y404312D01*
X485685Y534472D02*
X615845Y404312D01*
X478501Y534472D02*
X608661Y404312D01*
X500053Y534472D02*
X630214Y404312D01*
X492869Y534472D02*
X623029Y404312D01*
X574730Y431046D02*
X678156Y534472D01*
X578920Y428051D02*
X685340Y534472D01*
X568411Y431911D02*
X670972Y534472D01*
X571896D02*
X702056Y404312D01*
X564711Y534472D02*
X694872Y404312D01*
X474565Y534472D02*
X722708D01*
X543159D02*
X673319Y404312D01*
X557527Y534472D02*
X687687Y404312D01*
X550343Y534472D02*
X680503Y404312D01*
X463670Y542119D02*
X466554Y539235D01*
X468065Y417775D02*
X584762Y534472D01*
X467261Y424156D02*
X577577Y534472D01*
X460078Y538527D02*
X462962Y535643D01*
X456486Y534935D02*
X459370Y532051D01*
X463514Y427593D02*
X570393Y534472D01*
X456180Y427443D02*
X563209Y534472D01*
X472941Y532848D02*
X574752Y431036D01*
X469349Y529257D02*
X566976Y431629D01*
X465757Y525664D02*
X562244Y429178D01*
X462165Y522072D02*
X559125Y425112D01*
X452894Y531343D02*
X455778Y528459D01*
X449302Y527751D02*
X452186Y524867D01*
X458573Y518480D02*
X558023Y419030D01*
X812094Y330752D02*
X988633Y507291D01*
X819144Y330618D02*
X988633Y500106D01*
X814917Y571635D02*
X988633Y397919D01*
X800008Y325850D02*
X988633Y514475D01*
X796365Y329391D02*
X988633Y521659D01*
X785507Y557940D02*
X988633Y354814D01*
X779970Y556293D02*
X988633Y347630D01*
X788485Y562146D02*
X988633Y361998D01*
X773107Y327686D02*
X988633Y543212D01*
X790966Y331177D02*
X988633Y528843D01*
X850600Y326153D02*
X988633Y464185D01*
X852674Y321042D02*
X988633Y457001D01*
X846847Y329583D02*
X988633Y471370D01*
X850589Y413831D02*
X988633Y275788D01*
X852670Y418934D02*
X988633Y282972D01*
X823648Y327938D02*
X988633Y492922D01*
X841285Y331206D02*
X988633Y478554D01*
X841259Y408793D02*
X988633Y261419D01*
X846830Y410406D02*
X988633Y268603D01*
X826557Y323662D02*
X988633Y485738D01*
X826946Y322527D02*
X828867Y320606D01*
X801935Y320593D02*
X803848Y322505D01*
X775898Y323292D02*
X988633Y536027D01*
X773306Y397719D02*
X839848Y331178D01*
X775901Y323282D02*
X778128Y321055D01*
X802007Y318729D02*
X803555Y317181D01*
X827242Y317163D02*
X828794Y318715D01*
X800389Y313163D02*
X801683Y311869D01*
X796962Y309406D02*
X798091Y308277D01*
X791855Y307328D02*
X794499Y304685D01*
X776314Y316525D02*
X778023Y318233D01*
X776142Y315858D02*
X790906Y301093D01*
X773589Y311226D02*
X787314Y297501D01*
X861915Y215336D02*
X988633Y342054D01*
X869099Y215336D02*
X988633Y334870D01*
X854731Y215336D02*
X988633Y349238D01*
Y35805D02*
Y964195D01*
X876283Y215336D02*
X988633Y327685D01*
X784082Y408496D02*
X988633Y203945D01*
X790942Y408821D02*
X988633Y211129D01*
X776898Y401311D02*
X988633Y189577D01*
X780490Y404904D02*
X988633Y196761D01*
X852778Y318247D02*
X988633Y182393D01*
X890652Y215336D02*
X988633Y313317D01*
X883468Y215336D02*
X988633Y320501D01*
X847459Y309198D02*
X988633Y168024D01*
X850997Y312844D02*
X988633Y175208D01*
X826822Y315467D02*
X988633Y153656D01*
X842206Y307266D02*
X988633Y160840D01*
X819873Y308047D02*
X988633Y139287D01*
X824145Y310959D02*
X988633Y146472D01*
X823634Y412049D02*
X988633Y247051D01*
X819124Y409375D02*
X988633Y239866D01*
X826549Y416319D02*
X988633Y254235D01*
X799997Y414134D02*
X988633Y225498D01*
X812057Y409258D02*
X988633Y232682D01*
X775704Y215336D02*
X988633Y428264D01*
X796349Y410598D02*
X988633Y218314D01*
X790073Y215336D02*
X988633Y413896D01*
X782889Y215336D02*
X988633Y421080D01*
X825994Y215336D02*
X988633Y377975D01*
X833178Y215336D02*
X988633Y370791D01*
X818810Y215336D02*
X988633Y385159D01*
X847547Y215336D02*
X988633Y356422D01*
X840362Y215336D02*
X988633Y363606D01*
X797257Y215336D02*
X988633Y406712D01*
X813382Y307355D02*
X901551Y219185D01*
X811626Y215336D02*
X988633Y392343D01*
X804441Y215336D02*
X988633Y399528D01*
X733516Y638667D02*
X988633Y383551D01*
X768952Y560126D02*
X988633Y340445D01*
X733516Y645852D02*
X988633Y390735D01*
X754584Y560126D02*
X988633Y326077D01*
X761768Y560126D02*
X988633Y333261D01*
X677312Y404312D02*
X988633Y715633D01*
X684496Y404312D02*
X988633Y708449D01*
X641391Y404312D02*
X810234Y573155D01*
X725331Y632484D02*
X988633Y369182D01*
X732515Y632484D02*
X988633Y376366D01*
X768723Y330486D02*
X988633Y550396D01*
X761979Y330927D02*
X839872Y408820D01*
X762530Y386943D02*
X818727Y330746D01*
X769714Y394127D02*
X834444Y329397D01*
X766122Y390535D02*
X830798Y325859D01*
X740630Y331130D02*
X818764Y409264D01*
X758938Y383351D02*
X811667Y330621D01*
X749408Y325539D02*
X834461Y410592D01*
X745875Y329191D02*
X830809Y414124D01*
X761945Y409081D02*
X766920Y404106D01*
X757014Y406827D02*
X763327Y400514D01*
X753422Y403235D02*
X759735Y396922D01*
X746792Y396606D02*
X759920Y409733D01*
X749830Y399643D02*
X756143Y393330D01*
X710226Y351016D02*
X768724Y409514D01*
X703042Y351016D02*
X761278Y409252D01*
X718896Y343309D02*
X785320Y409733D01*
X713829Y351016D02*
X778933Y416119D01*
X755346Y379759D02*
X807160Y327945D01*
X748161Y372575D02*
X789529Y331207D01*
X744569Y368983D02*
X783963Y329589D01*
X751753Y376167D02*
X804248Y323673D01*
X740977Y365391D02*
X780206Y326161D01*
X737385Y361798D02*
X768682Y330501D01*
X733793Y358206D02*
X761258Y330742D01*
X730201Y354614D02*
X756626Y328189D01*
X726609Y351022D02*
X753598Y324032D01*
X740215Y560126D02*
X988633Y311709D01*
X754152Y215336D02*
X988633Y449817D01*
X747400Y560126D02*
X988633Y318893D01*
X768520Y215336D02*
X988633Y435448D01*
X761336Y215336D02*
X988633Y442633D01*
X725847Y560126D02*
X988633Y297340D01*
X733031Y560126D02*
X988633Y304524D01*
X737896Y540892D02*
X988633Y290156D01*
X665005Y277058D02*
X804255Y416308D01*
X732599Y215336D02*
X830416Y313153D01*
X771938Y269352D02*
X810720Y308133D01*
X766872Y277058D02*
X804333Y314519D01*
X746968Y215336D02*
X838958Y307326D01*
X739783Y215336D02*
X833847Y309400D01*
X679374Y277058D02*
X811687Y409372D01*
X672190Y277058D02*
X807173Y412042D01*
X725415Y215336D02*
X817437Y307358D01*
X718231Y215336D02*
X810938Y308043D01*
X749773Y313490D02*
X776538Y286724D01*
X751180Y320127D02*
X752873Y321820D01*
X765584Y277058D02*
X803982Y315456D01*
X744032Y277058D02*
X779808Y312835D01*
X657821Y277058D02*
X789555Y408792D01*
X692542Y341984D02*
X757467Y277058D01*
X722479D02*
X756114Y310693D01*
X715295Y277058D02*
X753314Y315077D01*
X769433Y308198D02*
X783722Y293909D01*
X763178Y307268D02*
X780130Y290317D01*
X746456Y309622D02*
X772946Y283132D01*
X758400Y277058D02*
X788607Y307265D01*
X751216Y277058D02*
X783350Y309192D01*
X741490Y307404D02*
X769354Y279540D01*
X729663Y277058D02*
X760508Y307902D01*
X736848Y277058D02*
X767275Y307485D01*
X732453Y309257D02*
X764652Y277058D01*
X906988Y217303D02*
X988633Y298948D01*
X909796Y212928D02*
X988633Y291764D01*
X901686Y219186D02*
X988633Y306133D01*
X892879Y206304D02*
X988633Y110551D01*
X910065Y210671D02*
X988633Y132103D01*
X878511Y206304D02*
X988633Y96182D01*
X871327Y206304D02*
X988633Y88998D01*
X885695Y206304D02*
X988633Y103366D01*
X856958Y206304D02*
X988633Y74630D01*
X864143Y206304D02*
X988633Y81814D01*
X903677Y202691D02*
X988633Y117735D01*
X969073Y49494D02*
X988633Y69054D01*
X908109Y205443D02*
X988633Y124919D01*
X980438Y46490D02*
X988633Y54685D01*
X975491Y48728D02*
X988633Y61870D01*
X842590Y206304D02*
X988633Y60261D01*
X849774Y206304D02*
X988633Y67445D01*
X828222Y206304D02*
X988633Y45893D01*
X835406Y206304D02*
X988633Y53077D01*
X808069Y305483D02*
X896323Y217229D01*
X797293Y294706D02*
X876663Y215336D01*
X793701Y291114D02*
X869479Y215336D01*
X804477Y301891D02*
X891032Y215336D01*
X800885Y298298D02*
X883848Y215336D01*
X782925Y280338D02*
X847926Y215336D01*
X779333Y276746D02*
X840742Y215336D01*
X790109Y287522D02*
X862295Y215336D01*
X786517Y283930D02*
X855111Y215336D01*
X813853Y206304D02*
X970652Y49505D01*
X806669Y206304D02*
X964306Y48667D01*
X799485Y206304D02*
X959401Y46387D01*
X775740Y273154D02*
X833558Y215336D01*
X772148Y269562D02*
X826374Y215336D01*
X823183Y11367D02*
X988633Y176817D01*
X830367Y11367D02*
X988633Y169633D01*
X801630Y11367D02*
X988633Y198370D01*
X844736Y11367D02*
X988633Y155264D01*
X837551Y11367D02*
X988633Y162449D01*
X780078Y11367D02*
X988633Y219922D01*
X772894Y11367D02*
X988633Y227106D01*
X794446Y11367D02*
X988633Y205554D01*
X787262Y11367D02*
X988633Y212738D01*
X909394Y11367D02*
X988633Y90606D01*
X916578Y11367D02*
X988633Y83422D01*
X902209Y11367D02*
X988633Y97791D01*
X923762Y11367D02*
X988633Y76238D01*
X866288Y11367D02*
X988633Y133712D01*
X859104Y11367D02*
X988633Y140896D01*
X895025Y11367D02*
X988633Y104975D01*
X873473Y11367D02*
X988633Y126527D01*
X808815Y11367D02*
X988633Y191185D01*
X815999Y11367D02*
X988633Y184001D01*
X821037Y206304D02*
X981786Y45555D01*
X880657Y11367D02*
X988633Y119343D01*
X851920Y11367D02*
X988633Y148080D01*
X792301Y206304D02*
X955520Y43085D01*
X785117Y206304D02*
X952594Y38827D01*
X770749Y206304D02*
X950859Y26194D01*
X777933Y206304D02*
X950791Y33446D01*
X985555Y41786D02*
X988633Y38709D01*
X987317Y39001D02*
X988633Y40317D01*
X984354Y43222D02*
X988633Y47501D01*
X959683Y11367D02*
X960999Y12683D01*
X952499Y11367D02*
X956778Y15646D01*
X887841Y11367D02*
X988633Y112159D01*
X930946Y11367D02*
X950506Y30927D01*
X945315Y11367D02*
X953510Y19562D01*
X938130Y11367D02*
X951272Y24509D01*
X636394Y11367D02*
X831330Y206304D01*
X641433D02*
X836370Y11367D01*
X766499Y268026D02*
X819190Y215336D01*
X648617Y206304D02*
X843554Y11367D01*
X643578D02*
X838515Y206304D01*
X563824Y215336D02*
X894658D01*
X627065Y206304D02*
X822001Y11367D01*
X634249Y206304D02*
X829186Y11367D01*
X629209D02*
X824146Y206304D01*
X665130Y11367D02*
X860067Y206304D01*
X670170D02*
X865107Y11367D01*
X662986Y206304D02*
X857923Y11367D01*
X677354Y206304D02*
X872291Y11367D01*
X672315D02*
X867252Y206304D01*
X563824D02*
X894658D01*
X650762Y11367D02*
X845699Y206304D01*
X657946Y11367D02*
X852883Y206304D01*
X655801D02*
X850738Y11367D01*
X723395Y268026D02*
X776085Y215336D01*
X730580Y268026D02*
X783270Y215336D01*
X716211Y268026D02*
X768901Y215336D01*
X744947Y268026D02*
X797637Y215336D01*
X737763Y268026D02*
X790453Y215336D01*
X703862D02*
X756552Y268026D01*
X701843D02*
X754533Y215336D01*
X711047D02*
X763737Y268026D01*
X709027D02*
X761717Y215336D01*
X759315Y268026D02*
X812005Y215336D01*
X614841Y11367D02*
X809778Y206304D01*
X752131Y268026D02*
X804821Y215336D01*
X622025Y11367D02*
X816962Y206304D01*
X619880D02*
X814817Y11367D01*
X605512Y206304D02*
X800449Y11367D01*
X586104D02*
X781041Y206304D01*
X612696D02*
X807633Y11367D01*
X607657D02*
X802594Y206304D01*
X744157Y11367D02*
X988633Y255843D01*
X751341Y11367D02*
X988633Y248659D01*
X736973Y11367D02*
X988633Y263027D01*
X765709Y11367D02*
X988633Y234291D01*
X758525Y11367D02*
X988633Y241475D01*
X715420Y11367D02*
X988633Y284580D01*
X706091Y206304D02*
X901028Y11367D01*
X729788D02*
X988633Y270212D01*
X722604Y11367D02*
X988633Y277396D01*
X742012Y206304D02*
X936949Y11367D01*
X749196Y206304D02*
X944133Y11367D01*
X734828Y206304D02*
X929765Y11367D01*
X763565Y206304D02*
X958502Y11367D01*
X756380Y206304D02*
X951317Y11367D01*
X713275Y206304D02*
X908212Y11367D01*
X708236D02*
X899592Y202724D01*
X727644Y206304D02*
X922580Y11367D01*
X720459Y206304D02*
X915396Y11367D01*
X583959Y206304D02*
X778896Y11367D01*
X591143Y206304D02*
X786080Y11367D01*
X578920D02*
X773857Y206304D01*
X598328D02*
X793265Y11367D01*
X593288D02*
X788225Y206304D01*
X569591D02*
X764528Y11367D01*
X564552D02*
X759488Y206304D01*
X576775D02*
X771712Y11367D01*
X571736D02*
X766673Y206304D01*
X691722D02*
X886659Y11367D01*
X693867D02*
X888804Y206304D01*
X686683Y11367D02*
X881620Y206304D01*
X701051Y11367D02*
X895217Y205532D01*
X698907Y206304D02*
X893844Y11367D01*
X600472D02*
X795409Y206304D01*
X563226Y205485D02*
X757344Y11367D01*
X684538Y206304D02*
X879475Y11367D01*
X679499D02*
X874436Y206304D01*
X746190Y396099D02*
X752551Y389738D01*
X682351Y395280D02*
X720222Y357409D01*
X675167Y395280D02*
X716630Y353816D01*
X581184Y394394D02*
X721262Y534472D01*
X581822Y387848D02*
X725662Y531689D01*
X578297Y398692D02*
X714077Y534472D01*
X616832Y351016D02*
X661096Y395280D01*
X610509D02*
X654773Y351016D01*
X732640Y395280D02*
X745367Y382553D01*
X739825Y395280D02*
X748959Y386146D01*
X725456Y395280D02*
X741775Y378961D01*
X718272Y395280D02*
X738183Y375369D01*
X711088Y395280D02*
X734591Y371777D01*
X604286Y395280D02*
X743596D01*
X703903D02*
X730999Y368185D01*
X696719Y395280D02*
X727406Y364593D01*
X689535Y395280D02*
X723814Y361001D01*
X581629Y416976D02*
X597419Y401186D01*
X581995Y359284D02*
X617991Y395280D01*
X582316Y373310D02*
X604286Y395280D01*
X581036Y424753D02*
X601559Y404230D01*
X579177Y412244D02*
X593827Y397594D01*
X580798Y365271D02*
X610806Y395280D01*
X580629Y384395D02*
X599220Y402986D01*
X602463Y351016D02*
X646727Y395280D01*
X600214Y391207D02*
X640406Y351016D01*
X596622Y387615D02*
X633221Y351016D01*
X609647D02*
X653912Y395280D01*
X603806Y394799D02*
X647590Y351016D01*
X581851Y388018D02*
X583051Y386818D01*
X659937Y351016D02*
X704201Y395280D01*
X660798D02*
X705062Y351016D01*
X653614Y395280D02*
X697878Y351016D01*
X667982Y395280D02*
X712247Y351016D01*
X667121D02*
X711385Y395280D01*
X645568Y351016D02*
X689833Y395280D01*
X639245D02*
X683510Y351016D01*
X652753D02*
X697017Y395280D01*
X646430D02*
X690694Y351016D01*
X695858D02*
X740122Y395280D01*
X723017Y347430D02*
X739231Y331216D01*
X719425Y343838D02*
X733490Y329772D01*
X674305Y351016D02*
X718570Y395280D01*
X577979Y351016D02*
X713829D01*
X688674D02*
X732938Y395280D01*
X681489Y351016D02*
X725754Y395280D01*
X624877D02*
X669141Y351016D01*
X631200D02*
X675464Y395280D01*
X624016Y351016D02*
X668280Y395280D01*
X638384Y351016D02*
X682648Y395280D01*
X632061D02*
X676326Y351016D01*
X588095D02*
X632359Y395280D01*
X580910Y351016D02*
X625175Y395280D01*
X617693D02*
X661957Y351016D01*
X595279D02*
X639543Y395280D01*
X589438Y380431D02*
X618853Y351016D01*
X585845Y376839D02*
X611669Y351016D01*
X582253Y373247D02*
X604484Y351016D01*
X593030Y384023D02*
X626037Y351016D01*
X582003Y330556D02*
X593431Y341984D01*
X580238Y353710D02*
X582932Y351016D01*
X581986Y359146D02*
X590116Y351016D01*
X580356Y336093D02*
X586247Y341984D01*
X495964Y381016D02*
X649419Y534472D01*
X573815Y401394D02*
X706893Y534472D01*
X488779Y381016D02*
X642235Y534472D01*
X510332Y381016D02*
X663788Y534472D01*
X503148Y381016D02*
X656604Y534472D01*
X460042Y381016D02*
X613498Y534472D01*
X467227Y381016D02*
X620683Y534472D01*
X452858Y381016D02*
X606314Y534472D01*
X481595Y381016D02*
X635051Y534472D01*
X474411Y381016D02*
X627867Y534472D01*
X575111Y409126D02*
X590235Y394002D01*
X569029Y408023D02*
X586643Y390410D01*
X570871Y371984D02*
X579120D01*
X577627Y369285D02*
X580563Y372221D01*
X566827Y401590D02*
X573857Y408620D01*
X454981Y514888D02*
X568017Y401852D01*
X539069Y381016D02*
X566544Y408492D01*
X517516Y381016D02*
X558089Y421589D01*
X524700Y381016D02*
X558954Y415270D01*
X467789Y423053D02*
X509826Y381016D01*
X531885D02*
X561949Y411080D01*
X546253Y381016D02*
X558410Y393174D01*
X451389Y511296D02*
X562952Y399732D01*
X457158Y412132D02*
X488274Y381016D01*
X467455Y416203D02*
X502642Y381016D01*
X463884Y412590D02*
X495458Y381016D01*
X560621D02*
X561308Y381703D01*
X564812Y370838D02*
X565958Y371984D01*
X553437Y381016D02*
X558606Y386185D01*
X561963Y371984D02*
X563710Y370238D01*
X554779Y371984D02*
X560041Y366723D01*
X547595Y371984D02*
X558078Y361501D01*
X451595Y351016D02*
X472563Y371984D01*
X458779Y351016D02*
X479747Y371984D01*
X454200D02*
X475169Y351016D01*
X540411Y371984D02*
X561379Y351016D01*
X544989D02*
X559162Y365188D01*
X552174Y351016D02*
X558323Y357165D01*
X576332Y371984D02*
X597300Y351016D01*
X530621D02*
X551589Y371984D01*
X526042D02*
X547011Y351016D01*
X537805D02*
X558774Y371984D01*
X533227D02*
X554195Y351016D01*
X550058Y277058D02*
X614984Y341984D01*
X557242Y277058D02*
X622168Y341984D01*
X559358Y351016D02*
X560715Y352373D01*
X571611Y277058D02*
X636536Y341984D01*
X564426Y277058D02*
X629352Y341984D01*
X534490D02*
X599416Y277058D01*
X527306Y341984D02*
X592232Y277058D01*
X542874D02*
X607799Y341984D01*
X535690Y277058D02*
X600615Y341984D01*
X480331Y351016D02*
X501300Y371984D01*
X482937D02*
X503906Y351016D01*
X475753Y371984D02*
X496721Y351016D01*
X490121Y371984D02*
X511090Y351016D01*
X487516D02*
X508484Y371984D01*
X465963Y351016D02*
X486931Y371984D01*
X461385D02*
X482353Y351016D01*
X473147D02*
X494116Y371984D01*
X468569D02*
X489537Y351016D01*
X511674Y371984D02*
X532642Y351016D01*
X516253D02*
X537221Y371984D01*
X509068Y351016D02*
X530037Y371984D01*
X523437Y351016D02*
X544405Y371984D01*
X518858D02*
X539827Y351016D01*
X497305Y371984D02*
X518274Y351016D01*
X494700D02*
X515668Y371984D01*
X504490D02*
X525458Y351016D01*
X501884D02*
X522853Y371984D01*
X699726Y341984D02*
X729257Y312453D01*
X714094Y341984D02*
X729622Y326456D01*
X706910Y341984D02*
X727404Y321490D01*
X663805Y341984D02*
X728731Y277058D01*
X656622Y341984D02*
X721547Y277058D01*
X635069Y341984D02*
X699995Y277058D01*
X636269D02*
X701194Y341984D01*
X629084Y277058D02*
X694010Y341984D01*
X650637Y277058D02*
X715563Y341984D01*
X649438D02*
X714363Y277058D01*
X751216Y319231D02*
X752668Y317778D01*
X693742Y277058D02*
X729209Y312524D01*
X708111Y277058D02*
X738272Y307220D01*
X700927Y277058D02*
X732861Y308992D01*
X678173Y341984D02*
X743099Y277058D01*
X670989Y341984D02*
X735915Y277058D01*
X685358Y341984D02*
X750283Y277058D01*
X686558D02*
X727269Y317769D01*
X593163Y277058D02*
X658089Y341984D01*
X599148D02*
X664074Y277058D01*
X591964Y341984D02*
X656890Y277058D01*
X606332Y341984D02*
X671258Y277058D01*
X600348D02*
X665273Y341984D01*
X578795Y277058D02*
X643721Y341984D01*
X577595D02*
X642521Y277058D01*
X585979D02*
X650905Y341984D01*
X584780D02*
X649705Y277058D01*
X614716D02*
X679642Y341984D01*
X620701D02*
X685626Y277058D01*
X613517Y341984D02*
X678442Y277058D01*
X627885Y341984D02*
X692811Y277058D01*
X621900D02*
X686826Y341984D01*
X580693Y324518D02*
X628153Y277058D01*
X577452Y320574D02*
X620969Y277058D01*
X607532D02*
X672458Y341984D01*
X582010Y330385D02*
X635337Y277058D01*
X653573Y215336D02*
X706263Y268026D01*
X658737D02*
X711427Y215336D01*
X651553Y268026D02*
X704243Y215336D01*
X665922Y268026D02*
X718612Y215336D01*
X660757D02*
X713447Y268026D01*
X643453Y277058D02*
X708379Y341984D01*
X642253D02*
X707179Y277058D01*
X646389Y215336D02*
X699079Y268026D01*
X644369D02*
X697059Y215336D01*
X687474Y268026D02*
X740164Y215336D01*
X689494D02*
X742184Y268026D01*
X682310Y215336D02*
X735000Y268026D01*
X696678Y215336D02*
X749368Y268026D01*
X694658D02*
X747348Y215336D01*
X673106Y268026D02*
X725796Y215336D01*
X667941D02*
X720631Y268026D01*
X680290D02*
X732980Y215336D01*
X675126D02*
X727816Y268026D01*
X596099Y215336D02*
X648789Y268026D01*
X601264D02*
X653954Y215336D01*
X594080Y268026D02*
X646769Y215336D01*
X608448Y268026D02*
X661138Y215336D01*
X603284D02*
X655974Y268026D01*
X581731Y215336D02*
X634421Y268026D01*
X579711D02*
X632401Y215336D01*
X588915D02*
X641605Y268026D01*
X586895D02*
X639585Y215336D01*
X630000Y268026D02*
X682691Y215336D01*
X632020D02*
X684710Y268026D01*
X624836Y215336D02*
X677526Y268026D01*
X639204Y215336D02*
X691895Y268026D01*
X637185D02*
X689875Y215336D01*
X615632Y268026D02*
X668322Y215336D01*
X610468D02*
X663158Y268026D01*
X622816D02*
X675506Y215336D01*
X617652D02*
X670342Y268026D01*
X563227Y341984D02*
X564518Y340693D01*
X576909Y339831D02*
X579063Y341984D01*
X556043D02*
X560574Y337452D01*
X499769Y277058D02*
X564694Y341984D01*
X498569D02*
X563495Y277058D01*
X512938Y341984D02*
X577863Y277058D01*
X505753Y341984D02*
X570679Y277058D01*
X570878Y341984D02*
X715700D01*
X572579Y318264D02*
X613784Y277058D01*
X564159Y319499D02*
X606600Y277058D01*
X562111Y217269D02*
X612868Y268026D01*
X556844Y219186D02*
X605684Y268026D01*
X520122Y341984D02*
X585047Y277058D01*
X514137D02*
X560169Y323090D01*
X528505Y277058D02*
X569444Y317997D01*
X521321Y277058D02*
X563907Y319643D01*
X469832Y341984D02*
X534758Y277058D01*
X471032D02*
X535957Y341984D01*
X463848Y277058D02*
X528773Y341984D01*
X478216Y277058D02*
X543142Y341984D01*
X477016D02*
X541942Y277058D01*
X455464Y341984D02*
X520390Y277058D01*
X449479D02*
X514405Y341984D01*
X462648D02*
X527574Y277058D01*
X456663D02*
X521589Y341984D01*
X548859D02*
X558264Y332579D01*
X541674Y341984D02*
X559499Y324159D01*
X506953Y277058D02*
X558116Y328221D01*
X507869Y268026D02*
X556709Y219186D01*
X500685Y268026D02*
X551447Y217264D01*
X485400Y277058D02*
X550326Y341984D01*
X484201D02*
X549126Y277058D01*
X492584D02*
X557510Y341984D01*
X491385D02*
X556311Y277058D01*
X479132Y268026D02*
X735791Y11367D01*
X486316Y268026D02*
X742975Y11367D01*
X485525D02*
X680462Y206304D01*
X499894Y11367D02*
X694830Y206304D01*
X492709Y11367D02*
X687646Y206304D01*
X457579Y268026D02*
X714238Y11367D01*
X450395Y268026D02*
X707054Y11367D01*
X471948Y268026D02*
X728607Y11367D01*
X464764Y268026D02*
X721423Y11367D01*
X542999D02*
X737936Y206304D01*
X550183Y11367D02*
X745120Y206304D01*
X535815Y11367D02*
X730751Y206304D01*
X557367Y11367D02*
X752304Y206304D01*
X558820Y202706D02*
X750159Y11367D01*
X514262D02*
X709199Y206304D01*
X507078Y11367D02*
X702015Y206304D01*
X528630Y11367D02*
X723567Y206304D01*
X521446Y11367D02*
X716383Y206304D01*
X543790Y268026D02*
X596480Y215336D01*
X550974Y268026D02*
X603664Y215336D01*
X536606Y268026D02*
X589296Y215336D01*
X565343Y268026D02*
X618033Y215336D01*
X558158Y268026D02*
X610848Y215336D01*
X522237Y268026D02*
X574927Y215336D01*
X515053Y268026D02*
X567743Y215336D01*
X529422Y268026D02*
X582112Y215336D01*
X493501Y268026D02*
X548668Y212859D01*
X572527Y268026D02*
X625217Y215336D01*
X574547D02*
X627237Y268026D01*
X567362Y215336D02*
X620052Y268026D01*
X478341Y11367D02*
X673278Y206304D01*
X456788Y11367D02*
X651725Y206304D01*
X449604Y11367D02*
X644541Y206304D01*
X471157Y11367D02*
X666094Y206304D01*
X463973Y11367D02*
X658909Y206304D01*
X419472Y988633D02*
X494622Y913483D01*
X426656Y988633D02*
X500794Y914494D01*
X412287Y988633D02*
X490206Y910714D01*
X405103Y988633D02*
X487093Y906643D01*
X397919Y988633D02*
X485521Y901031D01*
X347630Y988633D02*
X497899Y838363D01*
X349944Y838471D02*
X500106Y988633D01*
X340445D02*
X492594Y836484D01*
X338975Y834686D02*
X492922Y988633D01*
X333261D02*
X488737Y833157D01*
X390735Y988633D02*
X542925Y836443D01*
X441024Y988633D02*
X593256Y836402D01*
X448209Y988633D02*
X535914Y900928D01*
X433840Y988633D02*
X589438Y833035D01*
X383551Y988633D02*
X539088Y833096D01*
X355523Y836865D02*
X507291Y988633D01*
X354814D02*
X506435Y837012D01*
X362317Y829291D02*
X521659Y988633D01*
X359572Y833730D02*
X514475Y988633D01*
X348963Y916515D02*
X421080Y988633D01*
X354834Y915203D02*
X428264Y988633D01*
X278794Y918189D02*
X349238Y988633D01*
X281504Y906531D02*
X363606Y988633D01*
X281446Y913657D02*
X356422Y988633D01*
X274545Y921124D02*
X342054Y988633D01*
X268102Y921865D02*
X334870Y988633D01*
X275788D02*
X347930Y916490D01*
X268603Y988633D02*
X342271Y914965D01*
X362012Y908012D02*
X442633Y988633D01*
X363315Y902131D02*
X449817Y988633D01*
X359072Y912257D02*
X435448Y988633D01*
X282002Y910576D02*
X355939Y836639D01*
X280754Y904640D02*
X346991Y838403D01*
X277554Y900656D02*
X341603Y836606D01*
X272728Y898298D02*
X337687Y833339D01*
X264550Y899291D02*
X335085Y828756D01*
X311709Y988633D02*
X731183Y569158D01*
X304732Y505890D02*
X787475Y988633D01*
X361998D02*
X703115Y647516D01*
X309486Y467538D02*
X830580Y988633D01*
X307425Y501399D02*
X794659Y988633D01*
X290156D02*
X631273Y647516D01*
X282972Y988633D02*
X624088Y647516D01*
X304524Y988633D02*
X645641Y647516D01*
X297340Y988633D02*
X638457Y647516D01*
X412912Y549412D02*
X852133Y988633D01*
X363290Y901131D02*
X616904Y647516D01*
X363203Y822191D02*
X616236Y569158D01*
X419336Y541467D02*
X866501Y988633D01*
X417360Y546676D02*
X859317Y988633D01*
X348186Y887497D02*
X666525Y569158D01*
X361439Y831139D02*
X623420Y569158D01*
X317468Y461152D02*
X844949Y988633D01*
X314891Y465759D02*
X837764Y988633D01*
X363287Y823076D02*
X528843Y988633D01*
X376366D02*
X536575Y828424D01*
X326077Y988633D02*
X486202Y828508D01*
X361765Y895471D02*
X609720Y647516D01*
X369182Y988633D02*
X536059Y821757D01*
X318893Y988633D02*
X485639Y821887D01*
X281579Y813211D02*
X457001Y988633D01*
X262802Y679487D02*
X485677Y902362D01*
X281200Y805648D02*
X464185Y988633D01*
X358683Y891369D02*
X609484Y640568D01*
X352557Y647110D02*
X593126Y887679D01*
X356494Y643863D02*
X535902Y823271D01*
X354301Y888567D02*
X609484Y633384D01*
X357020Y637204D02*
X537386Y817570D01*
X274949Y820949D02*
X342788Y888788D01*
X268768Y821953D02*
X338544Y891728D01*
X279068Y817884D02*
X348669Y887485D01*
X211824Y721903D02*
X478554Y988633D01*
X256394Y708999D02*
X536027Y988633D01*
X209346Y726609D02*
X471370Y988633D01*
X262763Y701000D02*
X550396Y988633D01*
X260638Y706059D02*
X543212Y988633D01*
X98731Y687837D02*
X399528Y988633D01*
X102511Y684433D02*
X406712Y988633D01*
X91248Y687538D02*
X392343Y988633D01*
X103390Y678127D02*
X413896Y988633D01*
X11367Y614841D02*
X385159Y988633D01*
X257491Y688544D02*
X557580Y988633D01*
X261294Y685163D02*
X564764Y988633D01*
X258482Y667982D02*
X486151Y895651D01*
X262522Y657654D02*
X492463Y887594D01*
X261854Y664170D02*
X488643Y890959D01*
X35805Y988633D02*
X964195D01*
X182569Y570516D02*
X497717Y885665D01*
X160840Y988633D02*
X580315Y569158D01*
X132103Y988633D02*
X551578Y569158D01*
X254235Y988633D02*
X335367Y907501D01*
X261419Y988633D02*
X338168Y911884D01*
X247051Y988633D02*
X334297Y901387D01*
X168024Y988633D02*
X334387Y822270D01*
X167016Y835147D02*
X320501Y988633D01*
X163217Y845717D02*
X306133Y988633D01*
X159460Y849144D02*
X298948Y988633D01*
X162404Y823352D02*
X327685Y988633D01*
X165857Y841173D02*
X313317Y988633D01*
X195077Y690787D02*
X338114Y833825D01*
X166727Y831878D02*
X351135Y647470D01*
X202530Y691056D02*
X334329Y822856D01*
X164807Y826615D02*
X345415Y646006D01*
X161645Y822592D02*
X342619Y641618D01*
X11367Y622025D02*
X377975Y988633D01*
X11367Y629209D02*
X370791Y988633D01*
X11367Y571736D02*
X335597Y895966D01*
X11367Y578920D02*
X334285Y901838D01*
X211129Y988633D02*
X630604Y569158D01*
X218314Y988633D02*
X637789Y569158D01*
X153656Y988633D02*
X573131Y569158D01*
X225498Y988633D02*
X644973Y569158D01*
X187516Y561095D02*
X615054Y988633D01*
X124919D02*
X544394Y569158D01*
X117735Y988633D02*
X537210Y569158D01*
X146472Y988633D02*
X565947Y569158D01*
X139287Y988633D02*
X558762Y569158D01*
X239866Y988633D02*
X659341Y569158D01*
X191450Y435713D02*
X744370Y988633D01*
X232682D02*
X652157Y569158D01*
X198634Y428529D02*
X587749Y817644D01*
X195042Y432121D02*
X586297Y823376D01*
X187516Y532358D02*
X542794Y887636D01*
X187516Y539543D02*
X538995Y891021D01*
X187858Y439305D02*
X737185Y988633D01*
X162713Y464450D02*
X589346Y891083D01*
X168355Y887723D02*
X486920Y569158D01*
X187516Y568279D02*
X506035Y886798D01*
X168078Y880816D02*
X479737Y569157D01*
X187516Y546727D02*
X536525Y895735D01*
X187516Y553911D02*
X536100Y902495D01*
X110551Y988633D02*
X530025Y569158D01*
X166040Y875670D02*
X475244Y566466D01*
X11367Y514262D02*
X485738Y988633D01*
X162882Y871644D02*
X471651Y562874D01*
X158721Y868621D02*
X468059Y559282D01*
X153399Y866758D02*
X464467Y555690D01*
X166455Y839333D02*
X457283Y548506D01*
X157383Y819669D02*
X442915Y534138D01*
X151790Y818079D02*
X439323Y530546D01*
X144752Y482410D02*
X485508Y823166D01*
X146118Y866855D02*
X460875Y552098D01*
X11367Y822001D02*
X381310Y452059D01*
X11367Y829186D02*
X381310Y459243D01*
X361406Y816803D02*
X609052Y569158D01*
X382636Y473858D02*
X476610Y567832D01*
X418976Y543708D02*
X435731Y526954D01*
X390342Y468791D02*
X481677Y560126D01*
X397519Y470199D02*
X469498Y542178D01*
X358139Y812887D02*
X601868Y569158D01*
X353556Y810285D02*
X594683Y569158D01*
X357470Y641135D02*
X453691Y544914D01*
X356006Y635415D02*
X450099Y541322D01*
X351618Y632619D02*
X446507Y537730D01*
X445710Y524159D02*
X448594Y521275D01*
X442118Y520567D02*
X445002Y517682D01*
X438525Y516975D02*
X441410Y514090D01*
X434933Y513383D02*
X437818Y510498D01*
X431341Y509791D02*
X434226Y506906D01*
X418287Y537214D02*
X432139Y523361D01*
X414587Y533729D02*
X428547Y519769D01*
X403905Y463812D02*
X474565Y534472D01*
X427749Y506199D02*
X430634Y503314D01*
X407443Y533689D02*
X424955Y516177D01*
X424157Y502606D02*
X427041Y499722D01*
X420565Y499014D02*
X423449Y496130D01*
X416973Y495422D02*
X419857Y492538D01*
X413381Y491830D02*
X416265Y488946D01*
X409789Y488238D02*
X412673Y485354D01*
X406196Y484646D02*
X409081Y481761D01*
X402604Y481054D02*
X405489Y478169D01*
X399012Y477462D02*
X401897Y474577D01*
X395420Y473870D02*
X398305Y470985D01*
X391828Y470277D02*
X392404Y469701D01*
X428837Y436021D02*
X527288Y534472D01*
X434674Y434674D02*
X534472Y534472D01*
X404085Y461559D02*
X476998Y534472D01*
X437840Y430656D02*
X541656Y534472D01*
X434674Y434674D02*
X534472Y534472D01*
X390342Y433447D02*
X491367Y534472D01*
X390342Y440631D02*
X484183Y534472D01*
X389854Y411407D02*
X512919Y534472D01*
X384963Y413700D02*
X505735Y534472D01*
X415467Y475375D02*
X463053Y427789D01*
X411875Y471783D02*
X456203Y427455D01*
X408283Y468191D02*
X452590Y423884D01*
X437051Y432238D02*
X452132Y417158D01*
X404691Y464599D02*
X434503Y434787D01*
X403408Y458698D02*
X426687Y435418D01*
X400057Y454865D02*
X422847Y432074D01*
X393866Y453871D02*
X421838Y425899D01*
X390342Y447816D02*
X396199Y453673D01*
X390342Y433324D02*
Y455628D01*
X381310Y435195D02*
Y470662D01*
X367850Y446876D02*
X381310Y460336D01*
X363030Y449240D02*
X381310Y467521D01*
X370238Y442080D02*
X381310Y453152D01*
X370296Y441520D02*
X378966Y432850D01*
X378168Y419280D02*
X383705Y413743D01*
X374576Y415687D02*
X378563Y411701D01*
X368670Y435961D02*
X375374Y429258D01*
X364478Y432969D02*
X371782Y425666D01*
X352523Y409996D02*
X381310Y438784D01*
X356116Y410001D02*
X381310Y435195D01*
X282016Y809983D02*
X522841Y569158D01*
X280556Y804259D02*
X515657Y569158D01*
X277229Y800402D02*
X508473Y569158D01*
X299168Y507510D02*
X601146Y809488D01*
X347070Y809587D02*
X587499Y569158D01*
X272250Y798196D02*
X501289Y569158D01*
X263100Y800163D02*
X494104Y569158D01*
X151937Y475226D02*
X490097Y813387D01*
X148344Y478818D02*
X487023Y817496D01*
X262815Y699869D02*
X413406Y549278D01*
X260345Y673603D02*
X421362Y512585D01*
X261038Y694462D02*
X406912Y548589D01*
X262391Y657188D02*
X414178Y505401D01*
X259561Y652834D02*
X410586Y501809D01*
X255913Y670850D02*
X417770Y508993D01*
X257058Y691258D02*
X403427Y544889D01*
X254633Y650578D02*
X406994Y498217D01*
X247509Y650517D02*
X403402Y494625D01*
X213544Y680518D02*
X343509Y810483D01*
X249727Y709516D02*
X349724Y809513D01*
X211808Y685966D02*
X339070Y813228D01*
X262688Y678444D02*
X403387Y537745D01*
X213283Y677559D02*
X399810Y491032D01*
X210875Y672783D02*
X396218Y487440D01*
X208157Y689499D02*
X335935Y817277D01*
X206701Y669773D02*
X392626Y483848D01*
X211705Y657585D02*
X389034Y480256D01*
X209029Y653077D02*
X385441Y476664D01*
X204271Y650650D02*
X381947Y472974D01*
X180673Y446489D02*
X544794Y810610D01*
X184265Y442897D02*
X550859Y809491D01*
X177081Y450081D02*
X540440Y813440D01*
X205818Y421344D02*
X595116Y810643D01*
X202226Y424937D02*
X590783Y813494D01*
X159121Y468042D02*
X500574Y809495D01*
X155529Y471634D02*
X494472Y810578D01*
X11367Y807633D02*
X381310Y437690D01*
X11367Y814817D02*
X381310Y444874D01*
X297333Y492930D02*
X368189Y422074D01*
X317404Y458491D02*
X361005Y414890D01*
X307131Y497501D02*
X356967Y447664D01*
X285761Y407892D02*
X410779Y532910D01*
X314659Y454052D02*
X357413Y411298D01*
X197250Y650488D02*
X381310Y466427D01*
X11367Y800449D02*
X362526Y449290D01*
X280073Y409389D02*
X405570Y534886D01*
X103620Y679459D02*
X364597Y418482D01*
X169897Y457266D02*
X346137Y633506D01*
X173489Y453673D02*
X352796Y632980D01*
X187516Y552458D02*
X326272Y413702D01*
X187516Y545274D02*
X320562Y412228D01*
X187516Y538089D02*
X317472Y408133D01*
X101398Y674497D02*
X308491Y467404D01*
X96738Y671973D02*
X304051Y464659D01*
X166305Y460858D02*
X342890Y637443D01*
X11367Y750159D02*
X302508Y459019D01*
X331761Y410787D02*
X356018Y435045D01*
X327312Y413522D02*
X353654Y439865D01*
X303912Y493535D02*
X353975Y443472D01*
X309018Y452508D02*
X351743Y409784D01*
X189577Y988633D02*
X260655Y917554D01*
X196761Y988633D02*
X264640Y920754D01*
X182393Y988633D02*
X258298Y912728D01*
X166949Y892554D02*
X263027Y988633D01*
X175208D02*
X259291Y904550D01*
X149196Y903539D02*
X234291Y988633D01*
X155549Y902707D02*
X241475Y988633D01*
X67445D02*
X152723Y903355D01*
X164180Y896969D02*
X255843Y988633D01*
X160396Y900370D02*
X248659Y988633D01*
X203945D02*
X270576Y922002D01*
X168461Y886882D02*
X270212Y988633D01*
X167449Y878686D02*
X277396Y988633D01*
X48728Y975491D02*
X61870Y988633D01*
X49494Y969073D02*
X69054Y988633D01*
X46490Y980438D02*
X54685Y988633D01*
X53482Y922772D02*
X119343Y988633D01*
X46093Y922567D02*
X112159Y988633D01*
X38709D02*
X41786Y985555D01*
X39001Y987317D02*
X40317Y988633D01*
X43222Y984354D02*
X47501Y988633D01*
X58336Y913257D02*
X133712Y988633D01*
X60261D02*
X145816Y903078D01*
X57292Y919398D02*
X126527Y988633D01*
X53077D02*
X140670Y901040D01*
X49505Y970652D02*
X131758Y888399D01*
X45893Y988633D02*
X136644Y897882D01*
X45555Y981786D02*
X133621Y893720D01*
X48667Y964306D02*
X131855Y881118D01*
X147823Y851876D02*
X284580Y988633D01*
X154533Y851401D02*
X291764Y988633D01*
X103366D02*
X269983Y822016D01*
X96182Y988633D02*
X264259Y820556D01*
X88998Y988633D02*
X260402Y817229D01*
X81814Y988633D02*
X258197Y812250D01*
X51798Y813324D02*
X227106Y988633D01*
X74630D02*
X260163Y803100D01*
X48952Y906549D02*
X246215Y709285D01*
X204789Y729237D02*
X274352Y798800D01*
X197884Y729516D02*
X266789Y798421D01*
X211762Y722186D02*
X245016Y688932D01*
X11367Y550183D02*
X262116Y800932D01*
X143345Y819340D02*
X253168Y709516D01*
X11367Y793265D02*
X297501Y507131D01*
X11367Y786080D02*
X293535Y503912D01*
X46387Y959401D02*
X154334Y851455D01*
X54752Y907933D02*
X134340Y828345D01*
X57942Y911927D02*
X133079Y836790D01*
X58491Y805649D02*
X132293Y879451D01*
X56342Y810684D02*
X131462Y885804D01*
X43085Y955520D02*
X146878Y851727D01*
X38827Y952594D02*
X141615Y849807D01*
X33446Y950791D02*
X137592Y846645D01*
X26194Y950859D02*
X134670Y842383D01*
X197500Y729516D02*
X202500D01*
X55982Y798939D02*
X189606Y665315D01*
X58415Y803691D02*
X188436Y673669D01*
X11367Y765709D02*
X44316Y798658D01*
X51172Y796565D02*
X187987Y659750D01*
X11367Y758525D02*
X49351Y796509D01*
X11367Y844736D02*
X155264Y988633D01*
X11367Y837551D02*
X162449Y988633D01*
X11367Y851920D02*
X148080Y988633D01*
X11367Y823183D02*
X176817Y988633D01*
X11367Y830367D02*
X169633Y988633D01*
X11367Y909394D02*
X90606Y988633D01*
X11367Y902209D02*
X97791Y988633D01*
X11367Y916578D02*
X83422Y988633D01*
X11367Y859104D02*
X140896Y988633D01*
X11367Y895025D02*
X104975Y988633D01*
X11367Y787262D02*
X212738Y988633D01*
X11367Y780078D02*
X219922Y988633D01*
X11367Y751341D02*
X134630Y874604D01*
X11367Y736973D02*
X142446Y868051D01*
X11367Y744157D02*
X138031Y870820D01*
X11367Y808815D02*
X191185Y988633D01*
X11367Y815999D02*
X184001Y988633D01*
X11367Y794446D02*
X205554Y988633D01*
X11367Y801630D02*
X198370Y988633D01*
X11367Y945315D02*
X19562Y953510D01*
X11367Y938130D02*
X24509Y951272D01*
X11367Y952499D02*
X15646Y956778D01*
X11367Y951317D02*
X42933Y919752D01*
X11367Y930946D02*
X30927Y950506D01*
X11367Y959683D02*
X12683Y960999D01*
X11367Y923762D02*
X76238Y988633D01*
X11367Y958502D02*
X46927Y922942D01*
X11367Y866288D02*
X51743Y906664D01*
X11367Y850738D02*
X48691Y813415D01*
X11367Y843554D02*
X43939Y810982D01*
X11367Y772894D02*
X41676Y803202D01*
X11367Y836370D02*
X41565Y806172D01*
X11367Y887841D02*
X42433Y918907D01*
X11367Y944133D02*
X41549Y913952D01*
X11367Y873473D02*
X45602Y907707D01*
X11367Y880657D02*
X42228Y911518D01*
X11367Y665130D02*
X258135Y911898D01*
X11367Y908212D02*
X191891Y727688D01*
X11367Y901028D02*
X188722Y723673D01*
X11367Y650762D02*
X261811Y901206D01*
X11367Y657946D02*
X258876Y905456D01*
X11367Y922580D02*
X204686Y729262D01*
X11367Y915396D02*
X197251Y729513D01*
X11367Y936949D02*
X241579Y706737D01*
X11367Y929765D02*
X239021Y702111D01*
X11367Y872291D02*
X193393Y690265D01*
X11367Y564552D02*
X258047Y811232D01*
X11367Y865107D02*
X189186Y687288D01*
X11367Y778896D02*
X292930Y497333D01*
X11367Y557367D02*
X259051Y805051D01*
X11367Y886659D02*
X209340Y688686D01*
X11367Y879475D02*
X199786Y691056D01*
X11367Y636394D02*
X273470Y898496D01*
X11367Y643578D02*
X266343Y898554D01*
X11367Y708236D02*
X133599Y830468D01*
X11367Y701051D02*
X135856Y825540D01*
X11367Y715420D02*
X133124Y837177D01*
X11367Y672315D02*
X161649Y822596D01*
X11367Y693867D02*
X139283Y821783D01*
X11367Y722604D02*
X156314Y867551D01*
X11367Y729788D02*
X148118Y866540D01*
X11367Y893844D02*
X188613Y716598D01*
X11367Y857923D02*
X186742Y682548D01*
X11367Y742975D02*
X183826Y570516D01*
X11367Y735791D02*
X176642Y570516D01*
X11367Y757344D02*
X87049Y681662D01*
X11367Y721423D02*
X172484Y560305D01*
X11367Y728607D02*
X172484Y567490D01*
X11367Y686683D02*
X143827Y819143D01*
X11367Y771712D02*
X94535Y688544D01*
X11367Y679499D02*
X149853Y817985D01*
X11367Y764528D02*
X89573Y686322D01*
X248300Y689516D02*
X253300D01*
X251279D02*
X252247Y690484D01*
X250648D02*
X251616Y689516D01*
X248300Y709516D02*
X253300D01*
X248300Y690484D02*
X253300D01*
X211506Y656927D02*
X245488Y690909D01*
X252832Y669516D02*
X253814Y670498D01*
X248300Y669516D02*
X253300D01*
X248300Y670484D02*
X253300D01*
X249095D02*
X250063Y669516D01*
X245090Y668958D02*
X246744Y670612D01*
X211014Y715749D02*
X240847Y685917D01*
X207608Y711971D02*
X238815Y680764D01*
X211215Y663821D02*
X241134Y693739D01*
X207986Y667776D02*
X238878Y698668D01*
X197500Y710484D02*
X202500D01*
X201911D02*
X243938Y668457D01*
X194098Y711113D02*
X240206Y665005D01*
X211186Y686841D02*
X238817Y659210D01*
X197500Y691056D02*
X202500D01*
X191169Y670936D02*
X193480Y668625D01*
X197500Y650484D02*
X202500D01*
X248300D02*
X253300D01*
X175385Y570516D02*
X255646Y650778D01*
X172484Y570516D02*
X187516D01*
Y555484D02*
Y557516D01*
Y570516D01*
Y529484D02*
Y542484D01*
X209410Y417752D02*
X292490Y500832D01*
X187516Y542484D02*
Y544516D01*
X216594Y410568D02*
X298601Y492575D01*
X213002Y414160D02*
X294110Y495267D01*
X187516Y544516D02*
Y555484D01*
Y557516D01*
X172484Y529484D02*
X187516D01*
Y542484D02*
Y544516D01*
X172484D02*
Y555484D01*
Y542484D02*
Y544516D01*
Y555484D02*
Y557516D01*
Y529484D02*
Y542484D01*
Y544516D01*
Y555484D02*
Y557516D01*
Y570516D01*
X139226Y484068D02*
X184642Y529484D01*
X132042Y484068D02*
X177458Y529484D01*
X139188Y462478D02*
X145550Y468839D01*
X139411Y412411D02*
X170695Y443695D01*
X137124Y417309D02*
X167103Y447287D01*
X131704Y469362D02*
X137378Y475036D01*
X127999Y489843D02*
X133774Y484068D01*
X132744Y420112D02*
X163510Y450879D01*
X136488Y466962D02*
X141958Y472432D01*
X11367Y699870D02*
X172484Y538753D01*
X11367Y692686D02*
X172484Y531569D01*
X11367Y707054D02*
X172484Y545937D01*
X11367Y521446D02*
X200405Y710484D01*
X11367Y507078D02*
X186713Y682424D01*
X11367Y542999D02*
X187992Y719623D01*
X11367Y714238D02*
X172484Y553121D01*
X11367Y528630D02*
X193920Y711183D01*
X11367Y535815D02*
X189868Y714316D01*
X108402Y510718D02*
X248169Y650485D01*
X116890Y497653D02*
X172484Y553247D01*
X110465Y505597D02*
X172484Y567616D01*
X127110Y493505D02*
X172484Y538879D01*
X123559Y497138D02*
X172484Y546063D01*
X103882Y513382D02*
X242762Y652262D01*
X11367Y499894D02*
X187273Y675800D01*
X11367Y492709D02*
X190283Y671625D01*
X106624Y494571D02*
X172484Y560432D01*
X11367Y606475D02*
X104673Y513169D01*
X11367Y599291D02*
X98106Y512552D01*
X11367Y592107D02*
X94593Y508881D01*
X11367Y584922D02*
X94449Y501841D01*
X11367Y607657D02*
X87962Y684252D01*
X11367Y600472D02*
X87663Y676769D01*
X11367Y586104D02*
X97373Y672110D01*
X11367Y593288D02*
X91067Y672989D01*
X110071Y507771D02*
X119727Y498116D01*
X109454Y501204D02*
X114390Y496268D01*
X106624Y496850D02*
X111554Y491920D01*
X107706Y488469D02*
X111731Y492494D01*
X106624Y489551D02*
Y498164D01*
X97592Y487680D02*
Y498164D01*
X11367Y577738D02*
X97592Y491513D01*
X11367Y478341D02*
X188917Y655891D01*
X11367Y471157D02*
X192264Y652054D01*
X11367Y485525D02*
X188309Y662467D01*
X11367Y428051D02*
X239558Y656242D01*
X11367Y435236D02*
X239342Y663211D01*
X11367Y442420D02*
X241903Y672955D01*
X11367Y449604D02*
X239150Y677387D01*
X11367Y678317D02*
X280277Y409407D01*
X11367Y671133D02*
X275269Y407231D01*
X127381Y486591D02*
X172484Y531695D01*
X125774Y484068D02*
X141224D01*
X110236Y475036D02*
X139353D01*
X11367Y463973D02*
X197879Y650484D01*
X11367Y613659D02*
X140958Y484068D01*
X11367Y456788D02*
X205573Y650994D01*
X11367Y541817D02*
X133235Y419949D01*
X106624Y489666D02*
X112222Y484068D01*
X106624Y489551D02*
X112107Y484068D01*
X11367Y413683D02*
X96596Y498912D01*
X11367Y420867D02*
X93932Y503432D01*
X11367Y534633D02*
X126253Y419747D01*
X11367Y570554D02*
X120579Y461342D01*
X11367Y527449D02*
X122268Y416547D01*
X11367Y520265D02*
X120485Y411146D01*
X111298Y484877D02*
X112246Y485825D01*
X112107Y484068D02*
X113494D01*
X121254Y475036D02*
X127196Y469094D01*
X114069Y475036D02*
X122839Y466267D01*
X98918Y484484D02*
X107040Y476362D01*
X438490Y381016D02*
X591946Y534472D01*
X447796Y507704D02*
X559557Y395944D01*
X444204Y504112D02*
X557988Y390328D01*
X445674Y381016D02*
X599130Y534472D01*
X440612Y500520D02*
X560116Y381016D01*
X437020Y496927D02*
X552932Y381016D01*
X433428Y493335D02*
X545747Y381016D01*
X392313Y406681D02*
X520104Y534472D01*
X388489Y366936D02*
X556025Y534472D01*
X383377Y369008D02*
X548840Y534472D01*
X429836Y489743D02*
X538563Y381016D01*
X435682D02*
X562020D01*
X434338Y420583D02*
X473905Y381016D01*
X437553Y371984D02*
X569128D01*
X437682Y424423D02*
X481089Y381016D01*
X422652Y482559D02*
X524195Y381016D01*
X419060Y478967D02*
X517010Y381016D01*
X426244Y486151D02*
X531379Y381016D01*
X428163Y419574D02*
X466721Y381016D01*
X390342Y450211D02*
X459537Y381016D01*
X390342Y443027D02*
X452352Y381016D01*
X388944Y430056D02*
X437984Y381016D01*
X390342Y435842D02*
X445168Y381016D01*
X385352Y426464D02*
X432306Y379510D01*
X376192Y376192D02*
X423062Y423062D01*
X372600Y379784D02*
X421716Y428900D01*
X381760Y422872D02*
X428714Y375918D01*
X376192Y376192D02*
X423062Y423062D01*
X379784Y372600D02*
X427080Y419896D01*
X392407Y405041D02*
X425121Y372326D01*
X390365Y399899D02*
X421529Y368734D01*
X370984Y412095D02*
X375881Y407198D01*
X369008Y383377D02*
X382751Y397119D01*
X365416Y386969D02*
X378025Y399578D01*
X430042Y351016D02*
X451011Y371984D01*
X437226Y351016D02*
X458195Y371984D01*
X422858Y351016D02*
X443826Y371984D01*
X439832D02*
X460800Y351016D01*
X400309Y334741D02*
X437553Y371984D01*
X393283Y364546D02*
X452557Y423820D01*
X395646Y359725D02*
X452408Y416487D01*
X381371Y338265D02*
X455844Y412739D01*
X376794Y323998D02*
X432486Y379691D01*
X435100Y369532D02*
X453616Y351016D01*
X431508Y365939D02*
X446432Y351016D01*
X427916Y362347D02*
X439248Y351016D01*
X447016Y371984D02*
X467985Y351016D01*
X444410D02*
X465379Y371984D01*
X420922Y351016D02*
X562020D01*
X424324Y358755D02*
X432063Y351016D01*
X420742Y277058D02*
X485668Y341984D01*
X407209Y320998D02*
X428194Y341984D01*
X385862Y397217D02*
X417937Y365142D01*
X420732Y355163D02*
X424879Y351016D01*
X395716Y358626D02*
X403569Y350773D01*
X393817Y353341D02*
X399977Y347181D01*
X367392Y408503D02*
X414345Y361550D01*
X363800Y404911D02*
X410753Y357958D01*
X372876Y344139D02*
X381452Y352715D01*
X417140Y351571D02*
X418439Y350272D01*
X413548Y347979D02*
X414781Y346745D01*
X409955Y344387D02*
X411189Y343153D01*
X389429Y350545D02*
X396385Y343589D01*
X378401Y342480D02*
X386273Y350352D01*
X402598Y334563D02*
X417726Y349690D01*
X288836Y403784D02*
X873686Y988633D01*
X286389Y394152D02*
X880870Y988633D01*
X361339Y397260D02*
X498551Y534472D01*
X300757Y394152D02*
X895238Y988633D01*
X293573Y394152D02*
X888054Y988633D01*
X223779Y403384D02*
X809028Y988633D01*
X227371Y399792D02*
X816212Y988633D01*
X220187Y406976D02*
X801843Y988633D01*
X230963Y396200D02*
X823396Y988633D01*
X257652Y394152D02*
X402834Y539334D01*
X362503Y403615D02*
X389016Y430128D01*
X359268Y395075D02*
X387328Y367014D01*
X361824Y390561D02*
X375732Y404469D01*
X362286Y399241D02*
X407161Y354366D01*
X359558Y392826D02*
X385564Y366821D01*
X329494Y394152D02*
X381310Y445968D01*
X354491Y385120D02*
X379177Y360434D01*
X347670Y385120D02*
X392793Y339997D01*
X340485Y385120D02*
X389200Y336405D01*
X357945Y393866D02*
X358898Y394819D01*
X333738Y405580D02*
X360813Y432656D01*
X285634Y394152D02*
X351003D01*
X231140Y385120D02*
X354491D01*
X357839Y357839D02*
X369806Y369806D01*
X357839Y357839D02*
X369806Y369806D01*
X355634Y362818D02*
X366214Y373398D01*
X355875Y362546D02*
X374320Y344101D01*
X357257Y353980D02*
X368590Y342647D01*
X350989Y365357D02*
X362621Y376990D01*
X333301Y385120D02*
X354926Y363495D01*
X353990Y350063D02*
X365488Y338565D01*
X11367Y462791D02*
X462791Y11367D01*
X11367Y455607D02*
X455607Y11367D01*
X11367Y448422D02*
X448422Y11367D01*
X135622Y475036D02*
X599291Y11367D01*
X11367Y441238D02*
X441238Y11367D01*
X11367Y556186D02*
X556186Y11367D01*
X11367Y484343D02*
X427802Y67909D01*
X11367Y549001D02*
X549001Y11367D01*
X11367Y491528D02*
X491528Y11367D01*
X187427Y351389D02*
X527449Y11367D01*
X186096Y345536D02*
X520265Y11367D01*
X354418Y304128D02*
X462225Y411935D01*
X239907Y385120D02*
X613659Y11367D01*
X232722Y385120D02*
X606475Y11367D01*
X11367Y434054D02*
X434054Y11367D01*
X11367Y426870D02*
X426870Y11367D01*
X138950Y414235D02*
X541817Y11367D01*
X138747Y407253D02*
X534633Y11367D01*
X11367Y405317D02*
X405317Y11367D01*
X297380Y385120D02*
X372397Y310103D01*
X247091Y385120D02*
X362062Y270149D01*
X11367Y398133D02*
X398133Y11367D01*
X11367Y390949D02*
X390949Y11367D01*
X11367Y477159D02*
X423698Y64828D01*
X11367Y469975D02*
X422209Y59133D01*
X11367Y419686D02*
X419686Y11367D01*
X11367Y412501D02*
X412501Y11367D01*
X327455Y362229D02*
X375468Y314216D01*
X347968Y348900D02*
X375503Y321365D01*
X290196Y385120D02*
X372523Y302792D01*
X159810Y145442D02*
X376990Y362621D01*
X157138Y149954D02*
X373398Y366214D01*
X121739Y143291D02*
X359029Y380582D01*
X126948Y155684D02*
X355437Y384174D01*
X11367Y383764D02*
X383764Y11367D01*
X49397Y27844D02*
X379062Y357509D01*
X433911Y341984D02*
X498837Y277058D01*
X435111D02*
X500036Y341984D01*
X408985Y328176D02*
X422792Y341984D01*
X442295Y277058D02*
X507221Y341984D01*
X441095D02*
X506021Y277058D01*
X384821D02*
X449747Y341984D01*
X392005Y277058D02*
X456931Y341984D01*
X377637Y277058D02*
X442563Y341984D01*
X406374Y277058D02*
X471300Y341984D01*
X399190Y277058D02*
X464115Y341984D01*
X422792D02*
X569121D01*
X405875Y319730D02*
X448547Y277058D01*
X400386Y318035D02*
X441363Y277058D01*
X448280Y341984D02*
X513205Y277058D01*
X413983Y333175D02*
X470100Y277058D01*
X377120D02*
X766872D01*
X384811Y319242D02*
X426995Y277058D01*
X388403Y322834D02*
X434179Y277058D01*
X388042Y308826D02*
X419811Y277058D01*
X406363Y340795D02*
X407597Y339561D01*
X402771Y337203D02*
X404005Y335969D01*
X381693Y336728D02*
X385608Y332813D01*
X380239Y330998D02*
X382016Y329221D01*
X384500Y318931D02*
X392461Y326893D01*
X376157Y327896D02*
X378424Y325629D01*
X385066Y313224D02*
X393749Y321907D01*
X388000Y308973D02*
X397665Y318638D01*
X384500Y313620D02*
Y318931D01*
X387251Y302433D02*
X412626Y277058D01*
X383509Y298991D02*
X405442Y277058D01*
X376199Y299117D02*
X398258Y277058D01*
X414474Y268026D02*
X671133Y11367D01*
X421658Y268026D02*
X678317Y11367D01*
X407290Y268026D02*
X663949Y11367D01*
X436027Y268026D02*
X692686Y11367D01*
X428843Y268026D02*
X685501Y11367D01*
X385737Y268026D02*
X642396Y11367D01*
X378553Y268026D02*
X635212Y11367D01*
X400106Y268026D02*
X656765Y11367D01*
X392921Y268026D02*
X649580Y11367D01*
X428051D02*
X622988Y206304D01*
X435236Y11367D02*
X630173Y206304D01*
X420867Y11367D02*
X615804Y206304D01*
X443211Y268026D02*
X699870Y11367D01*
X442420D02*
X637357Y206304D01*
X377120Y268026D02*
X768742D01*
X399315Y11367D02*
X594252Y206304D01*
X413683Y11367D02*
X608620Y206304D01*
X406499Y11367D02*
X601436Y206304D01*
X426727Y341984D02*
X491653Y277058D01*
X427926D02*
X492852Y341984D01*
X421167Y340359D02*
X484468Y277058D01*
X434005Y67610D02*
X572699Y206304D01*
X426591Y67381D02*
X565515Y206304D01*
X410391Y329583D02*
X462916Y277058D01*
X408820Y323969D02*
X455732Y277058D01*
X413558D02*
X478484Y341984D01*
X417575Y336767D02*
X477284Y277058D01*
X437770Y64191D02*
X579883Y206304D01*
X438616Y57852D02*
X587067Y206304D01*
X429663Y51679D02*
X469975Y11367D01*
X438439Y57272D02*
X484343Y11367D01*
X435359Y53168D02*
X477159Y11367D01*
X377762D02*
X422920Y56525D01*
X392130Y11367D02*
X432677Y51914D01*
X384946Y11367D02*
X426339Y52760D01*
X373549Y280154D02*
X435378Y341984D01*
X246216Y335705D02*
X570554Y11367D01*
X366127Y279916D02*
X406204Y319993D01*
X255630Y11367D02*
X512289Y268026D01*
X248446Y11367D02*
X505105Y268026D01*
X234078Y11367D02*
X490737Y268026D01*
X169420Y11367D02*
X426079Y268026D01*
X242018Y332719D02*
X563370Y11367D01*
X241262D02*
X497921Y268026D01*
X324771Y51771D02*
X541026Y268026D01*
X328043Y47858D02*
X548210Y268026D01*
X318740Y52924D02*
X533842Y268026D01*
X326742Y39373D02*
X555395Y268026D01*
X287437Y237010D02*
X513080Y11367D01*
X269999D02*
X526658Y268026D01*
X262815Y11367D02*
X519473Y268026D01*
X284240Y233023D02*
X505896Y11367D01*
X278347Y231732D02*
X498712Y11367D01*
X375468Y313620D02*
Y320802D01*
X357591Y300118D02*
X375468Y317994D01*
X348566Y305461D02*
X370902Y327797D01*
X333718Y334414D02*
X391074Y277058D01*
X331557Y329390D02*
X383890Y277058D01*
X276496Y247759D02*
X365029Y336292D01*
X190997Y126339D02*
X371627Y306969D01*
X283391Y247470D02*
X366688Y330767D01*
X358003Y295761D02*
X373662Y280102D01*
X355491Y291088D02*
X366483Y280096D01*
X350544Y288851D02*
X362774Y276621D01*
X348205Y254811D02*
X362466Y269071D01*
X342297Y263271D02*
X377589Y298562D01*
X195189Y123346D02*
X373338Y301496D01*
X346526Y260315D02*
X362704Y276493D01*
X320288Y11367D02*
X576947Y268026D01*
X327472Y11367D02*
X584131Y268026D01*
X313104Y11367D02*
X569763Y268026D01*
X341841Y11367D02*
X598500Y268026D01*
X334657Y11367D02*
X591316Y268026D01*
X219709Y11367D02*
X476368Y268026D01*
X212525Y11367D02*
X469184Y268026D01*
X305920Y11367D02*
X562579Y268026D01*
X226894Y11367D02*
X483552Y268026D01*
X356209Y11367D02*
X550333Y205491D01*
X363394Y11367D02*
X554735Y202708D01*
X349025Y11367D02*
X548416Y210758D01*
X374157Y265238D02*
X628028Y11367D01*
X367685Y264526D02*
X620844Y11367D01*
X35805D02*
X964195D01*
X341937Y247168D02*
X577738Y11367D01*
X348218Y255256D02*
X592107Y11367D01*
X346323Y249967D02*
X584922Y11367D01*
X162236D02*
X418895Y268026D01*
X176604Y11367D02*
X433263Y268026D01*
X155051Y11367D02*
X411710Y268026D01*
X190972Y11367D02*
X447631Y268026D01*
X183788Y11367D02*
X440447Y268026D01*
X133499Y11367D02*
X390158Y268026D01*
X126314Y11367D02*
X382973Y268026D01*
X147867Y11367D02*
X404526Y268026D01*
X140683Y11367D02*
X397342Y268026D01*
X198157Y11367D02*
X454815Y268026D01*
X205341Y11367D02*
X462000Y268026D01*
X326867Y39528D02*
X355028Y11367D01*
X370578D02*
X423149Y63939D01*
X328657Y44922D02*
X362212Y11367D01*
X119130D02*
X372217Y264454D01*
X111946Y11367D02*
X365883Y265304D01*
X196337Y191610D02*
X376580Y11367D01*
X193207Y187556D02*
X369396Y11367D01*
X332218Y400572D02*
X338638Y394152D01*
X307941D02*
X317236Y403446D01*
X336678Y394152D02*
X346161Y403635D01*
X333692Y406282D02*
X345822Y394152D01*
X187516Y566826D02*
X347577Y406766D01*
X187516Y559642D02*
X345990Y401168D01*
X174569Y529484D02*
X309901Y394152D01*
X187516Y530905D02*
X324269Y394152D01*
X181753Y529484D02*
X317085Y394152D01*
X328123Y397482D02*
X331453Y394152D01*
X343862D02*
X347186Y397475D01*
X322310Y394152D02*
X325178Y397020D01*
X332143Y375248D02*
X342015Y385120D01*
X327989Y378279D02*
X334831Y385120D01*
X318933D02*
X325355Y378698D01*
X315126Y394152D02*
X319971Y398997D01*
X311749Y385120D02*
X320068Y376800D01*
X304564Y385120D02*
X317271Y372413D01*
X272020Y394152D02*
X274098Y396229D01*
X289265Y400419D02*
X295532Y394152D01*
X287089Y395411D02*
X288348Y394152D01*
X243284D02*
X304240Y455109D01*
X236099Y394152D02*
X302461Y460514D01*
X250468Y394152D02*
X308848Y452532D01*
X264836Y394152D02*
X272601Y401917D01*
X288847Y382241D02*
X291725Y385120D01*
X294351Y380562D02*
X298909Y385120D01*
X283012D02*
X286399Y381733D01*
X297307Y376333D02*
X306094Y385120D01*
X275828D02*
X282375Y378573D01*
X233011Y394152D02*
X276214D01*
X268643Y385120D02*
X281019Y372745D01*
X326117Y385120D02*
X346360Y364877D01*
X333711Y369632D02*
X349199Y385120D01*
X333740Y370313D02*
X342443Y361610D01*
X302924Y353213D02*
X317427Y367717D01*
X300521Y357994D02*
X327646Y385120D01*
X295686Y360344D02*
X320462Y385120D01*
X297151Y370981D02*
X324762Y343370D01*
X293991Y366957D02*
X319739Y341209D01*
X331842Y365026D02*
X341280Y355588D01*
X332393Y339578D02*
X343810Y350994D01*
X328441Y342809D02*
X341271Y355639D01*
X333621Y333621D02*
X348789Y348789D01*
X333621Y333621D02*
X348789Y348789D01*
X300503Y346076D02*
X343666Y302913D01*
X302920Y350844D02*
X317158Y336605D01*
X295655Y343740D02*
X341429Y297966D01*
X159892Y195813D02*
X326074Y361995D01*
X261459Y385120D02*
X288672Y357907D01*
X254275Y385120D02*
X286336Y353059D01*
X245046Y345625D02*
X284541Y385120D01*
X247503Y340897D02*
X280953Y374347D01*
X183993Y356414D02*
X220984Y393405D01*
X177539Y357144D02*
X217392Y396997D01*
X239790Y347553D02*
X277357Y385120D01*
X187164Y352401D02*
X224576Y389813D01*
X288163Y365601D02*
X293440Y360323D01*
X11367Y635212D02*
X252427Y394152D01*
X11367Y628028D02*
X245243Y394152D01*
X11367Y620844D02*
X238059Y394152D01*
X11367Y563370D02*
X232719Y342018D01*
X11367Y513080D02*
X172659Y351789D01*
X11367Y685501D02*
X302717Y394152D01*
X11367Y656765D02*
X273980Y394152D01*
X11367Y663949D02*
X272702Y402614D01*
X11367Y649580D02*
X266796Y394152D01*
X11367Y642396D02*
X259611Y394152D01*
X144420Y482742D02*
X233011Y394152D01*
X139353Y475036D02*
X227944Y386446D01*
X135548Y403268D02*
X181389Y357427D01*
X136267Y452839D02*
X241756Y347349D01*
X131342Y450579D02*
X235705Y346217D01*
X130147Y401485D02*
X175536Y356096D01*
X11367Y305920D02*
X159918Y454471D01*
X11367Y269999D02*
X177879Y436511D01*
X11367Y277183D02*
X174287Y440103D01*
X11367Y370578D02*
X115825Y475036D01*
X11367Y363394D02*
X123010Y475036D01*
X11367Y377762D02*
X108857Y475252D01*
X11367Y327472D02*
X149142Y465247D01*
X11367Y356209D02*
X130194Y475036D01*
X11367Y399315D02*
X97956Y485904D01*
X11367Y406499D02*
X97592Y492724D01*
X11367Y384946D02*
X104911Y478490D01*
X11367Y392130D02*
X101319Y482082D01*
X11367Y334657D02*
X127523Y450812D01*
X11367Y298736D02*
X120888Y408257D01*
X11367Y284367D02*
X128589Y401589D01*
X11367Y291551D02*
X123692Y403876D01*
X11367Y341841D02*
X123039Y453512D01*
X11367Y349025D02*
X120638Y458296D01*
X11367Y313104D02*
X156326Y458063D01*
X11367Y320288D02*
X152734Y461655D01*
X128438Y475036D02*
X339838Y263636D01*
X139094Y457196D02*
X334549Y261741D01*
X115494Y244810D02*
X255804Y385120D01*
X11367Y147867D02*
X248620Y385120D01*
X11367Y155051D02*
X241436Y385120D01*
X11367Y505896D02*
X272647Y244616D01*
X11367Y498712D02*
X271356Y238723D01*
X11367Y162236D02*
X234252Y385120D01*
X11367Y169420D02*
X228176Y386229D01*
X126104Y241051D02*
X270173Y385120D01*
X152484Y202773D02*
X293471Y343760D01*
X122456Y244587D02*
X262988Y385120D01*
X157405Y200511D02*
X320458Y363563D01*
X11367Y68841D02*
X288690Y346163D01*
X11367Y90393D02*
X286861Y365887D01*
X11367Y97578D02*
X282632Y368843D01*
X11367Y83209D02*
X313278Y385120D01*
X11367Y76025D02*
X286340Y350998D01*
X11367Y234078D02*
X195839Y418550D01*
X11367Y226894D02*
X199431Y414958D01*
X11367Y241262D02*
X192247Y422142D01*
X11367Y212525D02*
X206616Y407774D01*
X11367Y219709D02*
X203024Y411366D01*
X11367Y255630D02*
X185063Y429326D01*
X11367Y262815D02*
X181471Y432918D01*
X11367Y248446D02*
X188655Y425734D01*
X11367Y35805D02*
Y964195D01*
Y362212D02*
X180167Y193412D01*
X11367Y355028D02*
X121355Y245040D01*
X11367Y347844D02*
X114755Y244456D01*
X11367Y183788D02*
X173585Y346007D01*
X11367Y190972D02*
X172856Y352461D01*
X11367Y205341D02*
X210208Y404182D01*
X11367Y376580D02*
X185628Y202319D01*
X11367Y198157D02*
X213800Y400589D01*
X11367Y369396D02*
X181574Y199189D01*
X326953Y326810D02*
X348339Y305425D01*
X247349Y341756D02*
X331750Y257355D01*
X181789Y342659D02*
X276634Y247813D01*
X126659Y234422D02*
X232447Y340210D01*
X193752Y200936D02*
X320822Y328007D01*
X188448Y202816D02*
X317591Y331959D01*
X287517Y237228D02*
X342810Y292520D01*
X287018Y243913D02*
X341477Y298372D01*
X196563Y196563D02*
X326779Y326779D01*
X196563Y196563D02*
X326779Y326779D01*
X158683Y122762D02*
X272154Y236233D01*
X154752Y126015D02*
X271865Y243128D01*
X152008Y152008D02*
X186355Y186355D01*
X152008Y152008D02*
X186355Y186355D01*
X126499Y133683D02*
X181982Y189166D01*
X125550Y139919D02*
X180102Y194471D01*
X122433Y229593D02*
X149490Y202536D01*
X121287Y164393D02*
X145578Y188683D01*
X115436Y229406D02*
X145132Y199710D01*
X126506Y153678D02*
X153872Y126313D01*
X125417Y161338D02*
X150275Y186196D01*
X123400Y149600D02*
X147486Y125513D01*
X124574Y141242D02*
X144048Y121768D01*
X114093Y142829D02*
X119398Y148134D01*
X117663Y148153D02*
X123970Y141846D01*
X196814Y117788D02*
X331851Y252825D01*
X187430Y186149D02*
X320512Y53067D01*
X126676Y239719D02*
X315118Y51277D01*
X159724Y192303D02*
X340659Y11367D01*
X156898Y187944D02*
X333475Y11367D01*
X68841D02*
X346820Y289347D01*
X126092Y233119D02*
X312241Y46970D01*
X104762Y11367D02*
X340311Y246917D01*
X97578Y11367D02*
X334807Y248596D01*
X291551Y11367D02*
X317140Y36955D01*
X284367Y11367D02*
X313227Y40227D01*
X322560Y36651D02*
X347844Y11367D01*
X298736D02*
X325625Y38256D01*
X151573Y186084D02*
X326291Y11367D01*
X195335Y113586D02*
X297554Y11367D01*
X277183D02*
X312073Y46258D01*
X196778Y119327D02*
X304738Y11367D01*
X159871Y116766D02*
X275711Y232606D01*
X159822Y141915D02*
X180581Y121156D01*
X157175Y137378D02*
X283186Y11367D01*
X152073Y135295D02*
X276001Y11367D01*
X61657D02*
X282396Y232107D01*
X126123Y132508D02*
X144188Y114443D01*
X122864Y128583D02*
X240080Y11367D01*
X116856Y127407D02*
X232896Y11367D01*
X158901Y114099D02*
X261633Y11367D01*
X155156Y110660D02*
X254449Y11367D01*
X147831Y110801D02*
X247264Y11367D01*
X191259Y110478D02*
X290370Y11367D01*
X159700Y120484D02*
X268817Y11367D01*
X76025D02*
X180493Y115835D01*
X90393Y11367D02*
X189044Y110018D01*
X83209Y11367D02*
X183486Y111643D01*
X11367Y290370D02*
X149903Y151834D01*
X11367Y283186D02*
X145366Y149187D01*
X11367Y276001D02*
X143283Y144085D01*
X11367Y304738D02*
X189431Y126674D01*
X11367Y297554D02*
X183690Y125231D01*
X11367Y176604D02*
X177599Y342836D01*
X11367Y326291D02*
X143272Y194386D01*
X11367Y104762D02*
X239103Y332497D01*
X11367Y111946D02*
X234375Y334954D01*
X11367Y61657D02*
X143315Y193604D01*
X43800Y43800D02*
X143280Y143280D01*
X39732Y46916D02*
X120317Y127501D01*
X46916Y39732D02*
X145334Y138150D01*
X43800Y43800D02*
X143280Y143280D01*
X11367Y268817D02*
X115832Y164352D01*
X11367Y247264D02*
X115236Y143395D01*
X11367Y119130D02*
X121405Y229168D01*
X11367Y126314D02*
X114776Y229724D01*
X11367Y140683D02*
X111018Y240333D01*
X11367Y240080D02*
X111311Y140136D01*
X11367Y232896D02*
X110135Y134128D01*
X11367Y133499D02*
X111240Y233372D01*
X11367Y54472D02*
X110689Y153795D01*
X11367Y340659D02*
X111229Y240797D01*
X11367Y333475D02*
X111042Y233800D01*
X11367Y261633D02*
X111754Y161246D01*
X11367Y254449D02*
X110307Y155509D01*
X27844Y49397D02*
X110709Y132261D01*
X34598Y48966D02*
X114081Y128449D01*
X11367Y60475D02*
X23456Y48386D01*
X11367Y53291D02*
X18727Y45931D01*
X11367Y46107D02*
X14995Y42479D01*
X11367Y74843D02*
X38782Y47428D01*
X11367Y67659D02*
X29516Y49510D01*
X11367Y47288D02*
X113744Y149665D01*
X11367Y40104D02*
X111171Y139908D01*
X11367Y211343D02*
X211343Y11367D01*
X11367Y204159D02*
X204159Y11367D01*
X11367Y196975D02*
X196975Y11367D01*
X11367Y189791D02*
X189791Y11367D01*
X11367Y182607D02*
X182607Y11367D01*
X11367Y319107D02*
X319107Y11367D01*
X11367Y311922D02*
X311922Y11367D01*
X11367Y225712D02*
X225712Y11367D01*
X11367Y218528D02*
X218528Y11367D01*
X11367Y146685D02*
X146685Y11367D01*
X48966Y34598D02*
X149847Y135478D01*
X40104Y11367D02*
X143873Y115136D01*
X54472Y11367D02*
X153122Y110017D01*
X47288Y11367D02*
X147126Y111205D01*
X11367Y175422D02*
X175422Y11367D01*
X11367Y168238D02*
X168238Y11367D01*
X11367Y161054D02*
X161054Y11367D01*
X11367Y153870D02*
X153870Y11367D01*
X11367Y110765D02*
X110765Y11367D01*
X11367Y103580D02*
X103580Y11367D01*
X11367Y96396D02*
X96396Y11367D01*
X11367Y89212D02*
X89212Y11367D01*
X11367Y82028D02*
X82028Y11367D01*
X11367Y139501D02*
X139501Y11367D01*
X11367Y132317D02*
X132317Y11367D01*
X11367Y125133D02*
X125133Y11367D01*
X11367Y117949D02*
X117949Y11367D01*
X47428Y38782D02*
X74843Y11367D01*
X45931Y18727D02*
X53291Y11367D01*
X42479Y14995D02*
X46107Y11367D01*
X49510Y29516D02*
X67659Y11367D01*
X48386Y23456D02*
X60475Y11367D01*
X11367Y38922D02*
X12227Y38062D01*
X38062Y12227D02*
X38922Y11367D01*
D41*
X556782Y210820D02*
X901700D01*
X395732Y462026D02*
X472694Y538988D01*
X729750D01*
X479806Y564642D02*
X780500D01*
X385826Y470662D02*
X479806Y564642D01*
X385826Y433324D02*
Y470662D01*
X354330Y401828D02*
X385826Y433324D01*
X370078Y272542D02*
X768742D01*
X815400Y319200D01*
X715700Y346500D02*
X790000Y420800D01*
X420922Y346500D02*
X715700D01*
X400812Y326390D02*
X420922Y346500D01*
X102108Y487680D02*
Y505206D01*
Y487680D02*
X110236Y479552D01*
X141224D01*
X231140Y389636D01*
X356362D01*
X387350Y358648D01*
X743596Y399796D02*
X764600Y420800D01*
X602416Y399796D02*
X743596D01*
X579120Y376500D02*
X602416Y399796D01*
X435682Y376500D02*
X579120D01*
X379984Y320802D02*
X435682Y376500D01*
X379984Y306578D02*
Y320802D01*
D43*
X840000Y830000D02*
D03*
Y880000D02*
D03*
X150000Y885000D02*
D03*
Y835000D02*
D03*
D44*
X570000Y330000D02*
D03*
Y360000D02*
D03*
Y390000D02*
D03*
Y420000D02*
D03*
X270000Y910000D02*
D03*
Y810000D02*
D03*
X739200Y319200D02*
D03*
X764600D02*
D03*
X790000D02*
D03*
X815400D02*
D03*
X840800D02*
D03*
Y420800D02*
D03*
X815400D02*
D03*
X790000D02*
D03*
X764600D02*
D03*
X739200D02*
D03*
D45*
X970000Y30000D02*
D03*
X30000D02*
D03*
X970000Y970000D02*
D03*
X30000D02*
D03*
D46*
X250800Y660000D02*
D03*
Y680000D02*
D03*
Y700000D02*
D03*
X200000Y720000D02*
D03*
Y680000D02*
D03*
Y660000D02*
D03*
D47*
X896000Y640000D02*
D03*
X870000D02*
D03*
X883000D02*
D03*
X813000D02*
D03*
X787000D02*
D03*
X800000D02*
D03*
X643000D02*
D03*
X617000D02*
D03*
X630000D02*
D03*
X726000D02*
D03*
X700000D02*
D03*
X713000D02*
D03*
D48*
X180000Y537000D02*
D03*
Y563000D02*
D03*
Y550000D02*
D03*
D49*
X348800Y902000D02*
D03*
X500000Y900000D02*
D03*
X550400D02*
D03*
X600800D02*
D03*
Y824000D02*
D03*
X550400D02*
D03*
X500000D02*
D03*
X348800D02*
D03*
D50*
X350000Y640000D02*
D03*
X240000Y340000D02*
D03*
X180000Y350000D02*
D03*
X300000Y500000D02*
D03*
X310000Y460000D02*
D03*
D51*
X460000Y420000D02*
D03*
X901700Y210820D02*
D03*
X556782D02*
D03*
X395732Y462026D02*
D03*
X729750Y538988D02*
D03*
X780500Y564642D02*
D03*
X354330Y401828D02*
D03*
X95288Y680212D02*
D03*
X279624Y240000D02*
D03*
X188468Y194450D02*
D03*
X339852Y255270D02*
D03*
X370078Y272542D02*
D03*
X430530Y60000D02*
D03*
X400812Y326390D02*
D03*
X325374Y405384D02*
D03*
X280924Y401066D02*
D03*
X815044Y580000D02*
D03*
X289306Y373888D02*
D03*
X151638Y194450D02*
D03*
X118618Y156464D02*
D03*
X294640Y352044D02*
D03*
X151638Y143650D02*
D03*
X325374Y335026D02*
D03*
X373380Y335788D02*
D03*
X118364Y135636D02*
D03*
X410972Y541274D02*
D03*
X430000Y427736D02*
D03*
X119634Y489750D02*
D03*
X102108Y505206D02*
D03*
X387350Y358648D02*
D03*
X361950Y440944D02*
D03*
X349504Y357124D02*
D03*
X151638Y118250D02*
D03*
X325374Y370332D02*
D03*
X118732Y237096D02*
D03*
X384048Y405384D02*
D03*
X349758Y297180D02*
D03*
X379984Y306578D02*
D03*
X320294Y44704D02*
D03*
X188468Y118364D02*
D03*
D52*
X130000Y411000D02*
D03*
Y460000D02*
D03*
D53*
X890000Y910000D02*
D03*
Y800000D02*
D03*
X50000Y805000D02*
D03*
Y915000D02*
D03*
M02*
