ISO-10303-21;
HEADER;
FILE_DESCRIPTION (( 'STEP AP214' ),
    '1' );
FILE_NAME ('do-41.STEP',
    '2014-04-10T18:09:26',
    ( '' ),
    ( '' ),
    'SwSTEP 2.0',
    'SolidWorks 2013',
    '' );
FILE_SCHEMA (( 'AUTOMOTIVE_DESIGN' ));
ENDSEC;

DATA;
#1 =( NAMED_UNIT ( * ) SI_UNIT ( $, .STERADIAN. ) SOLID_ANGLE_UNIT ( ) );
#2 = FILL_AREA_STYLE_COLOUR ( '', #19 ) ;
#3 = MECHANICAL_DESIGN_GEOMETRIC_PRESENTATION_REPRESENTATION (  '', ( #674 ), #40 ) ;
#4 = COLOUR_RGB ( '',0.2509803921568627400, 0.2509803921568627400, 0.2509803921568627400 ) ;
#5 = STYLED_ITEM ( 'NONE', ( #63 ), #454 ) ;
#6 = PRESENTATION_STYLE_ASSIGNMENT (( #294 ) ) ;
#7 = ORIENTED_EDGE ( 'NONE', *, *, #631, .F. ) ;
#8 = CARTESIAN_POINT ( 'NONE',  ( 0.0000000000000000000, -0.9999999999999997800, 2.499999999999999600 ) ) ;
#9 = SURFACE_SIDE_STYLE ('',( #464 ) ) ;
#10 = SHAPE_DEFINITION_REPRESENTATION ( #53, #473 ) ;
#11 = AXIS2_PLACEMENT_3D ( 'NONE', #61, #458, #114 ) ;
#12 = STYLED_ITEM ( 'NONE', ( #251 ), #298 ) ;
#13 = DIRECTION ( 'NONE',  ( 1.000000000000000000, 0.0000000000000000000, 0.0000000000000000000 ) ) ;
#14 = SURFACE_STYLE_FILL_AREA ( #518 ) ;
#15 = ORIENTED_EDGE ( 'NONE', *, *, #489, .F. ) ;
#16 =( GEOMETRIC_REPRESENTATION_CONTEXT ( 3 ) GLOBAL_UNCERTAINTY_ASSIGNED_CONTEXT ( ( #526 ) ) GLOBAL_UNIT_ASSIGNED_CONTEXT ( ( #637, #693, #1 ) ) REPRESENTATION_CONTEXT ( 'NONE', 'WORKASPACE' ) );
#17 = CIRCLE ( 'NONE', #68, 0.4000000000000001300 ) ;
#18 = EDGE_LOOP ( 'NONE', ( #345, #539, #282, #478 ) ) ;
#19 = COLOUR_RGB ( '',0.2509803921568627400, 0.2509803921568627400, 0.2509803921568627400 ) ;
#20 = DIRECTION ( 'NONE',  ( 0.0000000000000000000, 0.0000000000000000000, 1.000000000000000000 ) ) ;
#21 = AXIS2_PLACEMENT_3D ( 'NONE', #484, #140, #543 ) ;
#22 = ORIENTED_EDGE ( 'NONE', *, *, #587, .F. ) ;
#23 = FACE_OUTER_BOUND ( 'NONE', #588, .T. ) ;
#24 =( NAMED_UNIT ( * ) PLANE_ANGLE_UNIT ( ) SI_UNIT ( $, .RADIAN. ) );
#25 = MECHANICAL_DESIGN_GEOMETRIC_PRESENTATION_REPRESENTATION (  '', ( #62 ), #16 ) ;
#26 = UNCERTAINTY_MEASURE_WITH_UNIT (LENGTH_MEASURE( 1.000000000000000100E-005 ), #451, 'distance_accuracy_value', 'NONE');
#27 = EDGE_LOOP ( 'NONE', ( #720, #275, #77, #39 ) ) ;
#28 = PRESENTATION_LAYER_ASSIGNMENT (  '', '', ( #62 ) ) ;
#29 = SURFACE_SIDE_STYLE ('',( #475 ) ) ;
#30 = CARTESIAN_POINT ( 'NONE',  ( -4.898587196589414300E-017, -1.000000000000000200, 1.499999999999999800 ) ) ;
#31 = DIRECTION ( 'NONE',  ( 1.000000000000000000, 0.0000000000000000000, 0.0000000000000000000 ) ) ;
#32 = DIRECTION ( 'NONE',  ( 1.000000000000000000, 0.0000000000000000000, 0.0000000000000000000 ) ) ;
#33 = SURFACE_STYLE_USAGE ( .BOTH. , #373 ) ;
#34 = CARTESIAN_POINT ( 'NONE',  ( 4.898587196589415500E-017, -0.4000000000000003000, 1.500000000000000000 ) ) ;
#35 = APPLICATION_CONTEXT ( 'automotive_design' ) ;
#36 = ADVANCED_FACE ( 'NONE', ( #274 ), #328, .T. ) ;
#37 =( NAMED_UNIT ( * ) PLANE_ANGLE_UNIT ( ) SI_UNIT ( $, .RADIAN. ) );
#38 = CARTESIAN_POINT ( 'NONE',  ( 1.000000000000000200, 1.224646799147353500E-016, 2.000000000000000000 ) ) ;
#39 = ORIENTED_EDGE ( 'NONE', *, *, #413, .F. ) ;
#40 =( GEOMETRIC_REPRESENTATION_CONTEXT ( 3 ) GLOBAL_UNCERTAINTY_ASSIGNED_CONTEXT ( ( #444 ) ) GLOBAL_UNIT_ASSIGNED_CONTEXT ( ( #82, #487, #145 ) ) REPRESENTATION_CONTEXT ( 'NONE', 'WORKASPACE' ) );
#41 =( REPRESENTATION_RELATIONSHIP ('NONE','NONE', #295, #473 ) REPRESENTATION_RELATIONSHIP_WITH_TRANSFORMATION ( #146 )SHAPE_REPRESENTATION_RELATIONSHIP( ) );
#42 = SURFACE_STYLE_USAGE ( .BOTH. , #380 ) ;
#43 = DIRECTION ( 'NONE',  ( 0.0000000000000000000, 0.0000000000000000000, 1.000000000000000000 ) ) ;
#44 =( NAMED_UNIT ( * ) PLANE_ANGLE_UNIT ( ) SI_UNIT ( $, .RADIAN. ) );
#45 = CARTESIAN_POINT ( 'NONE',  ( 0.0000000000000000000, -3.500000000000000400, 2.499999999999999100 ) ) ;
#46 = AXIS2_PLACEMENT_3D ( 'NONE', #479, #535, #651 ) ;
#47 = AXIS2_PLACEMENT_3D ( 'NONE', #8, #182, #579 ) ;
#48 = CIRCLE ( 'NONE', #11, 0.4000000000000001300 ) ;
#49 = ORIENTED_EDGE ( 'NONE', *, *, #481, .F. ) ;
#50 = CYLINDRICAL_SURFACE ( 'NONE', #54, 0.4000000000000001300 ) ;
#51 =( NAMED_UNIT ( * ) PLANE_ANGLE_UNIT ( ) SI_UNIT ( $, .RADIAN. ) );
#52 = ADVANCED_BREP_SHAPE_REPRESENTATION ( '', ( #397, #432 ), #634 ) ;
#53 = PRODUCT_DEFINITION_SHAPE ( 'NONE', 'NONE',  #415 ) ;
#54 = AXIS2_PLACEMENT_3D ( 'NONE', #541, #658, #139 ) ;
#55 = PRESENTATION_STYLE_ASSIGNMENT (( #238 ) ) ;
#56 = DIRECTION ( 'NONE',  ( 0.0000000000000000000, 0.0000000000000000000, 1.000000000000000000 ) ) ;
#57 = FACE_OUTER_BOUND ( 'NONE', #178, .T. ) ;
#58 = CIRCLE ( 'NONE', #277, 1.004999999999999900 ) ;
#59 = EDGE_LOOP ( 'NONE', ( #255, #87, #630, #22 ) ) ;
#60 = ADVANCED_FACE ( 'NONE', ( #717 ), #410, .T. ) ;
#61 = CARTESIAN_POINT ( 'NONE',  ( 0.0000000000000000000, 0.0000000000000000000, 0.0000000000000000000 ) ) ;
#62 = STYLED_ITEM ( 'NONE', ( #628 ), #266 ) ;
#63 = PRESENTATION_STYLE_ASSIGNMENT (( #576 ) ) ;
#64 = VERTEX_POINT ( 'NONE', #557 ) ;
#65 = CARTESIAN_POINT ( 'NONE',  ( 0.0000000000000000000, 0.0000000000000000000, 2.000000000000000000 ) ) ;
#66 = DIRECTION ( 'NONE',  ( 0.0000000000000000000, 0.0000000000000000000, -1.000000000000000000 ) ) ;
#67 = FILL_AREA_STYLE ('',( #411 ) ) ;
#68 = AXIS2_PLACEMENT_3D ( 'NONE', #279, #691, #339 ) ;
#69 = ORIENTED_EDGE ( 'NONE', *, *, #564, .F. ) ;
#70 = FACE_OUTER_BOUND ( 'NONE', #606, .T. ) ;
#71 = CONTEXT_DEPENDENT_SHAPE_REPRESENTATION ( #93, #472 ) ;
#72 = ADVANCED_FACE ( 'NONE', ( #569 ), #646, .T. ) ;
#73 = FACE_OUTER_BOUND ( 'NONE', #59, .T. ) ;
#74 = SURFACE_STYLE_FILL_AREA ( #724 ) ;
#75 = ORIENTED_EDGE ( 'NONE', *, *, #567, .F. ) ;
#76 = DIRECTION ( 'NONE',  ( 0.0000000000000000000, 0.0000000000000000000, 1.000000000000000000 ) ) ;
#77 = ORIENTED_EDGE ( 'NONE', *, *, #544, .F. ) ;
#78 =( GEOMETRIC_REPRESENTATION_CONTEXT ( 3 ) GLOBAL_UNCERTAINTY_ASSIGNED_CONTEXT ( ( #220 ) ) GLOBAL_UNIT_ASSIGNED_CONTEXT ( ( #702, #24, #299 ) ) REPRESENTATION_CONTEXT ( 'NONE', 'WORKASPACE' ) );
#79 = SHAPE_DEFINITION_REPRESENTATION ( #371, #613 ) ;
#80 = DIRECTION ( 'NONE',  ( 0.0000000000000000000, 0.0000000000000000000, 1.000000000000000000 ) ) ;
#81 = MECHANICAL_DESIGN_GEOMETRIC_PRESENTATION_REPRESENTATION (  '', ( #107 ), #78 ) ;
#82 =( LENGTH_UNIT ( ) NAMED_UNIT ( * ) SI_UNIT ( .MILLI., .METRE. ) );
#83 = DIRECTION ( 'NONE',  ( 0.0000000000000000000, 0.0000000000000000000, -1.000000000000000000 ) ) ;
#84 = AXIS2_PLACEMENT_3D ( 'NONE', #422, #80, #485 ) ;
#85 = SHAPE_REPRESENTATION_RELATIONSHIP ( 'NONE' , 'NONE' ,  #473, #230 ) ;
#86 = DIRECTION ( 'NONE',  ( -6.982962677686266700E-015, 0.0000000000000000000, -1.000000000000000000 ) ) ;
#87 = ORIENTED_EDGE ( 'NONE', *, *, #712, .T. ) ;
#88 =( NAMED_UNIT ( * ) PLANE_ANGLE_UNIT ( ) SI_UNIT ( $, .RADIAN. ) );
#89 = DIRECTION ( 'NONE',  ( 0.0000000000000000000, 0.0000000000000000000, 1.000000000000000000 ) ) ;
#90 = PRODUCT_CONTEXT ( 'NONE', #35, 'mechanical' ) ;
#91 = DIRECTION ( 'NONE',  ( 0.0000000000000000000, 0.0000000000000000000, 1.000000000000000000 ) ) ;
#92 = AXIS2_PLACEMENT_3D ( 'NONE', #395, #56, #456 ) ;
#93 =( REPRESENTATION_RELATIONSHIP ('NONE','NONE', #295, #613 ) REPRESENTATION_RELATIONSHIP_WITH_TRANSFORMATION ( #167 )SHAPE_REPRESENTATION_RELATIONSHIP( ) );
#94 = FILL_AREA_STYLE_COLOUR ( '', #4 ) ;
#95 = DIRECTION ( 'NONE',  ( 0.0000000000000000000, -1.000000000000000000, -1.734723475976806800E-016 ) ) ;
#96 = AXIS2_PLACEMENT_3D ( 'NONE', #705, #594, #66 ) ;
#97 = COLOUR_RGB ( '',0.7921568627450980000, 0.8196078431372548800, 0.9333333333333333500 ) ;
#98 = COLOUR_RGB ( '',0.7529411764705882200, 0.7529411764705882200, 0.7529411764705882200 ) ;
#99 = TOROIDAL_SURFACE ( 'NONE', #136, 1.000000000000000000, 0.4000000000000001300 ) ;
#100 = DIRECTION ( 'NONE',  ( 1.000000000000000000, 0.0000000000000000000, 0.0000000000000000000 ) ) ;
#101 = CIRCLE ( 'NONE', #241, 1.400000000000000100 ) ;
#102 = ORIENTED_EDGE ( 'NONE', *, *, #652, .T. ) ;
#103 = CIRCLE ( 'NONE', #84, 1.000000000000000200 ) ;
#104 = ORIENTED_EDGE ( 'NONE', *, *, #370, .F. ) ;
#105 = FILL_AREA_STYLE_COLOUR ( '', #253 ) ;
#106 = PLANE ( 'NONE',  #189 ) ;
#107 = STYLED_ITEM ( 'NONE', ( #682 ), #205 ) ;
#108 = AXIS2_PLACEMENT_3D ( 'NONE', #183, #583, #234 ) ;
#109 = SURFACE_STYLE_FILL_AREA ( #627 ) ;
#110 = ORIENTED_EDGE ( 'NONE', *, *, #521, .F. ) ;
#111 = DIRECTION ( 'NONE',  ( 0.0000000000000000000, 0.0000000000000000000, 1.000000000000000000 ) ) ;
#112 = AXIS2_PLACEMENT_3D ( 'NONE', #45, #441, #100 ) ;
#113 = CARTESIAN_POINT ( 'NONE',  ( 0.0000000000000000000, -3.500000000000000400, 2.099999999999999200 ) ) ;
#114 = DIRECTION ( 'NONE',  ( 1.000000000000000000, 0.0000000000000000000, 0.0000000000000000000 ) ) ;
#115 = AXIS2_PLACEMENT_3D ( 'NONE', #612, #202, #611 ) ;
#116 = CARTESIAN_POINT ( 'NONE',  ( 1.000000000000000200, 1.224646799147353500E-016, 2.500000000000000000 ) ) ;
#117 = VERTEX_POINT ( 'NONE', #509 ) ;
#118 = LINE ( 'NONE', #237, #452 ) ;
#119 = CARTESIAN_POINT ( 'NONE',  ( -1.000000000000000200, 0.0000000000000000000, 2.500000000000000000 ) ) ;
#120 = AXIS2_PLACEMENT_3D ( 'NONE', #271, #175, #650 ) ;
#121 = DIRECTION ( 'NONE',  ( 1.000000000000000000, 0.0000000000000000000, 0.0000000000000000000 ) ) ;
#122 = AXIS2_PLACEMENT_3D ( 'NONE', #30, #428, #83 ) ;
#123 = AXIS2_PLACEMENT_3D ( 'NONE', #575, #177, #340 ) ;
#124 = SURFACE_STYLE_FILL_AREA ( #555 ) ;
#125 = CARTESIAN_POINT ( 'NONE',  ( 0.0000000000000000000, -3.500000000000000400, 2.499999999999999100 ) ) ;
#126 = PRESENTATION_LAYER_ASSIGNMENT (  '', '', ( #107 ) ) ;
#127 = SURFACE_STYLE_FILL_AREA ( #729 ) ;
#128 = PRESENTATION_STYLE_ASSIGNMENT (( #272 ) ) ;
#129 = CARTESIAN_POINT ( 'NONE',  ( 0.0000000000000000000, 0.0000000000000000000, 0.0000000000000000000 ) ) ;
#130 = ORIENTED_EDGE ( 'NONE', *, *, #446, .F. ) ;
#131 = CIRCLE ( 'NONE', #92, 1.000000000000000200 ) ;
#132 = CONTEXT_DEPENDENT_SHAPE_REPRESENTATION ( #41, #609 ) ;
#133 = AXIS2_PLACEMENT_3D ( 'NONE', #200, #602, #248 ) ;
#134 = ADVANCED_FACE ( 'NONE', ( #57, #209 ), #106, .F. ) ;
#135 = ADVANCED_FACE ( 'NONE', ( #161 ), #231, .T. ) ;
#136 = AXIS2_PLACEMENT_3D ( 'NONE', #534, #654, #592 ) ;
#137 = VERTEX_POINT ( 'NONE', #706 ) ;
#138 = ADVANCED_FACE ( 'NONE', ( #73 ), #99, .T. ) ;
#139 = DIRECTION ( 'NONE',  ( 0.0000000000000000000, 1.000000000000000000, 0.0000000000000000000 ) ) ;
#140 = DIRECTION ( 'NONE',  ( 0.0000000000000000000, 0.0000000000000000000, 1.000000000000000000 ) ) ;
#141 = VERTEX_POINT ( 'NONE', #359 ) ;
#142 = CARTESIAN_POINT ( 'NONE',  ( 0.0000000000000000000, -1.000000000000000000, 2.099999999999999600 ) ) ;
#143 = EDGE_LOOP ( 'NONE', ( #578, #698, #102, #239 ) ) ;
#144 =( GEOMETRIC_REPRESENTATION_CONTEXT ( 3 ) GLOBAL_UNCERTAINTY_ASSIGNED_CONTEXT ( ( #168 ) ) GLOBAL_UNIT_ASSIGNED_CONTEXT ( ( #357, #414, #296 ) ) REPRESENTATION_CONTEXT ( 'NONE', 'WORKASPACE' ) );
#145 =( NAMED_UNIT ( * ) SI_UNIT ( $, .STERADIAN. ) SOLID_ANGLE_UNIT ( ) );
#146 = ITEM_DEFINED_TRANSFORMATION ( 'NONE', 'NONE', #162,  #432 ) ;
#147 = DIRECTION ( 'NONE',  ( -0.0000000000000000000, 1.224646799147353200E-016, -1.000000000000000000 ) ) ;
#148 = CARTESIAN_POINT ( 'NONE',  ( 0.0000000000000000000, -1.000000000000000200, 1.499999999999999800 ) ) ;
#149 = PRODUCT_DEFINITION_SHAPE ( 'NONE', 'NONE',  #745 ) ;
#150 =( LENGTH_UNIT ( ) NAMED_UNIT ( * ) SI_UNIT ( .MILLI., .METRE. ) );
#151 = ADVANCED_FACE ( 'NONE', ( #523 ), #361, .T. ) ;
#152 = DIRECTION ( 'NONE',  ( 0.0000000000000000000, 0.0000000000000000000, 1.000000000000000000 ) ) ;
#153 = CARTESIAN_POINT ( 'NONE',  ( 0.0000000000000000000, 0.0000000000000000000, 0.0000000000000000000 ) ) ;
#154 = UNCERTAINTY_MEASURE_WITH_UNIT (LENGTH_MEASURE( 1.000000000000000100E-005 ), #382, 'distance_accuracy_value', 'NONE');
#155 = PRESENTATION_STYLE_ASSIGNMENT (( #620 ) ) ;
#156 = APPLICATION_PROTOCOL_DEFINITION ( 'draft international standard', 'automotive_design', 1998, #495 ) ;
#157 = CARTESIAN_POINT ( 'NONE',  ( -1.000000000000000200, 0.0000000000000000000, 1.000000000000000000 ) ) ;
#158 = DIRECTION ( 'NONE',  ( -1.000000000000000000, 0.0000000000000000000, 0.0000000000000000000 ) ) ;
#159 = FILL_AREA_STYLE_COLOUR ( '', #97 ) ;
#160 = SURFACE_STYLE_FILL_AREA ( #672 ) ;
#161 = FACE_OUTER_BOUND ( 'NONE', #143, .T. ) ;
#162 = AXIS2_PLACEMENT_3D ( 'NONE', #254, #663, #312 ) ;
#163 =( REPRESENTATION_RELATIONSHIP ('NONE','NONE', #295, #613 ) REPRESENTATION_RELATIONSHIP_WITH_TRANSFORMATION ( #598 )SHAPE_REPRESENTATION_RELATIONSHIP( ) );
#164 = ORIENTED_EDGE ( 'NONE', *, *, #603, .T. ) ;
#165 = SURFACE_STYLE_USAGE ( .BOTH. , #501 ) ;
#166 = FILL_AREA_STYLE_COLOUR ( '', #514 ) ;
#167 = ITEM_DEFINED_TRANSFORMATION ( 'NONE', 'NONE', #195,  #432 ) ;
#168 = UNCERTAINTY_MEASURE_WITH_UNIT (LENGTH_MEASURE( 1.000000000000000100E-005 ), #357, 'distance_accuracy_value', 'NONE');
#169 = MECHANICAL_DESIGN_GEOMETRIC_PRESENTATION_REPRESENTATION (  '', ( #196 ), #144 ) ;
#170 = CARTESIAN_POINT ( 'NONE',  ( 0.0000000000000000000, 0.0000000000000000000, 2.500000000000000000 ) ) ;
#171 = AXIS2_PLACEMENT_3D ( 'NONE', #129, #529, #563 ) ;
#172 = ORIENTED_EDGE ( 'NONE', *, *, #587, .T. ) ;
#173 = FILL_AREA_STYLE_COLOUR ( '', #436 ) ;
#174 = ORIENTED_EDGE ( 'NONE', *, *, #455, .T. ) ;
#175 = DIRECTION ( 'NONE',  ( -0.0000000000000000000, -0.0000000000000000000, -1.000000000000000000 ) ) ;
#176 = AXIS2_PLACEMENT_3D ( 'NONE', #201, #607, #250 ) ;
#177 = DIRECTION ( 'NONE',  ( -0.0000000000000000000, -0.0000000000000000000, -1.000000000000000000 ) ) ;
#178 = EDGE_LOOP ( 'NONE', ( #226, #548 ) ) ;
#179 = SURFACE_SIDE_STYLE ('',( #14 ) ) ;
#180 = CLOSED_SHELL ( 'NONE', ( #138, #653, #151, #474, #60, #595, #36, #661 ) ) ;
#181 = PRESENTATION_LAYER_ASSIGNMENT (  '', '', ( #196 ) ) ;
#182 = DIRECTION ( 'NONE',  ( 0.0000000000000000000, -1.000000000000000000, -1.734723475976806800E-016 ) ) ;
#183 = CARTESIAN_POINT ( 'NONE',  ( 0.0000000000000000000, -1.836970198721029900E-016, 1.500000000000000000 ) ) ;
#184 = ORIENTED_EDGE ( 'NONE', *, *, #660, .T. ) ;
#185 = DIRECTION ( 'NONE',  ( 1.000000000000000000, 0.0000000000000000000, 0.0000000000000000000 ) ) ;
#186 =( GEOMETRIC_REPRESENTATION_CONTEXT ( 3 ) GLOBAL_UNCERTAINTY_ASSIGNED_CONTEXT ( ( #723 ) ) GLOBAL_UNIT_ASSIGNED_CONTEXT ( ( #556, #218, #624 ) ) REPRESENTATION_CONTEXT ( 'NONE', 'WORKASPACE' ) );
#187 = CONTEXT_DEPENDENT_SHAPE_REPRESENTATION ( #163, #149 ) ;
#188 = SURFACE_SIDE_STYLE ('',( #127 ) ) ;
#189 = AXIS2_PLACEMENT_3D ( 'NONE', #225, #111, #224 ) ;
#190 = PRODUCT_DEFINITION_CONTEXT ( 'detailed design', #731, 'design' ) ;
#191 = UNCERTAINTY_MEASURE_WITH_UNIT (LENGTH_MEASURE( 1.000000000000000100E-005 ), #656, 'distance_accuracy_value', 'NONE');
#192 = MECHANICAL_DESIGN_GEOMETRIC_PRESENTATION_REPRESENTATION (  '', ( #281 ), #186 ) ;
#193 = ORIENTED_EDGE ( 'NONE', *, *, #532, .T. ) ;
#194 = CIRCLE ( 'NONE', #176, 1.000000000000000200 ) ;
#195 = AXIS2_PLACEMENT_3D ( 'NONE', #722, #372, #32 ) ;
#196 = STYLED_ITEM ( 'NONE', ( #6 ), #135 ) ;
#197 = FACE_OUTER_BOUND ( 'NONE', #496, .T. ) ;
#198 = EDGE_LOOP ( 'NONE', ( #110, #466, #310, #483 ) ) ;
#199 = AXIS2_PLACEMENT_3D ( 'NONE', #286, #694, #342 ) ;
#200 = CARTESIAN_POINT ( 'NONE',  ( 0.0000000000000000000, 0.0000000000000000000, 0.0000000000000000000 ) ) ;
#201 = CARTESIAN_POINT ( 'NONE',  ( 0.0000000000000000000, 0.0000000000000000000, 2.000000000000000000 ) ) ;
#202 = DIRECTION ( 'NONE',  ( 0.0000000000000000000, 0.0000000000000000000, 1.000000000000000000 ) ) ;
#203 = CARTESIAN_POINT ( 'NONE',  ( 0.0000000000000000000, 0.0000000000000000000, 2.000000000000000000 ) ) ;
#204 = DIRECTION ( 'NONE',  ( 0.0000000000000000000, 0.0000000000000000000, -1.000000000000000000 ) ) ;
#205 = ADVANCED_FACE ( 'NONE', ( #538 ), #351, .T. ) ;
#206 = AXIS2_PLACEMENT_3D ( 'NONE', #719, #369, #31 ) ;
#207 = CYLINDRICAL_SURFACE ( 'NONE', #480, 1.004999999999999900 ) ;
#208 =( NAMED_UNIT ( * ) SI_UNIT ( $, .STERADIAN. ) SOLID_ANGLE_UNIT ( ) );
#209 = FACE_BOUND ( 'NONE', #284, .T. ) ;
#210 = CARTESIAN_POINT ( 'NONE',  ( 0.0000000000000000000, 0.3999999999999999700, 1.500000000000000000 ) ) ;
#211 = CARTESIAN_POINT ( 'NONE',  ( 0.0000000000000000000, 0.0000000000000000000, 2.500000000000000000 ) ) ;
#212 = CIRCLE ( 'NONE', #354, 0.4000000000000001300 ) ;
#213 = ORIENTED_EDGE ( 'NONE', *, *, #701, .T. ) ;
#214 = PRODUCT_CONTEXT ( 'NONE', #316, 'mechanical' ) ;
#215 = CARTESIAN_POINT ( 'NONE',  ( -1.000000000000000200, 0.0000000000000000000, 2.000000000000000000 ) ) ;
#216 = SURFACE_SIDE_STYLE ('',( #124 ) ) ;
#217 = PRESENTATION_LAYER_ASSIGNMENT (  '', '', ( #281 ) ) ;
#218 =( NAMED_UNIT ( * ) PLANE_ANGLE_UNIT ( ) SI_UNIT ( $, .RADIAN. ) );
#219 = CARTESIAN_POINT ( 'NONE',  ( 0.0000000000000000000, -3.500000000000000400, 2.499999999999999100 ) ) ;
#220 = UNCERTAINTY_MEASURE_WITH_UNIT (LENGTH_MEASURE( 1.000000000000000100E-005 ), #702, 'distance_accuracy_value', 'NONE');
#221 = ORIENTED_EDGE ( 'NONE', *, *, #521, .T. ) ;
#222 = ORIENTED_EDGE ( 'NONE', *, *, #712, .F. ) ;
#223 =( GEOMETRIC_REPRESENTATION_CONTEXT ( 3 ) GLOBAL_UNCERTAINTY_ASSIGNED_CONTEXT ( ( #26 ) ) GLOBAL_UNIT_ASSIGNED_CONTEXT ( ( #451, #508, #738 ) ) REPRESENTATION_CONTEXT ( 'NONE', 'WORKASPACE' ) );
#224 = DIRECTION ( 'NONE',  ( 1.000000000000000000, 0.0000000000000000000, -0.0000000000000000000 ) ) ;
#225 = CARTESIAN_POINT ( 'NONE',  ( 0.0000000000000000000, 0.0000000000000000000, 1.000000000000000000 ) ) ;
#226 = ORIENTED_EDGE ( 'NONE', *, *, #714, .F. ) ;
#227 = LINE ( 'NONE', #116, #418 ) ;
#228 =( LENGTH_UNIT ( ) NAMED_UNIT ( * ) SI_UNIT ( .MILLI., .METRE. ) );
#229 = AXIS2_PLACEMENT_3D ( 'NONE', #429, #86, #490 ) ;
#230 = ADVANCED_BREP_SHAPE_REPRESENTATION ( '', ( #266, #432 ), #396 ) ;
#231 = CYLINDRICAL_SURFACE ( 'NONE', #120, 1.000000000000000200 ) ;
#232 = CIRCLE ( 'NONE', #199, 1.000000000000000200 ) ;
#233 = EDGE_LOOP ( 'NONE', ( #562, #130 ) ) ;
#234 = DIRECTION ( 'NONE',  ( 1.000000000000000000, 0.0000000000000000000, 0.0000000000000000000 ) ) ;
#235 = ORIENTED_EDGE ( 'NONE', *, *, #421, .T. ) ;
#236 = MECHANICAL_DESIGN_GEOMETRIC_PRESENTATION_REPRESENTATION (  '', ( #252 ), #223 ) ;
#237 = CARTESIAN_POINT ( 'NONE',  ( 4.898587196589414300E-017, -0.9999999999999997800, 2.899999999999999900 ) ) ;
#238 = SURFACE_STYLE_USAGE ( .BOTH. , #188 ) ;
#239 = ORIENTED_EDGE ( 'NONE', *, *, #692, .T. ) ;
#240 = CYLINDRICAL_SURFACE ( 'NONE', #123, 1.000000000000000200 ) ;
#241 = AXIS2_PLACEMENT_3D ( 'NONE', #148, #547, #204 ) ;
#242 = FILL_AREA_STYLE ('',( #173 ) ) ;
#243 = AXIS2_PLACEMENT_3D ( 'NONE', #170, #565, #447 ) ;
#244 = SURFACE_STYLE_FILL_AREA ( #619 ) ;
#245 = ORIENTED_EDGE ( 'NONE', *, *, #640, .T. ) ;
#246 = DIRECTION ( 'NONE',  ( -0.0000000000000000000, -0.0000000000000000000, -1.000000000000000000 ) ) ;
#247 = UNCERTAINTY_MEASURE_WITH_UNIT (LENGTH_MEASURE( 1.000000000000000100E-005 ), #377, 'distance_accuracy_value', 'NONE');
#248 = DIRECTION ( 'NONE',  ( 1.000000000000000000, 0.0000000000000000000, -0.0000000000000000000 ) ) ;
#249 = AXIS2_PLACEMENT_3D ( 'NONE', #718, #368, #488 ) ;
#250 = DIRECTION ( 'NONE',  ( 1.000000000000000000, 0.0000000000000000000, 0.0000000000000000000 ) ) ;
#251 = PRESENTATION_STYLE_ASSIGNMENT (( #393 ) ) ;
#252 = STYLED_ITEM ( 'NONE', ( #494 ), #134 ) ;
#253 = COLOUR_RGB ( '',0.2509803921568627400, 0.2509803921568627400, 0.2509803921568627400 ) ;
#254 = CARTESIAN_POINT ( 'NONE',  ( 0.0000000000000000000, 2.000000000000000000, 0.0000000000000000000 ) ) ;
#255 = ORIENTED_EDGE ( 'NONE', *, *, #481, .T. ) ;
#256 = SHAPE_REPRESENTATION_RELATIONSHIP ( 'NONE' , 'NONE' ,  #613, #52 ) ;
#257 = AXIS2_PLACEMENT_3D ( 'NONE', #211, #498, #158 ) ;
#258 = DIRECTION ( 'NONE',  ( 0.0000000000000000000, 0.0000000000000000000, 1.000000000000000000 ) ) ;
#259 = DIRECTION ( 'NONE',  ( 0.0000000000000000000, -1.000000000000000000, 5.053215498074302900E-016 ) ) ;
#260 = APPLICATION_PROTOCOL_DEFINITION ( 'draft international standard', 'automotive_design', 1998, #617 ) ;
#261 = CARTESIAN_POINT ( 'NONE',  ( 0.0000000000000000000, 0.0000000000000000000, 2.000000000000000000 ) ) ;
#262 = FILL_AREA_STYLE_COLOUR ( '', #98 ) ;
#263 =( LENGTH_UNIT ( ) NAMED_UNIT ( * ) SI_UNIT ( .MILLI., .METRE. ) );
#264 =( GEOMETRIC_REPRESENTATION_CONTEXT ( 3 ) GLOBAL_UNCERTAINTY_ASSIGNED_CONTEXT ( ( #604 ) ) GLOBAL_UNIT_ASSIGNED_CONTEXT ( ( #150, #549, #208 ) ) REPRESENTATION_CONTEXT ( 'NONE', 'WORKASPACE' ) );
#265 = FILL_AREA_STYLE_COLOUR ( '', #352 ) ;
#266 = MANIFOLD_SOLID_BREP ( 'Ressalto-extrusão2', #448 ) ;
#267 = LINE ( 'NONE', #343, #344 ) ;
#268 = ORIENTED_EDGE ( 'NONE', *, *, #652, .F. ) ;
#269 = PRESENTATION_STYLE_ASSIGNMENT (( #33 ) ) ;
#270 = AXIS2_PLACEMENT_3D ( 'NONE', #381, #43, #437 ) ;
#271 = CARTESIAN_POINT ( 'NONE',  ( 0.0000000000000000000, 0.0000000000000000000, 2.500000000000000000 ) ) ;
#272 = SURFACE_STYLE_USAGE ( .BOTH. , #687 ) ;
#273 =( NAMED_UNIT ( * ) SI_UNIT ( $, .STERADIAN. ) SOLID_ANGLE_UNIT ( ) );
#274 = FACE_OUTER_BOUND ( 'NONE', #689, .T. ) ;
#275 = ORIENTED_EDGE ( 'NONE', *, *, #599, .T. ) ;
#276 = PRODUCT_DEFINITION_CONTEXT ( 'detailed design', #495, 'design' ) ;
#277 = AXIS2_PLACEMENT_3D ( 'NONE', #665, #314, #725 ) ;
#278 = UNCERTAINTY_MEASURE_WITH_UNIT (LENGTH_MEASURE( 1.000000000000000100E-005 ), #263, 'distance_accuracy_value', 'NONE');
#279 = CARTESIAN_POINT ( 'NONE',  ( 0.0000000000000000000, -0.9999999999999997800, 2.499999999999999600 ) ) ;
#280 =( NAMED_UNIT ( * ) SI_UNIT ( $, .STERADIAN. ) SOLID_ANGLE_UNIT ( ) );
#281 = STYLED_ITEM ( 'NONE', ( #384 ), #397 ) ;
#282 = ORIENTED_EDGE ( 'NONE', *, *, #413, .T. ) ;
#283 = CIRCLE ( 'NONE', #542, 0.4000000000000001300 ) ;
#284 = EDGE_LOOP ( 'NONE', ( #364, #580 ) ) ;
#285 = PRESENTATION_LAYER_ASSIGNMENT (  '', '', ( #252 ) ) ;
#286 = CARTESIAN_POINT ( 'NONE',  ( 0.0000000000000000000, 0.0000000000000000000, 1.000000000000000000 ) ) ;
#287 = CARTESIAN_POINT ( 'NONE',  ( 1.000000000000000200, 1.224646799147353500E-016, 1.000000000000000000 ) ) ;
#288 = VERTEX_POINT ( 'NONE', #287 ) ;
#289 = DIRECTION ( 'NONE',  ( 0.0000000000000000000, -1.000000000000000000, -1.734723475976806800E-016 ) ) ;
#290 = PRESENTATION_LAYER_ASSIGNMENT (  '', '', ( #500 ) ) ;
#291 = LINE ( 'NONE', #119, #311 ) ;
#292 =( GEOMETRIC_REPRESENTATION_CONTEXT ( 3 ) GLOBAL_UNCERTAINTY_ASSIGNED_CONTEXT ( ( #247 ) ) GLOBAL_UNIT_ASSIGNED_CONTEXT ( ( #377, #37, #434 ) ) REPRESENTATION_CONTEXT ( 'NONE', 'WORKASPACE' ) );
#293 =( GEOMETRIC_REPRESENTATION_CONTEXT ( 3 ) GLOBAL_UNCERTAINTY_ASSIGNED_CONTEXT ( ( #420 ) ) GLOBAL_UNIT_ASSIGNED_CONTEXT ( ( #331, #739, #389 ) ) REPRESENTATION_CONTEXT ( 'NONE', 'WORKASPACE' ) );
#294 = SURFACE_STYLE_USAGE ( .BOTH. , #709 ) ;
#295 = SHAPE_REPRESENTATION ( 'do-41', ( #341, #162, #195, #229 ), #264 ) ;
#296 =( NAMED_UNIT ( * ) SI_UNIT ( $, .STERADIAN. ) SOLID_ANGLE_UNIT ( ) );
#297 = PRESENTATION_STYLE_ASSIGNMENT (( #728 ) ) ;
#298 = ADVANCED_FACE ( 'NONE', ( #715 ), #207, .T. ) ;
#299 =( NAMED_UNIT ( * ) SI_UNIT ( $, .STERADIAN. ) SOLID_ANGLE_UNIT ( ) );
#300 = ORIENTED_EDGE ( 'NONE', *, *, #660, .F. ) ;
#301 = PRODUCT ( 'terminal', 'terminal', '', ( #214 ) ) ;
#302 = CIRCLE ( 'NONE', #108, 0.4000000000000001300 ) ;
#303 = CYLINDRICAL_SURFACE ( 'NONE', #47, 0.4000000000000001900 ) ;
#304 =( NAMED_UNIT ( * ) PLANE_ANGLE_UNIT ( ) SI_UNIT ( $, .RADIAN. ) );
#305 = UNCERTAINTY_MEASURE_WITH_UNIT (LENGTH_MEASURE( 1.000000000000000100E-005 ), #644, 'distance_accuracy_value', 'NONE');
#306 = MECHANICAL_DESIGN_GEOMETRIC_PRESENTATION_REPRESENTATION (  '', ( #356 ), #292 ) ;
#307 = MECHANICAL_DESIGN_GEOMETRIC_PRESENTATION_REPRESENTATION (  '', ( #347 ), #293 ) ;
#308 = COLOUR_RGB ( '',0.7921568627450980000, 0.8196078431372548800, 0.9333333333333333500 ) ;
#309 = PRESENTATION_LAYER_ASSIGNMENT (  '', '', ( #5 ) ) ;
#310 = ORIENTED_EDGE ( 'NONE', *, *, #564, .T. ) ;
#311 = VECTOR ( 'NONE', #522, 1000.000000000000000 ) ;
#312 = DIRECTION ( 'NONE',  ( 1.000000000000000000, 0.0000000000000000000, 0.0000000000000000000 ) ) ;
#313 = DIRECTION ( 'NONE',  ( -0.0000000000000000000, -0.0000000000000000000, -1.000000000000000000 ) ) ;
#314 = DIRECTION ( 'NONE',  ( 0.0000000000000000000, 0.0000000000000000000, 1.000000000000000000 ) ) ;
#315 = AXIS2_PLACEMENT_3D ( 'NONE', #431, #89, #493 ) ;
#316 = APPLICATION_CONTEXT ( 'automotive_design' ) ;
#317 = CARTESIAN_POINT ( 'NONE',  ( 1.000000000000000200, 1.224646799147353500E-016, 2.500000000000000000 ) ) ;
#318 = SURFACE_SIDE_STYLE ('',( #160 ) ) ;
#319 =( LENGTH_UNIT ( ) NAMED_UNIT ( * ) SI_UNIT ( .MILLI., .METRE. ) );
#320 = PRODUCT_CONTEXT ( 'NONE', #726, 'mechanical' ) ;
#321 = VERTEX_POINT ( 'NONE', #38 ) ;
#322 = CIRCLE ( 'NONE', #586, 1.004999999999999900 ) ;
#323 = ORIENTED_EDGE ( 'NONE', *, *, #621, .T. ) ;
#324 = DIRECTION ( 'NONE',  ( 1.000000000000000000, 0.0000000000000000000, 0.0000000000000000000 ) ) ;
#325 =( NAMED_UNIT ( * ) SI_UNIT ( $, .STERADIAN. ) SOLID_ANGLE_UNIT ( ) );
#326 = PRESENTATION_LAYER_ASSIGNMENT (  '', '', ( #356 ) ) ;
#327 = PRESENTATION_LAYER_ASSIGNMENT (  '', '', ( #347 ) ) ;
#328 = PLANE ( 'NONE',  #335 ) ;
#329 = AXIS2_PLACEMENT_3D ( 'NONE', #506, #680, #443 ) ;
#330 = ORIENTED_EDGE ( 'NONE', *, *, #567, .T. ) ;
#331 =( LENGTH_UNIT ( ) NAMED_UNIT ( * ) SI_UNIT ( .MILLI., .METRE. ) );
#332 = CIRCLE ( 'NONE', #349, 1.004999999999999900 ) ;
#333 = MECHANICAL_DESIGN_GEOMETRIC_PRESENTATION_REPRESENTATION (  '', ( #500 ), #366 ) ;
#334 = AXIS2_PLACEMENT_3D ( 'NONE', #492, #152, #551 ) ;
#335 = AXIS2_PLACEMENT_3D ( 'NONE', #219, #625, #445 ) ;
#336 = FILL_AREA_STYLE ('',( #166 ) ) ;
#337 =( NAMED_UNIT ( * ) PLANE_ANGLE_UNIT ( ) SI_UNIT ( $, .RADIAN. ) );
#338 = ORIENTED_EDGE ( 'NONE', *, *, #455, .F. ) ;
#339 = DIRECTION ( 'NONE',  ( 1.000000000000000000, 0.0000000000000000000, 0.0000000000000000000 ) ) ;
#340 = DIRECTION ( 'NONE',  ( -1.000000000000000000, 0.0000000000000000000, 0.0000000000000000000 ) ) ;
#341 = AXIS2_PLACEMENT_3D ( 'NONE', #153, #258, #668 ) ;
#342 = DIRECTION ( 'NONE',  ( 1.000000000000000000, 0.0000000000000000000, 0.0000000000000000000 ) ) ;
#343 = CARTESIAN_POINT ( 'NONE',  ( 1.004999999999999900, 1.230770033143089600E-016, 2.000000000000000000 ) ) ;
#344 = VECTOR ( 'NONE', #404, 1000.000000000000000 ) ;
#345 = ORIENTED_EDGE ( 'NONE', *, *, #599, .F. ) ;
#346 = CIRCLE ( 'NONE', #171, 0.4000000000000001300 ) ;
#347 = STYLED_ITEM ( 'NONE', ( #128 ), #72 ) ;
#348 = DIRECTION ( 'NONE',  ( 0.0000000000000000000, 0.0000000000000000000, 1.000000000000000000 ) ) ;
#349 = AXIS2_PLACEMENT_3D ( 'NONE', #65, #462, #121 ) ;
#350 = CARTESIAN_POINT ( 'NONE',  ( 0.0000000000000000000, 0.0000000000000000000, 2.500000000000000000 ) ) ;
#351 = PLANE ( 'NONE',  #46 ) ;
#352 = COLOUR_RGB ( '',1.000000000000000000, 1.000000000000000000, 1.000000000000000000 ) ;
#353 = SURFACE_STYLE_FILL_AREA ( #336 ) ;
#354 = AXIS2_PLACEMENT_3D ( 'NONE', #615, #259, #673 ) ;
#355 = ORIENTED_EDGE ( 'NONE', *, *, #370, .T. ) ;
#356 = STYLED_ITEM ( 'NONE', ( #297 ), #360 ) ;
#357 =( LENGTH_UNIT ( ) NAMED_UNIT ( * ) SI_UNIT ( .MILLI., .METRE. ) );
#358 = ADVANCED_FACE ( 'NONE', ( #513, #666 ), #376, .T. ) ;
#359 = CARTESIAN_POINT ( 'NONE',  ( 0.0000000000000000000, 0.4000000000000001900, 0.0000000000000000000 ) ) ;
#360 = ADVANCED_FACE ( 'NONE', ( #457 ), #537, .T. ) ;
#361 = CYLINDRICAL_SURFACE ( 'NONE', #96, 0.4000000000000001900 ) ;
#362 = VERTEX_POINT ( 'NONE', #215 ) ;
#363 = LINE ( 'NONE', #527, #388 ) ;
#364 = ORIENTED_EDGE ( 'NONE', *, *, #734, .T. ) ;
#365 = PLANE ( 'NONE',  #133 ) ;
#366 =( GEOMETRIC_REPRESENTATION_CONTEXT ( 3 ) GLOBAL_UNCERTAINTY_ASSIGNED_CONTEXT ( ( #423 ) ) GLOBAL_UNIT_ASSIGNED_CONTEXT ( ( #430, #88, #491 ) ) REPRESENTATION_CONTEXT ( 'NONE', 'WORKASPACE' ) );
#367 = FILL_AREA_STYLE ('',( #716 ) ) ;
#368 = DIRECTION ( 'NONE',  ( -0.0000000000000000000, 1.224646799147353200E-016, -1.000000000000000000 ) ) ;
#369 = DIRECTION ( 'NONE',  ( 0.0000000000000000000, 0.0000000000000000000, 1.000000000000000000 ) ) ;
#370 = EDGE_CURVE ( 'NONE', #117, #608, #399, .T. ) ;
#371 = PRODUCT_DEFINITION_SHAPE ( 'NONE', 'NONE',  #383 ) ;
#372 = DIRECTION ( 'NONE',  ( 0.0000000000000000000, 0.0000000000000000000, 1.000000000000000000 ) ) ;
#373 = SURFACE_SIDE_STYLE ('',( #74 ) ) ;
#374 = CIRCLE ( 'NONE', #315, 1.000000000000000200 ) ;
#375 = VERTEX_POINT ( 'NONE', #554 ) ;
#376 = PLANE ( 'NONE',  #334 ) ;
#377 =( LENGTH_UNIT ( ) NAMED_UNIT ( * ) SI_UNIT ( .MILLI., .METRE. ) );
#378 =( NAMED_UNIT ( * ) SI_UNIT ( $, .STERADIAN. ) SOLID_ANGLE_UNIT ( ) );
#379 = APPLICATION_PROTOCOL_DEFINITION ( 'draft international standard', 'automotive_design', 1998, #731 ) ;
#380 = SURFACE_SIDE_STYLE ('',( #667 ) ) ;
#381 = CARTESIAN_POINT ( 'NONE',  ( 0.0000000000000000000, -1.836970198721029900E-016, 1.500000000000000000 ) ) ;
#382 =( LENGTH_UNIT ( ) NAMED_UNIT ( * ) SI_UNIT ( .MILLI., .METRE. ) );
#383 = PRODUCT_DEFINITION ( 'UNKNOWN', '', #626, #511 ) ;
#384 = PRESENTATION_STYLE_ASSIGNMENT (( #165 ) ) ;
#385 = SURFACE_STYLE_FILL_AREA ( #67 ) ;
#386 = CIRCLE ( 'NONE', #417, 1.000000000000000200 ) ;
#387 = EDGE_LOOP ( 'NONE', ( #75, #164, #245, #268 ) ) ;
#388 = VECTOR ( 'NONE', #468, 1000.000000000000000 ) ;
#389 =( NAMED_UNIT ( * ) SI_UNIT ( $, .STERADIAN. ) SOLID_ANGLE_UNIT ( ) );
#390 =( NAMED_UNIT ( * ) SI_UNIT ( $, .STERADIAN. ) SOLID_ANGLE_UNIT ( ) );
#391 = FACE_OUTER_BOUND ( 'NONE', #540, .T. ) ;
#392 = ORIENTED_EDGE ( 'NONE', *, *, #507, .T. ) ;
#393 = SURFACE_STYLE_USAGE ( .BOTH. , #574 ) ;
#394 = CIRCLE ( 'NONE', #122, 0.5999999999999998700 ) ;
#395 = CARTESIAN_POINT ( 'NONE',  ( 0.0000000000000000000, 0.0000000000000000000, -2.500000000000000000 ) ) ;
#396 =( GEOMETRIC_REPRESENTATION_CONTEXT ( 3 ) GLOBAL_UNCERTAINTY_ASSIGNED_CONTEXT ( ( #638 ) ) GLOBAL_UNIT_ASSIGNED_CONTEXT ( ( #319, #730, #378 ) ) REPRESENTATION_CONTEXT ( 'NONE', 'WORKASPACE' ) );
#397 = MANIFOLD_SOLID_BREP ( 'Varredura2', #180 ) ;
#398 = FILL_AREA_STYLE_COLOUR ( '', #308 ) ;
#399 = CIRCLE ( 'NONE', #270, 0.4000000000000001300 ) ;
#400 = EDGE_CURVE ( 'NONE', #597, #439, #641, .T. ) ;
#401 = ORIENTED_EDGE ( 'NONE', *, *, #544, .T. ) ;
#402 = CARTESIAN_POINT ( 'NONE',  ( 1.000000000000000200, 1.224646799147353500E-016, 2.500000000000000000 ) ) ;
#403 = ORIENTED_EDGE ( 'NONE', *, *, #640, .F. ) ;
#404 = DIRECTION ( 'NONE',  ( -0.0000000000000000000, -0.0000000000000000000, -1.000000000000000000 ) ) ;
#405 = FILL_AREA_STYLE ('',( #531 ) ) ;
#406 = DIRECTION ( 'NONE',  ( 1.000000000000000000, 0.0000000000000000000, 0.0000000000000000000 ) ) ;
#407 = STYLED_ITEM ( 'NONE', ( #685 ), #645 ) ;
#408 = SURFACE_STYLE_FILL_AREA ( #405 ) ;
#409 =( GEOMETRIC_REPRESENTATION_CONTEXT ( 3 ) GLOBAL_UNCERTAINTY_ASSIGNED_CONTEXT ( ( #305 ) ) GLOBAL_UNIT_ASSIGNED_CONTEXT ( ( #644, #337, #390 ) ) REPRESENTATION_CONTEXT ( 'NONE', 'WORKASPACE' ) );
#410 = TOROIDAL_SURFACE ( 'NONE', #329, 1.000000000000000000, 0.4000000000000001300 ) ;
#411 = FILL_AREA_STYLE_COLOUR ( '', #695 ) ;
#412 = ORIENTED_EDGE ( 'NONE', *, *, #631, .T. ) ;
#413 = EDGE_CURVE ( 'NONE', #736, #439, #688, .T. ) ;
#414 =( NAMED_UNIT ( * ) PLANE_ANGLE_UNIT ( ) SI_UNIT ( $, .RADIAN. ) );
#415 = PRODUCT_DEFINITION ( 'UNKNOWN', '', #696, #190 ) ;
#416 = ORIENTED_EDGE ( 'NONE', *, *, #573, .T. ) ;
#417 = AXIS2_PLACEMENT_3D ( 'NONE', #350, #20, #406 ) ;
#418 = VECTOR ( 'NONE', #519, 1000.000000000000000 ) ;
#419 = CARTESIAN_POINT ( 'NONE',  ( 0.0000000000000000000, 0.0000000000000000000, -2.500000000000000000 ) ) ;
#420 = UNCERTAINTY_MEASURE_WITH_UNIT (LENGTH_MEASURE( 1.000000000000000100E-005 ), #331, 'distance_accuracy_value', 'NONE');
#421 = EDGE_CURVE ( 'NONE', #460, #427, #131, .T. ) ;
#422 = CARTESIAN_POINT ( 'NONE',  ( 0.0000000000000000000, 0.0000000000000000000, 2.500000000000000000 ) ) ;
#423 = UNCERTAINTY_MEASURE_WITH_UNIT (LENGTH_MEASURE( 1.000000000000000100E-005 ), #430, 'distance_accuracy_value', 'NONE');
#424 = VERTEX_POINT ( 'NONE', #733 ) ;
#425 = FACE_OUTER_BOUND ( 'NONE', #198, .T. ) ;
#426 = SURFACE_STYLE_USAGE ( .BOTH. , #29 ) ;
#427 = VERTEX_POINT ( 'NONE', #503 ) ;
#428 = DIRECTION ( 'NONE',  ( 1.000000000000000000, 0.0000000000000000000, 0.0000000000000000000 ) ) ;
#429 = CARTESIAN_POINT ( 'NONE',  ( 0.0000000000000000000, 2.000000000000000000, -2.500000000000000000 ) ) ;
#430 =( LENGTH_UNIT ( ) NAMED_UNIT ( * ) SI_UNIT ( .MILLI., .METRE. ) );
#431 = CARTESIAN_POINT ( 'NONE',  ( 0.0000000000000000000, 0.0000000000000000000, 1.000000000000000000 ) ) ;
#432 = AXIS2_PLACEMENT_3D ( 'NONE', #435, #91, #499 ) ;
#433 = APPLICATION_PROTOCOL_DEFINITION ( 'draft international standard', 'automotive_design', 1998, #35 ) ;
#434 =( NAMED_UNIT ( * ) SI_UNIT ( $, .STERADIAN. ) SOLID_ANGLE_UNIT ( ) );
#435 = CARTESIAN_POINT ( 'NONE',  ( 0.0000000000000000000, 0.0000000000000000000, 0.0000000000000000000 ) ) ;
#436 = COLOUR_RGB ( '',0.2509803921568627400, 0.2509803921568627400, 0.2509803921568627400 ) ;
#437 = DIRECTION ( 'NONE',  ( 1.000000000000000000, 0.0000000000000000000, 0.0000000000000000000 ) ) ;
#438 =( NAMED_UNIT ( * ) SI_UNIT ( $, .STERADIAN. ) SOLID_ANGLE_UNIT ( ) );
#439 = VERTEX_POINT ( 'NONE', #113 ) ;
#440 = EDGE_LOOP ( 'NONE', ( #516, #330 ) ) ;
#441 = DIRECTION ( 'NONE',  ( 0.0000000000000000000, -1.000000000000000000, 5.053215498074302900E-016 ) ) ;
#442 = EDGE_CURVE ( 'NONE', #137, #736, #17, .T. ) ;
#443 = DIRECTION ( 'NONE',  ( 0.0000000000000000000, 0.0000000000000000000, -1.000000000000000000 ) ) ;
#444 = UNCERTAINTY_MEASURE_WITH_UNIT (LENGTH_MEASURE( 1.000000000000000100E-005 ), #82, 'distance_accuracy_value', 'NONE');
#445 = DIRECTION ( 'NONE',  ( 1.000000000000000000, 0.0000000000000000000, 0.0000000000000000000 ) ) ;
#446 = EDGE_CURVE ( 'NONE', #533, #141, #48, .T. ) ;
#447 = DIRECTION ( 'NONE',  ( -1.000000000000000000, 0.0000000000000000000, 0.0000000000000000000 ) ) ;
#448 = CLOSED_SHELL ( 'NONE', ( #360, #298, #72, #135, #205, #358, #134, #600, #645, #454 ) ) ;
#449 = CYLINDRICAL_SURFACE ( 'NONE', #249, 0.4000000000000001300 ) ;
#450 = ORIENTED_EDGE ( 'NONE', *, *, #465, .F. ) ;
#451 =( LENGTH_UNIT ( ) NAMED_UNIT ( * ) SI_UNIT ( .MILLI., .METRE. ) );
#452 = VECTOR ( 'NONE', #289, 1000.000000000000000 ) ;
#453 = AXIS2_PLACEMENT_3D ( 'NONE', #261, #676, #324 ) ;
#454 = ADVANCED_FACE ( 'NONE', ( #23 ), #240, .T. ) ;
#455 = EDGE_CURVE ( 'NONE', #288, #427, #227, .T. ) ;
#456 = DIRECTION ( 'NONE',  ( 1.000000000000000000, 0.0000000000000000000, 0.0000000000000000000 ) ) ;
#457 = FACE_OUTER_BOUND ( 'NONE', #571, .T. ) ;
#458 = DIRECTION ( 'NONE',  ( 0.0000000000000000000, 0.0000000000000000000, 1.000000000000000000 ) ) ;
#459 = COLOUR_RGB ( '',1.000000000000000000, 1.000000000000000000, 1.000000000000000000 ) ;
#460 = VERTEX_POINT ( 'NONE', #461 ) ;
#461 = CARTESIAN_POINT ( 'NONE',  ( -1.000000000000000200, 0.0000000000000000000, -2.500000000000000000 ) ) ;
#462 = DIRECTION ( 'NONE',  ( 0.0000000000000000000, 0.0000000000000000000, 1.000000000000000000 ) ) ;
#463 = COLOUR_RGB ( '',0.7529411764705882200, 0.7529411764705882200, 0.7529411764705882200 ) ;
#464 = SURFACE_STYLE_FILL_AREA ( #520 ) ;
#465 = EDGE_CURVE ( 'NONE', #288, #643, #232, .T. ) ;
#466 = ORIENTED_EDGE ( 'NONE', *, *, #701, .F. ) ;
#467 = UNCERTAINTY_MEASURE_WITH_UNIT (LENGTH_MEASURE( 1.000000000000000100E-005 ), #690, 'distance_accuracy_value', 'NONE');
#468 = DIRECTION ( 'NONE',  ( -0.0000000000000000000, -0.0000000000000000000, -1.000000000000000000 ) ) ;
#469 =( GEOMETRIC_REPRESENTATION_CONTEXT ( 3 ) GLOBAL_UNCERTAINTY_ASSIGNED_CONTEXT ( ( #512 ) ) GLOBAL_UNIT_ASSIGNED_CONTEXT ( ( #228, #636, #280 ) ) REPRESENTATION_CONTEXT ( 'NONE', 'WORKASPACE' ) );
#470 = FACE_OUTER_BOUND ( 'NONE', #18, .T. ) ;
#471 = SURFACE_STYLE_USAGE ( .BOTH. , #589 ) ;
#472 = PRODUCT_DEFINITION_SHAPE ( 'NONE', 'NONE',  #744 ) ;
#473 = SHAPE_REPRESENTATION ( 'corpo', ( #432 ), #396 ) ;
#474 = ADVANCED_FACE ( 'NONE', ( #470 ), #303, .T. ) ;
#475 = SURFACE_STYLE_FILL_AREA ( #367 ) ;
#476 = STYLED_ITEM ( 'NONE', ( #155 ), #230 ) ;
#477 = MECHANICAL_DESIGN_GEOMETRIC_PRESENTATION_REPRESENTATION (  '', ( #558 ), #409 ) ;
#478 = ORIENTED_EDGE ( 'NONE', *, *, #400, .F. ) ;
#479 = CARTESIAN_POINT ( 'NONE',  ( 0.0000000000000000000, 0.0000000000000000000, 2.500000000000000000 ) ) ;
#480 = AXIS2_PLACEMENT_3D ( 'NONE', #566, #740, #545 ) ;
#481 = EDGE_CURVE ( 'NONE', #608, #117, #302, .T. ) ;
#482 = DIRECTION ( 'NONE',  ( 1.000000000000000000, 0.0000000000000000000, -0.0000000000000000000 ) ) ;
#483 = ORIENTED_EDGE ( 'NONE', *, *, #714, .T. ) ;
#484 = CARTESIAN_POINT ( 'NONE',  ( 0.0000000000000000000, 0.0000000000000000000, -2.500000000000000000 ) ) ;
#485 = DIRECTION ( 'NONE',  ( 1.000000000000000000, 0.0000000000000000000, 0.0000000000000000000 ) ) ;
#486 = AXIS2_PLACEMENT_3D ( 'NONE', #203, #313, #550 ) ;
#487 =( NAMED_UNIT ( * ) PLANE_ANGLE_UNIT ( ) SI_UNIT ( $, .RADIAN. ) );
#488 = DIRECTION ( 'NONE',  ( 0.0000000000000000000, 1.000000000000000000, 0.0000000000000000000 ) ) ;
#489 = EDGE_CURVE ( 'NONE', #643, #460, #291, .T. ) ;
#490 = DIRECTION ( 'NONE',  ( -1.000000000000000000, 0.0000000000000000000, 6.982962677686266700E-015 ) ) ;
#491 =( NAMED_UNIT ( * ) SI_UNIT ( $, .STERADIAN. ) SOLID_ANGLE_UNIT ( ) );
#492 = CARTESIAN_POINT ( 'NONE',  ( 0.0000000000000000000, 0.0000000000000000000, 2.000000000000000000 ) ) ;
#493 = DIRECTION ( 'NONE',  ( 1.000000000000000000, 0.0000000000000000000, 0.0000000000000000000 ) ) ;
#494 = PRESENTATION_STYLE_ASSIGNMENT (( #510 ) ) ;
#495 = APPLICATION_CONTEXT ( 'automotive_design' ) ;
#496 = EDGE_LOOP ( 'NONE', ( #735, #300 ) ) ;
#497 = FILL_AREA_STYLE ('',( #618 ) ) ;
#498 = DIRECTION ( 'NONE',  ( -0.0000000000000000000, -0.0000000000000000000, -1.000000000000000000 ) ) ;
#499 = DIRECTION ( 'NONE',  ( 1.000000000000000000, 0.0000000000000000000, 0.0000000000000000000 ) ) ;
#500 = STYLED_ITEM ( 'NONE', ( #269 ), #600 ) ;
#501 = SURFACE_SIDE_STYLE ('',( #244 ) ) ;
#502 = PRODUCT_DEFINITION ( 'UNKNOWN', '', #536, #276 ) ;
#503 = CARTESIAN_POINT ( 'NONE',  ( 1.000000000000000200, 1.224646799147353500E-016, -2.500000000000000000 ) ) ;
#504 = PRESENTATION_STYLE_ASSIGNMENT (( #426 ) ) ;
#505 = VERTEX_POINT ( 'NONE', #402 ) ;
#506 = CARTESIAN_POINT ( 'NONE',  ( 0.0000000000000000000, -1.000000000000000200, 1.499999999999999800 ) ) ;
#507 = EDGE_CURVE ( 'NONE', #64, #424, #332, .T. ) ;
#508 =( NAMED_UNIT ( * ) PLANE_ANGLE_UNIT ( ) SI_UNIT ( $, .RADIAN. ) );
#509 = CARTESIAN_POINT ( 'NONE',  ( 0.0000000000000000000, 0.3999999999999999700, 1.500000000000000000 ) ) ;
#510 = SURFACE_STYLE_USAGE ( .BOTH. , #742 ) ;
#511 = PRODUCT_DEFINITION_CONTEXT ( 'detailed design', #617, 'design' ) ;
#512 = UNCERTAINTY_MEASURE_WITH_UNIT (LENGTH_MEASURE( 1.000000000000000100E-005 ), #228, 'distance_accuracy_value', 'NONE');
#513 = FACE_OUTER_BOUND ( 'NONE', #699, .T. ) ;
#514 = COLOUR_RGB ( '',1.000000000000000000, 1.000000000000000000, 1.000000000000000000 ) ;
#515 = FACE_OUTER_BOUND ( 'NONE', #233, .T. ) ;
#516 = ORIENTED_EDGE ( 'NONE', *, *, #683, .T. ) ;
#517 = PRESENTATION_LAYER_ASSIGNMENT (  '', '', ( #476 ) ) ;
#518 = FILL_AREA_STYLE ('',( #2 ) ) ;
#519 = DIRECTION ( 'NONE',  ( -0.0000000000000000000, -0.0000000000000000000, -1.000000000000000000 ) ) ;
#520 = FILL_AREA_STYLE ('',( #398 ) ) ;
#521 = EDGE_CURVE ( 'NONE', #64, #375, #267, .T. ) ;
#522 = DIRECTION ( 'NONE',  ( -0.0000000000000000000, -0.0000000000000000000, -1.000000000000000000 ) ) ;
#523 = FACE_OUTER_BOUND ( 'NONE', #27, .T. ) ;
#524 = ORIENTED_EDGE ( 'NONE', *, *, #507, .F. ) ;
#525 = VERTEX_POINT ( 'NONE', #584 ) ;
#526 = UNCERTAINTY_MEASURE_WITH_UNIT (LENGTH_MEASURE( 1.000000000000000100E-005 ), #637, 'distance_accuracy_value', 'NONE');
#527 = CARTESIAN_POINT ( 'NONE',  ( -1.004999999999999900, 0.0000000000000000000, 2.000000000000000000 ) ) ;
#528 = DIRECTION ( 'NONE',  ( 0.0000000000000000000, -1.000000000000000000, 5.053215498074302900E-016 ) ) ;
#529 = DIRECTION ( 'NONE',  ( 0.0000000000000000000, 0.0000000000000000000, 1.000000000000000000 ) ) ;
#530 = PRESENTATION_LAYER_ASSIGNMENT (  '', '', ( #407 ) ) ;
#531 = FILL_AREA_STYLE_COLOUR ( '', #568 ) ;
#532 = EDGE_CURVE ( 'NONE', #375, #710, #322, .T. ) ;
#533 = VERTEX_POINT ( 'NONE', #639 ) ;
#534 = CARTESIAN_POINT ( 'NONE',  ( 0.0000000000000000000, -1.000000000000000200, 1.499999999999999800 ) ) ;
#535 = DIRECTION ( 'NONE',  ( 0.0000000000000000000, 0.0000000000000000000, 1.000000000000000000 ) ) ;
#536 = PRODUCT_DEFINITION_FORMATION_WITH_SPECIFIED_SOURCE ( 'ANY', '', #707, .NOT_KNOWN. ) ;
#537 = CYLINDRICAL_SURFACE ( 'NONE', #257, 1.000000000000000200 ) ;
#538 = FACE_OUTER_BOUND ( 'NONE', #440, .T. ) ;
#539 = ORIENTED_EDGE ( 'NONE', *, *, #442, .T. ) ;
#540 = EDGE_LOOP ( 'NONE', ( #49, #412, #684, #657 ) ) ;
#541 = CARTESIAN_POINT ( 'NONE',  ( 0.0000000000000000000, -1.836970198721029900E-016, 1.500000000000000000 ) ) ;
#542 = AXIS2_PLACEMENT_3D ( 'NONE', #125, #528, #185 ) ;
#543 = DIRECTION ( 'NONE',  ( 1.000000000000000000, 0.0000000000000000000, 0.0000000000000000000 ) ) ;
#544 = EDGE_CURVE ( 'NONE', #439, #597, #283, .T. ) ;
#545 = DIRECTION ( 'NONE',  ( -1.000000000000000000, 0.0000000000000000000, 0.0000000000000000000 ) ) ;
#546 = CARTESIAN_POINT ( 'NONE',  ( 4.898587196589413700E-017, -3.500000000000000400, 2.899999999999999500 ) ) ;
#547 = DIRECTION ( 'NONE',  ( 1.000000000000000000, 0.0000000000000000000, 0.0000000000000000000 ) ) ;
#548 = ORIENTED_EDGE ( 'NONE', *, *, #532, .F. ) ;
#549 =( NAMED_UNIT ( * ) PLANE_ANGLE_UNIT ( ) SI_UNIT ( $, .RADIAN. ) );
#550 = DIRECTION ( 'NONE',  ( -1.000000000000000000, 0.0000000000000000000, 0.0000000000000000000 ) ) ;
#551 = DIRECTION ( 'NONE',  ( 1.000000000000000000, 0.0000000000000000000, -0.0000000000000000000 ) ) ;
#552 = MECHANICAL_DESIGN_GEOMETRIC_PRESENTATION_REPRESENTATION (  '', ( #476 ), #593 ) ;
#553 = APPLICATION_PROTOCOL_DEFINITION ( 'draft international standard', 'automotive_design', 1998, #316 ) ;
#554 = CARTESIAN_POINT ( 'NONE',  ( 1.004999999999999900, 1.230770033143089600E-016, 1.000000000000000000 ) ) ;
#555 = FILL_AREA_STYLE ('',( #159 ) ) ;
#556 =( LENGTH_UNIT ( ) NAMED_UNIT ( * ) SI_UNIT ( .MILLI., .METRE. ) );
#557 = CARTESIAN_POINT ( 'NONE',  ( 1.004999999999999900, 1.230770033143089600E-016, 2.000000000000000000 ) ) ;
#558 = STYLED_ITEM ( 'NONE', ( #55 ), #358 ) ;
#559 = LINE ( 'NONE', #317, #590 ) ;
#560 = EDGE_LOOP ( 'NONE', ( #669, #403 ) ) ;
#561 = CIRCLE ( 'NONE', #206, 1.004999999999999900 ) ;
#562 = ORIENTED_EDGE ( 'NONE', *, *, #573, .F. ) ;
#563 = DIRECTION ( 'NONE',  ( 1.000000000000000000, 0.0000000000000000000, 0.0000000000000000000 ) ) ;
#564 = EDGE_CURVE ( 'NONE', #424, #710, #363, .T. ) ;
#565 = DIRECTION ( 'NONE',  ( -0.0000000000000000000, -0.0000000000000000000, -1.000000000000000000 ) ) ;
#566 = CARTESIAN_POINT ( 'NONE',  ( 0.0000000000000000000, 0.0000000000000000000, 2.000000000000000000 ) ) ;
#567 = EDGE_CURVE ( 'NONE', #505, #525, #386, .T. ) ;
#568 = COLOUR_RGB ( '',1.000000000000000000, 1.000000000000000000, 1.000000000000000000 ) ;
#569 = FACE_OUTER_BOUND ( 'NONE', #387, .T. ) ;
#570 = MECHANICAL_DESIGN_GEOMETRIC_PRESENTATION_REPRESENTATION (  '', ( #407 ), #610 ) ;
#571 = EDGE_LOOP ( 'NONE', ( #450, #174, #184, #15 ) ) ;
#572 = LINE ( 'NONE', #210, #649 ) ;
#573 = EDGE_CURVE ( 'NONE', #141, #533, #346, .T. ) ;
#574 = SURFACE_SIDE_STYLE ('',( #408 ) ) ;
#575 = CARTESIAN_POINT ( 'NONE',  ( 0.0000000000000000000, 0.0000000000000000000, 2.500000000000000000 ) ) ;
#576 = SURFACE_STYLE_USAGE ( .BOTH. , #179 ) ;
#577 = LINE ( 'NONE', #601, #642 ) ;
#578 = ORIENTED_EDGE ( 'NONE', *, *, #603, .F. ) ;
#579 = DIRECTION ( 'NONE',  ( 0.0000000000000000000, 0.0000000000000000000, -1.000000000000000000 ) ) ;
#580 = ORIENTED_EDGE ( 'NONE', *, *, #465, .T. ) ;
#581 = SURFACE_STYLE_USAGE ( .BOTH. , #9 ) ;
#582 = PRODUCT_RELATED_PRODUCT_CATEGORY ( 'part', '', ( #707 ) ) ;
#583 = DIRECTION ( 'NONE',  ( 0.0000000000000000000, 0.0000000000000000000, 1.000000000000000000 ) ) ;
#584 = CARTESIAN_POINT ( 'NONE',  ( -1.000000000000000200, 0.0000000000000000000, 2.500000000000000000 ) ) ;
#585 = PRESENTATION_LAYER_ASSIGNMENT (  '', '', ( #558 ) ) ;
#586 = AXIS2_PLACEMENT_3D ( 'NONE', #700, #348, #13 ) ;
#587 = EDGE_CURVE ( 'NONE', #608, #736, #394, .T. ) ;
#588 = EDGE_LOOP ( 'NONE', ( #338, #704, #591, #235 ) ) ;
#589 = SURFACE_SIDE_STYLE ('',( #385 ) ) ;
#590 = VECTOR ( 'NONE', #727, 1000.000000000000000 ) ;
#591 = ORIENTED_EDGE ( 'NONE', *, *, #489, .T. ) ;
#592 = DIRECTION ( 'NONE',  ( 0.0000000000000000000, 0.0000000000000000000, -1.000000000000000000 ) ) ;
#593 =( GEOMETRIC_REPRESENTATION_CONTEXT ( 3 ) GLOBAL_UNCERTAINTY_ASSIGNED_CONTEXT ( ( #278 ) ) GLOBAL_UNIT_ASSIGNED_CONTEXT ( ( #263, #677, #325 ) ) REPRESENTATION_CONTEXT ( 'NONE', 'WORKASPACE' ) );
#594 = DIRECTION ( 'NONE',  ( 0.0000000000000000000, -1.000000000000000000, -1.734723475976806800E-016 ) ) ;
#595 = ADVANCED_FACE ( 'NONE', ( #70 ), #449, .T. ) ;
#596 = SURFACE_STYLE_FILL_AREA ( #242 ) ;
#597 = VERTEX_POINT ( 'NONE', #546 ) ;
#598 = ITEM_DEFINED_TRANSFORMATION ( 'NONE', 'NONE', #229,  #432 ) ;
#599 = EDGE_CURVE ( 'NONE', #137, #597, #118, .T. ) ;
#600 = ADVANCED_FACE ( 'NONE', ( #425 ), #632, .T. ) ;
#601 = CARTESIAN_POINT ( 'NONE',  ( -1.000000000000000200, 0.0000000000000000000, 2.500000000000000000 ) ) ;
#602 = DIRECTION ( 'NONE',  ( 0.0000000000000000000, 0.0000000000000000000, 1.000000000000000000 ) ) ;
#603 = EDGE_CURVE ( 'NONE', #505, #321, #559, .T. ) ;
#604 = UNCERTAINTY_MEASURE_WITH_UNIT (LENGTH_MEASURE( 1.000000000000000100E-005 ), #150, 'distance_accuracy_value', 'NONE');
#605 = EDGE_LOOP ( 'NONE', ( #524, #221, #193, #69 ) ) ;
#606 = EDGE_LOOP ( 'NONE', ( #7, #104, #323, #416 ) ) ;
#607 = DIRECTION ( 'NONE',  ( 0.0000000000000000000, 0.0000000000000000000, 1.000000000000000000 ) ) ;
#608 = VERTEX_POINT ( 'NONE', #34 ) ;
#609 = PRODUCT_DEFINITION_SHAPE ( 'NONE', 'NONE',  #743 ) ;
#610 =( GEOMETRIC_REPRESENTATION_CONTEXT ( 3 ) GLOBAL_UNCERTAINTY_ASSIGNED_CONTEXT ( ( #191 ) ) GLOBAL_UNIT_ASSIGNED_CONTEXT ( ( #656, #304, #711 ) ) REPRESENTATION_CONTEXT ( 'NONE', 'WORKASPACE' ) );
#611 = DIRECTION ( 'NONE',  ( 1.000000000000000000, 0.0000000000000000000, 0.0000000000000000000 ) ) ;
#612 = CARTESIAN_POINT ( 'NONE',  ( 0.0000000000000000000, 0.0000000000000000000, 0.0000000000000000000 ) ) ;
#613 = SHAPE_REPRESENTATION ( 'terminal', ( #432 ), #634 ) ;
#614 = DIRECTION ( 'NONE',  ( -0.0000000000000000000, 1.224646799147353200E-016, -1.000000000000000000 ) ) ;
#615 = CARTESIAN_POINT ( 'NONE',  ( 0.0000000000000000000, -0.9999999999999997800, 2.499999999999999600 ) ) ;
#616 =( GEOMETRIC_REPRESENTATION_CONTEXT ( 3 ) GLOBAL_UNCERTAINTY_ASSIGNED_CONTEXT ( ( #467 ) ) GLOBAL_UNIT_ASSIGNED_CONTEXT ( ( #690, #51, #273 ) ) REPRESENTATION_CONTEXT ( 'NONE', 'WORKASPACE' ) );
#617 = APPLICATION_CONTEXT ( 'automotive_design' ) ;
#618 = FILL_AREA_STYLE_COLOUR ( '', #659 ) ;
#619 = FILL_AREA_STYLE ('',( #262 ) ) ;
#620 = SURFACE_STYLE_USAGE ( .BOTH. , #216 ) ;
#621 = EDGE_CURVE ( 'NONE', #117, #141, #572, .T. ) ;
#622 = LINE ( 'NONE', #671, #670 ) ;
#623 = ORIENTED_EDGE ( 'NONE', *, *, #442, .F. ) ;
#624 =( NAMED_UNIT ( * ) SI_UNIT ( $, .STERADIAN. ) SOLID_ANGLE_UNIT ( ) );
#625 = DIRECTION ( 'NONE',  ( 0.0000000000000000000, -1.000000000000000000, 5.053215498074302900E-016 ) ) ;
#626 = PRODUCT_DEFINITION_FORMATION_WITH_SPECIFIED_SOURCE ( 'ANY', '', #301, .NOT_KNOWN. ) ;
#627 = FILL_AREA_STYLE ('',( #105 ) ) ;
#628 = PRESENTATION_STYLE_ASSIGNMENT (( #581 ) ) ;
#629 = CIRCLE ( 'NONE', #453, 1.000000000000000200 ) ;
#630 = ORIENTED_EDGE ( 'NONE', *, *, #741, .F. ) ;
#631 = EDGE_CURVE ( 'NONE', #608, #533, #622, .T. ) ;
#632 = CYLINDRICAL_SURFACE ( 'NONE', #486, 1.004999999999999900 ) ;
#633 = PRODUCT ( 'corpo', 'corpo', '', ( #320 ) ) ;
#634 =( GEOMETRIC_REPRESENTATION_CONTEXT ( 3 ) GLOBAL_UNCERTAINTY_ASSIGNED_CONTEXT ( ( #154 ) ) GLOBAL_UNIT_ASSIGNED_CONTEXT ( ( #382, #44, #438 ) ) REPRESENTATION_CONTEXT ( 'NONE', 'WORKASPACE' ) );
#635 = ORIENTED_EDGE ( 'NONE', *, *, #400, .T. ) ;
#636 =( NAMED_UNIT ( * ) PLANE_ANGLE_UNIT ( ) SI_UNIT ( $, .RADIAN. ) );
#637 =( LENGTH_UNIT ( ) NAMED_UNIT ( * ) SI_UNIT ( .MILLI., .METRE. ) );
#638 = UNCERTAINTY_MEASURE_WITH_UNIT (LENGTH_MEASURE( 1.000000000000000100E-005 ), #319, 'distance_accuracy_value', 'NONE');
#639 = CARTESIAN_POINT ( 'NONE',  ( 4.898587196589414300E-017, -0.4000000000000001300, 0.0000000000000000000 ) ) ;
#640 = EDGE_CURVE ( 'NONE', #321, #362, #629, .T. ) ;
#641 = CIRCLE ( 'NONE', #112, 0.4000000000000001300 ) ;
#642 = VECTOR ( 'NONE', #246, 1000.000000000000000 ) ;
#643 = VERTEX_POINT ( 'NONE', #157 ) ;
#644 =( LENGTH_UNIT ( ) NAMED_UNIT ( * ) SI_UNIT ( .MILLI., .METRE. ) );
#645 = ADVANCED_FACE ( 'NONE', ( #197 ), #732, .F. ) ;
#646 = CYLINDRICAL_SURFACE ( 'NONE', #243, 1.000000000000000200 ) ;
#647 = VECTOR ( 'NONE', #95, 1000.000000000000000 ) ;
#648 = EDGE_LOOP ( 'NONE', ( #222, #355, #172, #623 ) ) ;
#649 = VECTOR ( 'NONE', #147, 1000.000000000000000 ) ;
#650 = DIRECTION ( 'NONE',  ( -1.000000000000000000, 0.0000000000000000000, 0.0000000000000000000 ) ) ;
#651 = DIRECTION ( 'NONE',  ( 1.000000000000000000, 0.0000000000000000000, -0.0000000000000000000 ) ) ;
#652 = EDGE_CURVE ( 'NONE', #525, #362, #577, .T. ) ;
#653 = ADVANCED_FACE ( 'NONE', ( #391 ), #50, .T. ) ;
#654 = DIRECTION ( 'NONE',  ( 1.000000000000000000, 0.0000000000000000000, 0.0000000000000000000 ) ) ;
#655 = PRODUCT_RELATED_PRODUCT_CATEGORY ( 'part', '', ( #301 ) ) ;
#656 =( LENGTH_UNIT ( ) NAMED_UNIT ( * ) SI_UNIT ( .MILLI., .METRE. ) );
#657 = ORIENTED_EDGE ( 'NONE', *, *, #621, .F. ) ;
#658 = DIRECTION ( 'NONE',  ( -0.0000000000000000000, 1.224646799147353200E-016, -1.000000000000000000 ) ) ;
#659 = COLOUR_RGB ( '',0.2509803921568627400, 0.2509803921568627400, 0.2509803921568627400 ) ;
#660 = EDGE_CURVE ( 'NONE', #427, #460, #697, .T. ) ;
#661 = ADVANCED_FACE ( 'NONE', ( #515 ), #365, .F. ) ;
#662 = MECHANICAL_DESIGN_GEOMETRIC_PRESENTATION_REPRESENTATION (  '', ( #12 ), #616 ) ;
#663 = DIRECTION ( 'NONE',  ( 0.0000000000000000000, 0.0000000000000000000, 1.000000000000000000 ) ) ;
#664 = FILL_AREA_STYLE_COLOUR ( '', #459 ) ;
#665 = CARTESIAN_POINT ( 'NONE',  ( 0.0000000000000000000, 0.0000000000000000000, 1.000000000000000000 ) ) ;
#666 = FACE_BOUND ( 'NONE', #560, .T. ) ;
#667 = SURFACE_STYLE_FILL_AREA ( #497 ) ;
#668 = DIRECTION ( 'NONE',  ( 1.000000000000000000, 0.0000000000000000000, 0.0000000000000000000 ) ) ;
#669 = ORIENTED_EDGE ( 'NONE', *, *, #692, .F. ) ;
#670 = VECTOR ( 'NONE', #614, 1000.000000000000000 ) ;
#671 = CARTESIAN_POINT ( 'NONE',  ( 4.898587196589414300E-017, -0.4000000000000003000, 1.500000000000000000 ) ) ;
#672 = FILL_AREA_STYLE ('',( #94 ) ) ;
#673 = DIRECTION ( 'NONE',  ( 1.000000000000000000, 0.0000000000000000000, 0.0000000000000000000 ) ) ;
#674 = STYLED_ITEM ( 'NONE', ( #504 ), #52 ) ;
#675 = APPLICATION_PROTOCOL_DEFINITION ( 'draft international standard', 'automotive_design', 1998, #726 ) ;
#676 = DIRECTION ( 'NONE',  ( 0.0000000000000000000, 0.0000000000000000000, 1.000000000000000000 ) ) ;
#677 =( NAMED_UNIT ( * ) PLANE_ANGLE_UNIT ( ) SI_UNIT ( $, .RADIAN. ) );
#678 = CARTESIAN_POINT ( 'NONE',  ( 0.0000000000000000000, -0.9999999999999997800, 2.099999999999999600 ) ) ;
#679 = SHAPE_DEFINITION_REPRESENTATION ( #703, #295 ) ;
#680 = DIRECTION ( 'NONE',  ( 1.000000000000000000, 0.0000000000000000000, 0.0000000000000000000 ) ) ;
#681 = PRESENTATION_LAYER_ASSIGNMENT (  '', '', ( #12 ) ) ;
#682 = PRESENTATION_STYLE_ASSIGNMENT (( #471 ) ) ;
#683 = EDGE_CURVE ( 'NONE', #525, #505, #103, .T. ) ;
#684 = ORIENTED_EDGE ( 'NONE', *, *, #446, .T. ) ;
#685 = PRESENTATION_STYLE_ASSIGNMENT (( #42 ) ) ;
#686 = MECHANICAL_DESIGN_GEOMETRIC_PRESENTATION_REPRESENTATION (  '', ( #5 ), #469 ) ;
#687 = SURFACE_SIDE_STYLE ('',( #109 ) ) ;
#688 = LINE ( 'NONE', #678, #647 ) ;
#689 = EDGE_LOOP ( 'NONE', ( #401, #635 ) ) ;
#690 =( LENGTH_UNIT ( ) NAMED_UNIT ( * ) SI_UNIT ( .MILLI., .METRE. ) );
#691 = DIRECTION ( 'NONE',  ( 0.0000000000000000000, -1.000000000000000000, 5.053215498074302900E-016 ) ) ;
#692 = EDGE_CURVE ( 'NONE', #362, #321, #194, .T. ) ;
#693 =( NAMED_UNIT ( * ) PLANE_ANGLE_UNIT ( ) SI_UNIT ( $, .RADIAN. ) );
#694 = DIRECTION ( 'NONE',  ( 0.0000000000000000000, 0.0000000000000000000, 1.000000000000000000 ) ) ;
#695 = COLOUR_RGB ( '',0.2509803921568627400, 0.2509803921568627400, 0.2509803921568627400 ) ;
#696 = PRODUCT_DEFINITION_FORMATION_WITH_SPECIFIED_SOURCE ( 'ANY', '', #633, .NOT_KNOWN. ) ;
#697 = CIRCLE ( 'NONE', #21, 1.000000000000000200 ) ;
#698 = ORIENTED_EDGE ( 'NONE', *, *, #683, .F. ) ;
#699 = EDGE_LOOP ( 'NONE', ( #213, #392 ) ) ;
#700 = CARTESIAN_POINT ( 'NONE',  ( 0.0000000000000000000, 0.0000000000000000000, 1.000000000000000000 ) ) ;
#701 = EDGE_CURVE ( 'NONE', #424, #64, #561, .T. ) ;
#702 =( LENGTH_UNIT ( ) NAMED_UNIT ( * ) SI_UNIT ( .MILLI., .METRE. ) );
#703 = PRODUCT_DEFINITION_SHAPE ( 'NONE', 'NONE',  #502 ) ;
#704 = ORIENTED_EDGE ( 'NONE', *, *, #734, .F. ) ;
#705 = CARTESIAN_POINT ( 'NONE',  ( 0.0000000000000000000, -0.9999999999999997800, 2.499999999999999600 ) ) ;
#706 = CARTESIAN_POINT ( 'NONE',  ( 4.898587196589413700E-017, -0.9999999999999995600, 2.899999999999999900 ) ) ;
#707 = PRODUCT ( 'do-41', 'do-41', '', ( #90 ) ) ;
#708 = PRESENTATION_LAYER_ASSIGNMENT (  '', '', ( #674 ) ) ;
#709 = SURFACE_SIDE_STYLE ('',( #596 ) ) ;
#710 = VERTEX_POINT ( 'NONE', #713 ) ;
#711 =( NAMED_UNIT ( * ) SI_UNIT ( $, .STERADIAN. ) SOLID_ANGLE_UNIT ( ) );
#712 = EDGE_CURVE ( 'NONE', #117, #137, #101, .T. ) ;
#713 = CARTESIAN_POINT ( 'NONE',  ( -1.004999999999999900, 0.0000000000000000000, 1.000000000000000000 ) ) ;
#714 = EDGE_CURVE ( 'NONE', #710, #375, #58, .T. ) ;
#715 = FACE_OUTER_BOUND ( 'NONE', #605, .T. ) ;
#716 = FILL_AREA_STYLE_COLOUR ( '', #463 ) ;
#717 = FACE_OUTER_BOUND ( 'NONE', #648, .T. ) ;
#718 = CARTESIAN_POINT ( 'NONE',  ( 0.0000000000000000000, -1.836970198721029900E-016, 1.500000000000000000 ) ) ;
#719 = CARTESIAN_POINT ( 'NONE',  ( 0.0000000000000000000, 0.0000000000000000000, 2.000000000000000000 ) ) ;
#720 = ORIENTED_EDGE ( 'NONE', *, *, #741, .T. ) ;
#721 = AXIS2_PLACEMENT_3D ( 'NONE', #419, #76, #482 ) ;
#722 = CARTESIAN_POINT ( 'NONE',  ( 0.0000000000000000000, 2.000000000000000000, 2.500000000000000000 ) ) ;
#723 = UNCERTAINTY_MEASURE_WITH_UNIT (LENGTH_MEASURE( 1.000000000000000100E-005 ), #556, 'distance_accuracy_value', 'NONE');
#724 = FILL_AREA_STYLE ('',( #664 ) ) ;
#725 = DIRECTION ( 'NONE',  ( 1.000000000000000000, 0.0000000000000000000, 0.0000000000000000000 ) ) ;
#726 = APPLICATION_CONTEXT ( 'automotive_design' ) ;
#727 = DIRECTION ( 'NONE',  ( -0.0000000000000000000, -0.0000000000000000000, -1.000000000000000000 ) ) ;
#728 = SURFACE_STYLE_USAGE ( .BOTH. , #318 ) ;
#729 = FILL_AREA_STYLE ('',( #265 ) ) ;
#730 =( NAMED_UNIT ( * ) PLANE_ANGLE_UNIT ( ) SI_UNIT ( $, .RADIAN. ) );
#731 = APPLICATION_CONTEXT ( 'automotive_design' ) ;
#732 = PLANE ( 'NONE',  #721 ) ;
#733 = CARTESIAN_POINT ( 'NONE',  ( -1.004999999999999900, 0.0000000000000000000, 2.000000000000000000 ) ) ;
#734 = EDGE_CURVE ( 'NONE', #643, #288, #374, .T. ) ;
#735 = ORIENTED_EDGE ( 'NONE', *, *, #421, .F. ) ;
#736 = VERTEX_POINT ( 'NONE', #142 ) ;
#737 = PRODUCT_RELATED_PRODUCT_CATEGORY ( 'part', '', ( #633 ) ) ;
#738 =( NAMED_UNIT ( * ) SI_UNIT ( $, .STERADIAN. ) SOLID_ANGLE_UNIT ( ) );
#739 =( NAMED_UNIT ( * ) PLANE_ANGLE_UNIT ( ) SI_UNIT ( $, .RADIAN. ) );
#740 = DIRECTION ( 'NONE',  ( -0.0000000000000000000, -0.0000000000000000000, -1.000000000000000000 ) ) ;
#741 = EDGE_CURVE ( 'NONE', #736, #137, #212, .T. ) ;
#742 = SURFACE_SIDE_STYLE ('',( #353 ) ) ;
#743 = NEXT_ASSEMBLY_USAGE_OCCURRENCE ( 'NAUO1', ' ', ' ', #502, #415, $ ) ;
#744 = NEXT_ASSEMBLY_USAGE_OCCURRENCE ( 'NAUO2', ' ', ' ', #502, #383, $ ) ;
#745 = NEXT_ASSEMBLY_USAGE_OCCURRENCE ( 'NAUO3', ' ', ' ', #502, #383, $ ) ;
ENDSEC;
END-ISO-10303-21;
