ISO-10303-21;
HEADER;
/* Generated by software containing ST-Developer
 * from STEP Tools, Inc. (www.steptools.com) 
 */

FILE_DESCRIPTION(
/* description */ (''),
/* implementation_level */ '2;1');

FILE_NAME(
/* name */ 'Songle_Relay_SMIH-xxVDC-SL-C.step',
/* time_stamp */ '2026-03-18T10:57:40+08:00',
/* author */ (''),
/* organization */ (''),
/* preprocessor_version */ 'ST-DEVELOPER v20.1',
/* originating_system */ 'Autodesk Translation Framework v14.24.0.0',
/* authorisation */ '');

FILE_SCHEMA (('AUTOMOTIVE_DESIGN { 1 0 10303 214 3 1 1 }'));
ENDSEC;

DATA;
#10=MECHANICAL_DESIGN_GEOMETRIC_PRESENTATION_REPRESENTATION('',(#47,#48,
#49,#50,#51,#52,#53,#54,#55,#56,#57,#58,#59,#60,#61,#62,#63,#64,#65,#66,
#67,#68,#69,#70,#71,#72,#73),#1519);
#11=SHAPE_REPRESENTATION_RELATIONSHIP('SRR','None',#1526,#12);
#12=ADVANCED_BREP_SHAPE_REPRESENTATION('',(#74,#75,#76,#77,#78,#79,#80,
#81,#82),#1518);
#13=SPHERICAL_SURFACE('',#979,0.199999999999999);
#14=SPHERICAL_SURFACE('',#985,0.2);
#15=SPHERICAL_SURFACE('',#992,0.2);
#16=SPHERICAL_SURFACE('',#998,0.2);
#17=CIRCLE('',#940,0.3);
#18=CIRCLE('',#941,0.3);
#19=CIRCLE('',#963,0.3);
#20=CIRCLE('',#964,0.3);
#21=CIRCLE('',#980,0.2);
#22=CIRCLE('',#981,0.199999999999999);
#23=CIRCLE('',#982,0.2);
#24=CIRCLE('',#984,0.2);
#25=CIRCLE('',#986,0.2);
#26=CIRCLE('',#987,0.2);
#27=CIRCLE('',#988,0.2);
#28=CIRCLE('',#990,0.2);
#29=CIRCLE('',#993,0.2);
#30=CIRCLE('',#994,0.2);
#31=CIRCLE('',#995,0.2);
#32=CIRCLE('',#997,0.2);
#33=CIRCLE('',#999,0.2);
#34=CIRCLE('',#1000,0.2);
#35=CIRCLE('',#1001,0.2);
#36=CIRCLE('',#1003,0.2);
#37=CYLINDRICAL_SURFACE('',#939,0.3);
#38=CYLINDRICAL_SURFACE('',#962,0.3);
#39=CYLINDRICAL_SURFACE('',#983,0.2);
#40=CYLINDRICAL_SURFACE('',#989,0.2);
#41=CYLINDRICAL_SURFACE('',#991,0.2);
#42=CYLINDRICAL_SURFACE('',#996,0.2);
#43=CYLINDRICAL_SURFACE('',#1002,0.2);
#44=CYLINDRICAL_SURFACE('',#1004,0.2);
#45=CYLINDRICAL_SURFACE('',#1005,0.2);
#46=CYLINDRICAL_SURFACE('',#1006,0.2);
#47=STYLED_ITEM('',(#1536),#74);
#48=STYLED_ITEM('',(#1536),#75);
#49=STYLED_ITEM('',(#1536),#76);
#50=STYLED_ITEM('',(#1536),#77);
#51=STYLED_ITEM('',(#1536),#78);
#52=STYLED_ITEM('',(#1536),#79);
#53=STYLED_ITEM('',(#1536),#80);
#54=STYLED_ITEM('',(#1536),#81);
#55=STYLED_ITEM('',(#1538),#893);
#56=STYLED_ITEM('',(#1538),#894);
#57=STYLED_ITEM('',(#1538),#895);
#58=STYLED_ITEM('',(#1538),#896);
#59=STYLED_ITEM('',(#1538),#897);
#60=STYLED_ITEM('',(#1538),#898);
#61=STYLED_ITEM('',(#1538),#899);
#62=STYLED_ITEM('',(#1538),#900);
#63=STYLED_ITEM('',(#1538),#901);
#64=STYLED_ITEM('',(#1538),#902);
#65=STYLED_ITEM('',(#1538),#903);
#66=STYLED_ITEM('',(#1538),#904);
#67=STYLED_ITEM('',(#1538),#905);
#68=STYLED_ITEM('',(#1538),#906);
#69=STYLED_ITEM('',(#1538),#907);
#70=STYLED_ITEM('',(#1538),#908);
#71=STYLED_ITEM('',(#1538),#909);
#72=STYLED_ITEM('',(#1539),#910);
#73=STYLED_ITEM('',(#1537),#82);
#74=MANIFOLD_SOLID_BREP('Body5',#911);
#75=MANIFOLD_SOLID_BREP('Body8',#912);
#76=MANIFOLD_SOLID_BREP('Body9',#913);
#77=MANIFOLD_SOLID_BREP('Body1',#914);
#78=MANIFOLD_SOLID_BREP('Body7',#915);
#79=MANIFOLD_SOLID_BREP('Body3',#916);
#80=MANIFOLD_SOLID_BREP('Body2',#917);
#81=MANIFOLD_SOLID_BREP('Body11',#918);
#82=MANIFOLD_SOLID_BREP('Body12',#919);
#83=FACE_OUTER_BOUND('',#143,.T.);
#84=FACE_OUTER_BOUND('',#144,.T.);
#85=FACE_OUTER_BOUND('',#145,.T.);
#86=FACE_OUTER_BOUND('',#146,.T.);
#87=FACE_OUTER_BOUND('',#147,.T.);
#88=FACE_OUTER_BOUND('',#148,.T.);
#89=FACE_OUTER_BOUND('',#149,.T.);
#90=FACE_OUTER_BOUND('',#150,.T.);
#91=FACE_OUTER_BOUND('',#151,.T.);
#92=FACE_OUTER_BOUND('',#152,.T.);
#93=FACE_OUTER_BOUND('',#153,.T.);
#94=FACE_OUTER_BOUND('',#154,.T.);
#95=FACE_OUTER_BOUND('',#155,.T.);
#96=FACE_OUTER_BOUND('',#156,.T.);
#97=FACE_OUTER_BOUND('',#157,.T.);
#98=FACE_OUTER_BOUND('',#158,.T.);
#99=FACE_OUTER_BOUND('',#159,.T.);
#100=FACE_OUTER_BOUND('',#160,.T.);
#101=FACE_OUTER_BOUND('',#161,.T.);
#102=FACE_OUTER_BOUND('',#162,.T.);
#103=FACE_OUTER_BOUND('',#163,.T.);
#104=FACE_OUTER_BOUND('',#164,.T.);
#105=FACE_OUTER_BOUND('',#165,.T.);
#106=FACE_OUTER_BOUND('',#166,.T.);
#107=FACE_OUTER_BOUND('',#167,.T.);
#108=FACE_OUTER_BOUND('',#168,.T.);
#109=FACE_OUTER_BOUND('',#169,.T.);
#110=FACE_OUTER_BOUND('',#170,.T.);
#111=FACE_OUTER_BOUND('',#171,.T.);
#112=FACE_OUTER_BOUND('',#172,.T.);
#113=FACE_OUTER_BOUND('',#173,.T.);
#114=FACE_OUTER_BOUND('',#174,.T.);
#115=FACE_OUTER_BOUND('',#175,.T.);
#116=FACE_OUTER_BOUND('',#176,.T.);
#117=FACE_OUTER_BOUND('',#177,.T.);
#118=FACE_OUTER_BOUND('',#178,.T.);
#119=FACE_OUTER_BOUND('',#179,.T.);
#120=FACE_OUTER_BOUND('',#180,.T.);
#121=FACE_OUTER_BOUND('',#181,.T.);
#122=FACE_OUTER_BOUND('',#182,.T.);
#123=FACE_OUTER_BOUND('',#183,.T.);
#124=FACE_OUTER_BOUND('',#184,.T.);
#125=FACE_OUTER_BOUND('',#185,.T.);
#126=FACE_OUTER_BOUND('',#186,.T.);
#127=FACE_OUTER_BOUND('',#187,.T.);
#128=FACE_OUTER_BOUND('',#188,.T.);
#129=FACE_OUTER_BOUND('',#189,.T.);
#130=FACE_OUTER_BOUND('',#190,.T.);
#131=FACE_OUTER_BOUND('',#191,.T.);
#132=FACE_OUTER_BOUND('',#192,.T.);
#133=FACE_OUTER_BOUND('',#193,.T.);
#134=FACE_OUTER_BOUND('',#194,.T.);
#135=FACE_OUTER_BOUND('',#195,.T.);
#136=FACE_OUTER_BOUND('',#196,.T.);
#137=FACE_OUTER_BOUND('',#197,.T.);
#138=FACE_OUTER_BOUND('',#198,.T.);
#139=FACE_OUTER_BOUND('',#199,.T.);
#140=FACE_OUTER_BOUND('',#200,.T.);
#141=FACE_OUTER_BOUND('',#201,.T.);
#142=FACE_OUTER_BOUND('',#202,.T.);
#143=EDGE_LOOP('',(#577,#578,#579,#580));
#144=EDGE_LOOP('',(#581,#582,#583,#584));
#145=EDGE_LOOP('',(#585,#586,#587,#588));
#146=EDGE_LOOP('',(#589,#590,#591,#592));
#147=EDGE_LOOP('',(#593,#594,#595,#596));
#148=EDGE_LOOP('',(#597,#598,#599,#600));
#149=EDGE_LOOP('',(#601,#602,#603,#604));
#150=EDGE_LOOP('',(#605));
#151=EDGE_LOOP('',(#606));
#152=EDGE_LOOP('',(#607,#608,#609,#610));
#153=EDGE_LOOP('',(#611,#612,#613,#614));
#154=EDGE_LOOP('',(#615,#616,#617,#618));
#155=EDGE_LOOP('',(#619,#620,#621,#622));
#156=EDGE_LOOP('',(#623,#624,#625,#626));
#157=EDGE_LOOP('',(#627,#628,#629,#630));
#158=EDGE_LOOP('',(#631,#632,#633,#634));
#159=EDGE_LOOP('',(#635,#636,#637,#638));
#160=EDGE_LOOP('',(#639,#640,#641,#642));
#161=EDGE_LOOP('',(#643,#644,#645,#646));
#162=EDGE_LOOP('',(#647,#648,#649,#650));
#163=EDGE_LOOP('',(#651,#652,#653,#654));
#164=EDGE_LOOP('',(#655,#656,#657,#658));
#165=EDGE_LOOP('',(#659,#660,#661,#662));
#166=EDGE_LOOP('',(#663,#664,#665,#666));
#167=EDGE_LOOP('',(#667,#668,#669,#670));
#168=EDGE_LOOP('',(#671,#672,#673,#674));
#169=EDGE_LOOP('',(#675,#676,#677,#678));
#170=EDGE_LOOP('',(#679,#680,#681,#682));
#171=EDGE_LOOP('',(#683));
#172=EDGE_LOOP('',(#684));
#173=EDGE_LOOP('',(#685,#686,#687,#688));
#174=EDGE_LOOP('',(#689,#690,#691,#692));
#175=EDGE_LOOP('',(#693,#694,#695,#696));
#176=EDGE_LOOP('',(#697,#698,#699,#700));
#177=EDGE_LOOP('',(#701,#702,#703,#704));
#178=EDGE_LOOP('',(#705,#706,#707,#708));
#179=EDGE_LOOP('',(#709,#710,#711,#712));
#180=EDGE_LOOP('',(#713,#714,#715,#716));
#181=EDGE_LOOP('',(#717,#718,#719,#720));
#182=EDGE_LOOP('',(#721,#722,#723,#724));
#183=EDGE_LOOP('',(#725,#726,#727,#728));
#184=EDGE_LOOP('',(#729,#730,#731,#732));
#185=EDGE_LOOP('',(#733,#734,#735));
#186=EDGE_LOOP('',(#736,#737,#738,#739));
#187=EDGE_LOOP('',(#740,#741,#742));
#188=EDGE_LOOP('',(#743,#744,#745,#746));
#189=EDGE_LOOP('',(#747,#748,#749,#750));
#190=EDGE_LOOP('',(#751,#752,#753));
#191=EDGE_LOOP('',(#754,#755,#756,#757));
#192=EDGE_LOOP('',(#758,#759,#760));
#193=EDGE_LOOP('',(#761,#762,#763,#764));
#194=EDGE_LOOP('',(#765,#766,#767,#768));
#195=EDGE_LOOP('',(#769,#770,#771,#772));
#196=EDGE_LOOP('',(#773,#774,#775,#776));
#197=EDGE_LOOP('',(#777,#778,#779,#780));
#198=EDGE_LOOP('',(#781,#782,#783,#784));
#199=EDGE_LOOP('',(#785,#786,#787,#788));
#200=EDGE_LOOP('',(#789,#790,#791,#792));
#201=EDGE_LOOP('',(#793,#794,#795,#796));
#202=EDGE_LOOP('',(#797,#798,#799,#800,#801,#802,#803,#804));
#203=LINE('',#1273,#297);
#204=LINE('',#1275,#298);
#205=LINE('',#1277,#299);
#206=LINE('',#1278,#300);
#207=LINE('',#1281,#301);
#208=LINE('',#1283,#302);
#209=LINE('',#1284,#303);
#210=LINE('',#1287,#304);
#211=LINE('',#1289,#305);
#212=LINE('',#1290,#306);
#213=LINE('',#1292,#307);
#214=LINE('',#1293,#308);
#215=LINE('',#1300,#309);
#216=LINE('',#1307,#310);
#217=LINE('',#1309,#311);
#218=LINE('',#1311,#312);
#219=LINE('',#1312,#313);
#220=LINE('',#1315,#314);
#221=LINE('',#1317,#315);
#222=LINE('',#1318,#316);
#223=LINE('',#1321,#317);
#224=LINE('',#1323,#318);
#225=LINE('',#1324,#319);
#226=LINE('',#1326,#320);
#227=LINE('',#1327,#321);
#228=LINE('',#1333,#322);
#229=LINE('',#1335,#323);
#230=LINE('',#1337,#324);
#231=LINE('',#1338,#325);
#232=LINE('',#1341,#326);
#233=LINE('',#1343,#327);
#234=LINE('',#1344,#328);
#235=LINE('',#1347,#329);
#236=LINE('',#1349,#330);
#237=LINE('',#1350,#331);
#238=LINE('',#1352,#332);
#239=LINE('',#1353,#333);
#240=LINE('',#1359,#334);
#241=LINE('',#1361,#335);
#242=LINE('',#1363,#336);
#243=LINE('',#1364,#337);
#244=LINE('',#1367,#338);
#245=LINE('',#1369,#339);
#246=LINE('',#1370,#340);
#247=LINE('',#1373,#341);
#248=LINE('',#1375,#342);
#249=LINE('',#1376,#343);
#250=LINE('',#1378,#344);
#251=LINE('',#1379,#345);
#252=LINE('',#1386,#346);
#253=LINE('',#1393,#347);
#254=LINE('',#1395,#348);
#255=LINE('',#1397,#349);
#256=LINE('',#1398,#350);
#257=LINE('',#1401,#351);
#258=LINE('',#1403,#352);
#259=LINE('',#1404,#353);
#260=LINE('',#1407,#354);
#261=LINE('',#1409,#355);
#262=LINE('',#1410,#356);
#263=LINE('',#1412,#357);
#264=LINE('',#1413,#358);
#265=LINE('',#1419,#359);
#266=LINE('',#1421,#360);
#267=LINE('',#1423,#361);
#268=LINE('',#1424,#362);
#269=LINE('',#1427,#363);
#270=LINE('',#1429,#364);
#271=LINE('',#1430,#365);
#272=LINE('',#1433,#366);
#273=LINE('',#1435,#367);
#274=LINE('',#1436,#368);
#275=LINE('',#1438,#369);
#276=LINE('',#1439,#370);
#277=LINE('',#1453,#371);
#278=LINE('',#1454,#372);
#279=LINE('',#1466,#373);
#280=LINE('',#1467,#374);
#281=LINE('',#1469,#375);
#282=LINE('',#1470,#376);
#283=LINE('',#1482,#377);
#284=LINE('',#1483,#378);
#285=LINE('',#1495,#379);
#286=LINE('',#1496,#380);
#287=LINE('',#1498,#381);
#288=LINE('',#1499,#382);
#289=LINE('',#1501,#383);
#290=LINE('',#1502,#384);
#291=LINE('',#1504,#385);
#292=LINE('',#1505,#386);
#293=LINE('',#1507,#387);
#294=LINE('',#1509,#388);
#295=LINE('',#1512,#389);
#296=LINE('',#1514,#390);
#297=VECTOR('',#1017,10.);
#298=VECTOR('',#1018,10.);
#299=VECTOR('',#1019,10.);
#300=VECTOR('',#1020,10.);
#301=VECTOR('',#1023,10.);
#302=VECTOR('',#1024,10.);
#303=VECTOR('',#1025,10.);
#304=VECTOR('',#1028,10.);
#305=VECTOR('',#1029,10.);
#306=VECTOR('',#1030,10.);
#307=VECTOR('',#1033,10.);
#308=VECTOR('',#1034,10.);
#309=VECTOR('',#1043,0.3);
#310=VECTOR('',#1052,10.);
#311=VECTOR('',#1053,10.);
#312=VECTOR('',#1054,10.);
#313=VECTOR('',#1055,10.);
#314=VECTOR('',#1058,10.);
#315=VECTOR('',#1059,10.);
#316=VECTOR('',#1060,10.);
#317=VECTOR('',#1063,10.);
#318=VECTOR('',#1064,10.);
#319=VECTOR('',#1065,10.);
#320=VECTOR('',#1068,10.);
#321=VECTOR('',#1069,10.);
#322=VECTOR('',#1076,10.);
#323=VECTOR('',#1077,10.);
#324=VECTOR('',#1078,10.);
#325=VECTOR('',#1079,10.);
#326=VECTOR('',#1082,10.);
#327=VECTOR('',#1083,10.);
#328=VECTOR('',#1084,10.);
#329=VECTOR('',#1087,10.);
#330=VECTOR('',#1088,10.);
#331=VECTOR('',#1089,10.);
#332=VECTOR('',#1092,10.);
#333=VECTOR('',#1093,10.);
#334=VECTOR('',#1100,10.);
#335=VECTOR('',#1101,10.);
#336=VECTOR('',#1102,10.);
#337=VECTOR('',#1103,10.);
#338=VECTOR('',#1106,10.);
#339=VECTOR('',#1107,10.);
#340=VECTOR('',#1108,10.);
#341=VECTOR('',#1111,10.);
#342=VECTOR('',#1112,10.);
#343=VECTOR('',#1113,10.);
#344=VECTOR('',#1116,10.);
#345=VECTOR('',#1117,10.);
#346=VECTOR('',#1126,0.3);
#347=VECTOR('',#1135,10.);
#348=VECTOR('',#1136,10.);
#349=VECTOR('',#1137,10.);
#350=VECTOR('',#1138,10.);
#351=VECTOR('',#1141,10.);
#352=VECTOR('',#1142,10.);
#353=VECTOR('',#1143,10.);
#354=VECTOR('',#1146,10.);
#355=VECTOR('',#1147,10.);
#356=VECTOR('',#1148,10.);
#357=VECTOR('',#1151,10.);
#358=VECTOR('',#1152,10.);
#359=VECTOR('',#1159,10.);
#360=VECTOR('',#1160,10.);
#361=VECTOR('',#1161,10.);
#362=VECTOR('',#1162,10.);
#363=VECTOR('',#1165,10.);
#364=VECTOR('',#1166,10.);
#365=VECTOR('',#1167,10.);
#366=VECTOR('',#1170,10.);
#367=VECTOR('',#1171,10.);
#368=VECTOR('',#1172,10.);
#369=VECTOR('',#1175,10.);
#370=VECTOR('',#1176,10.);
#371=VECTOR('',#1193,10.);
#372=VECTOR('',#1194,10.);
#373=VECTOR('',#1207,10.);
#374=VECTOR('',#1208,10.);
#375=VECTOR('',#1211,10.);
#376=VECTOR('',#1212,10.);
#377=VECTOR('',#1225,10.);
#378=VECTOR('',#1226,10.);
#379=VECTOR('',#1239,10.);
#380=VECTOR('',#1240,10.);
#381=VECTOR('',#1243,10.);
#382=VECTOR('',#1244,10.);
#383=VECTOR('',#1247,10.);
#384=VECTOR('',#1248,10.);
#385=VECTOR('',#1251,10.);
#386=VECTOR('',#1252,10.);
#387=VECTOR('',#1255,10.);
#388=VECTOR('',#1258,10.);
#389=VECTOR('',#1263,10.);
#390=VECTOR('',#1266,10.);
#391=VERTEX_POINT('',#1271);
#392=VERTEX_POINT('',#1272);
#393=VERTEX_POINT('',#1274);
#394=VERTEX_POINT('',#1276);
#395=VERTEX_POINT('',#1280);
#396=VERTEX_POINT('',#1282);
#397=VERTEX_POINT('',#1286);
#398=VERTEX_POINT('',#1288);
#399=VERTEX_POINT('',#1297);
#400=VERTEX_POINT('',#1299);
#401=VERTEX_POINT('',#1305);
#402=VERTEX_POINT('',#1306);
#403=VERTEX_POINT('',#1308);
#404=VERTEX_POINT('',#1310);
#405=VERTEX_POINT('',#1314);
#406=VERTEX_POINT('',#1316);
#407=VERTEX_POINT('',#1320);
#408=VERTEX_POINT('',#1322);
#409=VERTEX_POINT('',#1331);
#410=VERTEX_POINT('',#1332);
#411=VERTEX_POINT('',#1334);
#412=VERTEX_POINT('',#1336);
#413=VERTEX_POINT('',#1340);
#414=VERTEX_POINT('',#1342);
#415=VERTEX_POINT('',#1346);
#416=VERTEX_POINT('',#1348);
#417=VERTEX_POINT('',#1357);
#418=VERTEX_POINT('',#1358);
#419=VERTEX_POINT('',#1360);
#420=VERTEX_POINT('',#1362);
#421=VERTEX_POINT('',#1366);
#422=VERTEX_POINT('',#1368);
#423=VERTEX_POINT('',#1372);
#424=VERTEX_POINT('',#1374);
#425=VERTEX_POINT('',#1383);
#426=VERTEX_POINT('',#1385);
#427=VERTEX_POINT('',#1391);
#428=VERTEX_POINT('',#1392);
#429=VERTEX_POINT('',#1394);
#430=VERTEX_POINT('',#1396);
#431=VERTEX_POINT('',#1400);
#432=VERTEX_POINT('',#1402);
#433=VERTEX_POINT('',#1406);
#434=VERTEX_POINT('',#1408);
#435=VERTEX_POINT('',#1417);
#436=VERTEX_POINT('',#1418);
#437=VERTEX_POINT('',#1420);
#438=VERTEX_POINT('',#1422);
#439=VERTEX_POINT('',#1426);
#440=VERTEX_POINT('',#1428);
#441=VERTEX_POINT('',#1432);
#442=VERTEX_POINT('',#1434);
#443=VERTEX_POINT('',#1443);
#444=VERTEX_POINT('',#1444);
#445=VERTEX_POINT('',#1446);
#446=VERTEX_POINT('',#1450);
#447=VERTEX_POINT('',#1451);
#448=VERTEX_POINT('',#1456);
#449=VERTEX_POINT('',#1457);
#450=VERTEX_POINT('',#1459);
#451=VERTEX_POINT('',#1463);
#452=VERTEX_POINT('',#1464);
#453=VERTEX_POINT('',#1472);
#454=VERTEX_POINT('',#1473);
#455=VERTEX_POINT('',#1475);
#456=VERTEX_POINT('',#1479);
#457=VERTEX_POINT('',#1480);
#458=VERTEX_POINT('',#1485);
#459=VERTEX_POINT('',#1486);
#460=VERTEX_POINT('',#1488);
#461=VERTEX_POINT('',#1492);
#462=VERTEX_POINT('',#1493);
#463=EDGE_CURVE('',#391,#392,#203,.T.);
#464=EDGE_CURVE('',#391,#393,#204,.T.);
#465=EDGE_CURVE('',#394,#393,#205,.T.);
#466=EDGE_CURVE('',#392,#394,#206,.T.);
#467=EDGE_CURVE('',#392,#395,#207,.T.);
#468=EDGE_CURVE('',#396,#394,#208,.T.);
#469=EDGE_CURVE('',#395,#396,#209,.T.);
#470=EDGE_CURVE('',#395,#397,#210,.T.);
#471=EDGE_CURVE('',#398,#396,#211,.T.);
#472=EDGE_CURVE('',#397,#398,#212,.T.);
#473=EDGE_CURVE('',#397,#391,#213,.T.);
#474=EDGE_CURVE('',#393,#398,#214,.T.);
#475=EDGE_CURVE('',#399,#399,#17,.T.);
#476=EDGE_CURVE('',#399,#400,#215,.T.);
#477=EDGE_CURVE('',#400,#400,#18,.T.);
#478=EDGE_CURVE('',#401,#402,#216,.T.);
#479=EDGE_CURVE('',#401,#403,#217,.T.);
#480=EDGE_CURVE('',#404,#403,#218,.T.);
#481=EDGE_CURVE('',#402,#404,#219,.T.);
#482=EDGE_CURVE('',#402,#405,#220,.T.);
#483=EDGE_CURVE('',#406,#404,#221,.T.);
#484=EDGE_CURVE('',#405,#406,#222,.T.);
#485=EDGE_CURVE('',#405,#407,#223,.T.);
#486=EDGE_CURVE('',#408,#406,#224,.T.);
#487=EDGE_CURVE('',#407,#408,#225,.T.);
#488=EDGE_CURVE('',#407,#401,#226,.T.);
#489=EDGE_CURVE('',#403,#408,#227,.T.);
#490=EDGE_CURVE('',#409,#410,#228,.T.);
#491=EDGE_CURVE('',#409,#411,#229,.T.);
#492=EDGE_CURVE('',#412,#411,#230,.T.);
#493=EDGE_CURVE('',#410,#412,#231,.T.);
#494=EDGE_CURVE('',#410,#413,#232,.T.);
#495=EDGE_CURVE('',#414,#412,#233,.T.);
#496=EDGE_CURVE('',#413,#414,#234,.T.);
#497=EDGE_CURVE('',#413,#415,#235,.T.);
#498=EDGE_CURVE('',#416,#414,#236,.T.);
#499=EDGE_CURVE('',#415,#416,#237,.T.);
#500=EDGE_CURVE('',#415,#409,#238,.T.);
#501=EDGE_CURVE('',#411,#416,#239,.T.);
#502=EDGE_CURVE('',#417,#418,#240,.T.);
#503=EDGE_CURVE('',#417,#419,#241,.T.);
#504=EDGE_CURVE('',#420,#419,#242,.T.);
#505=EDGE_CURVE('',#418,#420,#243,.T.);
#506=EDGE_CURVE('',#418,#421,#244,.T.);
#507=EDGE_CURVE('',#422,#420,#245,.T.);
#508=EDGE_CURVE('',#421,#422,#246,.T.);
#509=EDGE_CURVE('',#421,#423,#247,.T.);
#510=EDGE_CURVE('',#424,#422,#248,.T.);
#511=EDGE_CURVE('',#423,#424,#249,.T.);
#512=EDGE_CURVE('',#423,#417,#250,.T.);
#513=EDGE_CURVE('',#419,#424,#251,.T.);
#514=EDGE_CURVE('',#425,#425,#19,.T.);
#515=EDGE_CURVE('',#425,#426,#252,.T.);
#516=EDGE_CURVE('',#426,#426,#20,.T.);
#517=EDGE_CURVE('',#427,#428,#253,.T.);
#518=EDGE_CURVE('',#427,#429,#254,.T.);
#519=EDGE_CURVE('',#430,#429,#255,.T.);
#520=EDGE_CURVE('',#428,#430,#256,.T.);
#521=EDGE_CURVE('',#428,#431,#257,.T.);
#522=EDGE_CURVE('',#432,#430,#258,.T.);
#523=EDGE_CURVE('',#431,#432,#259,.T.);
#524=EDGE_CURVE('',#431,#433,#260,.T.);
#525=EDGE_CURVE('',#434,#432,#261,.T.);
#526=EDGE_CURVE('',#433,#434,#262,.T.);
#527=EDGE_CURVE('',#433,#427,#263,.T.);
#528=EDGE_CURVE('',#429,#434,#264,.T.);
#529=EDGE_CURVE('',#435,#436,#265,.T.);
#530=EDGE_CURVE('',#435,#437,#266,.T.);
#531=EDGE_CURVE('',#438,#437,#267,.T.);
#532=EDGE_CURVE('',#436,#438,#268,.T.);
#533=EDGE_CURVE('',#436,#439,#269,.T.);
#534=EDGE_CURVE('',#440,#438,#270,.T.);
#535=EDGE_CURVE('',#439,#440,#271,.T.);
#536=EDGE_CURVE('',#439,#441,#272,.T.);
#537=EDGE_CURVE('',#442,#440,#273,.T.);
#538=EDGE_CURVE('',#441,#442,#274,.T.);
#539=EDGE_CURVE('',#441,#435,#275,.T.);
#540=EDGE_CURVE('',#437,#442,#276,.T.);
#541=EDGE_CURVE('',#443,#444,#21,.F.);
#542=EDGE_CURVE('',#445,#443,#22,.F.);
#543=EDGE_CURVE('',#444,#445,#23,.F.);
#544=EDGE_CURVE('',#446,#447,#24,.T.);
#545=EDGE_CURVE('',#447,#445,#277,.T.);
#546=EDGE_CURVE('',#443,#446,#278,.T.);
#547=EDGE_CURVE('',#448,#449,#25,.F.);
#548=EDGE_CURVE('',#450,#448,#26,.F.);
#549=EDGE_CURVE('',#449,#450,#27,.F.);
#550=EDGE_CURVE('',#451,#452,#28,.T.);
#551=EDGE_CURVE('',#452,#450,#279,.T.);
#552=EDGE_CURVE('',#448,#451,#280,.T.);
#553=EDGE_CURVE('',#444,#449,#281,.T.);
#554=EDGE_CURVE('',#450,#443,#282,.T.);
#555=EDGE_CURVE('',#453,#454,#29,.F.);
#556=EDGE_CURVE('',#455,#453,#30,.F.);
#557=EDGE_CURVE('',#454,#455,#31,.F.);
#558=EDGE_CURVE('',#456,#457,#32,.T.);
#559=EDGE_CURVE('',#457,#455,#283,.T.);
#560=EDGE_CURVE('',#453,#456,#284,.T.);
#561=EDGE_CURVE('',#458,#459,#33,.F.);
#562=EDGE_CURVE('',#460,#458,#34,.F.);
#563=EDGE_CURVE('',#459,#460,#35,.F.);
#564=EDGE_CURVE('',#461,#462,#36,.T.);
#565=EDGE_CURVE('',#462,#460,#285,.T.);
#566=EDGE_CURVE('',#458,#461,#286,.T.);
#567=EDGE_CURVE('',#449,#459,#287,.T.);
#568=EDGE_CURVE('',#460,#448,#288,.T.);
#569=EDGE_CURVE('',#459,#454,#289,.T.);
#570=EDGE_CURVE('',#455,#458,#290,.T.);
#571=EDGE_CURVE('',#454,#444,#291,.T.);
#572=EDGE_CURVE('',#445,#453,#292,.T.);
#573=EDGE_CURVE('',#452,#446,#293,.T.);
#574=EDGE_CURVE('',#462,#451,#294,.T.);
#575=EDGE_CURVE('',#457,#461,#295,.T.);
#576=EDGE_CURVE('',#447,#456,#296,.T.);
#577=ORIENTED_EDGE('',*,*,#463,.F.);
#578=ORIENTED_EDGE('',*,*,#464,.T.);
#579=ORIENTED_EDGE('',*,*,#465,.F.);
#580=ORIENTED_EDGE('',*,*,#466,.F.);
#581=ORIENTED_EDGE('',*,*,#467,.F.);
#582=ORIENTED_EDGE('',*,*,#466,.T.);
#583=ORIENTED_EDGE('',*,*,#468,.F.);
#584=ORIENTED_EDGE('',*,*,#469,.F.);
#585=ORIENTED_EDGE('',*,*,#470,.F.);
#586=ORIENTED_EDGE('',*,*,#469,.T.);
#587=ORIENTED_EDGE('',*,*,#471,.F.);
#588=ORIENTED_EDGE('',*,*,#472,.F.);
#589=ORIENTED_EDGE('',*,*,#473,.F.);
#590=ORIENTED_EDGE('',*,*,#472,.T.);
#591=ORIENTED_EDGE('',*,*,#474,.F.);
#592=ORIENTED_EDGE('',*,*,#464,.F.);
#593=ORIENTED_EDGE('',*,*,#473,.T.);
#594=ORIENTED_EDGE('',*,*,#463,.T.);
#595=ORIENTED_EDGE('',*,*,#467,.T.);
#596=ORIENTED_EDGE('',*,*,#470,.T.);
#597=ORIENTED_EDGE('',*,*,#474,.T.);
#598=ORIENTED_EDGE('',*,*,#471,.T.);
#599=ORIENTED_EDGE('',*,*,#468,.T.);
#600=ORIENTED_EDGE('',*,*,#465,.T.);
#601=ORIENTED_EDGE('',*,*,#475,.F.);
#602=ORIENTED_EDGE('',*,*,#476,.T.);
#603=ORIENTED_EDGE('',*,*,#477,.F.);
#604=ORIENTED_EDGE('',*,*,#476,.F.);
#605=ORIENTED_EDGE('',*,*,#477,.T.);
#606=ORIENTED_EDGE('',*,*,#475,.T.);
#607=ORIENTED_EDGE('',*,*,#478,.F.);
#608=ORIENTED_EDGE('',*,*,#479,.T.);
#609=ORIENTED_EDGE('',*,*,#480,.F.);
#610=ORIENTED_EDGE('',*,*,#481,.F.);
#611=ORIENTED_EDGE('',*,*,#482,.F.);
#612=ORIENTED_EDGE('',*,*,#481,.T.);
#613=ORIENTED_EDGE('',*,*,#483,.F.);
#614=ORIENTED_EDGE('',*,*,#484,.F.);
#615=ORIENTED_EDGE('',*,*,#485,.F.);
#616=ORIENTED_EDGE('',*,*,#484,.T.);
#617=ORIENTED_EDGE('',*,*,#486,.F.);
#618=ORIENTED_EDGE('',*,*,#487,.F.);
#619=ORIENTED_EDGE('',*,*,#488,.F.);
#620=ORIENTED_EDGE('',*,*,#487,.T.);
#621=ORIENTED_EDGE('',*,*,#489,.F.);
#622=ORIENTED_EDGE('',*,*,#479,.F.);
#623=ORIENTED_EDGE('',*,*,#488,.T.);
#624=ORIENTED_EDGE('',*,*,#478,.T.);
#625=ORIENTED_EDGE('',*,*,#482,.T.);
#626=ORIENTED_EDGE('',*,*,#485,.T.);
#627=ORIENTED_EDGE('',*,*,#489,.T.);
#628=ORIENTED_EDGE('',*,*,#486,.T.);
#629=ORIENTED_EDGE('',*,*,#483,.T.);
#630=ORIENTED_EDGE('',*,*,#480,.T.);
#631=ORIENTED_EDGE('',*,*,#490,.F.);
#632=ORIENTED_EDGE('',*,*,#491,.T.);
#633=ORIENTED_EDGE('',*,*,#492,.F.);
#634=ORIENTED_EDGE('',*,*,#493,.F.);
#635=ORIENTED_EDGE('',*,*,#494,.F.);
#636=ORIENTED_EDGE('',*,*,#493,.T.);
#637=ORIENTED_EDGE('',*,*,#495,.F.);
#638=ORIENTED_EDGE('',*,*,#496,.F.);
#639=ORIENTED_EDGE('',*,*,#497,.F.);
#640=ORIENTED_EDGE('',*,*,#496,.T.);
#641=ORIENTED_EDGE('',*,*,#498,.F.);
#642=ORIENTED_EDGE('',*,*,#499,.F.);
#643=ORIENTED_EDGE('',*,*,#500,.F.);
#644=ORIENTED_EDGE('',*,*,#499,.T.);
#645=ORIENTED_EDGE('',*,*,#501,.F.);
#646=ORIENTED_EDGE('',*,*,#491,.F.);
#647=ORIENTED_EDGE('',*,*,#500,.T.);
#648=ORIENTED_EDGE('',*,*,#490,.T.);
#649=ORIENTED_EDGE('',*,*,#494,.T.);
#650=ORIENTED_EDGE('',*,*,#497,.T.);
#651=ORIENTED_EDGE('',*,*,#501,.T.);
#652=ORIENTED_EDGE('',*,*,#498,.T.);
#653=ORIENTED_EDGE('',*,*,#495,.T.);
#654=ORIENTED_EDGE('',*,*,#492,.T.);
#655=ORIENTED_EDGE('',*,*,#502,.F.);
#656=ORIENTED_EDGE('',*,*,#503,.T.);
#657=ORIENTED_EDGE('',*,*,#504,.F.);
#658=ORIENTED_EDGE('',*,*,#505,.F.);
#659=ORIENTED_EDGE('',*,*,#506,.F.);
#660=ORIENTED_EDGE('',*,*,#505,.T.);
#661=ORIENTED_EDGE('',*,*,#507,.F.);
#662=ORIENTED_EDGE('',*,*,#508,.F.);
#663=ORIENTED_EDGE('',*,*,#509,.F.);
#664=ORIENTED_EDGE('',*,*,#508,.T.);
#665=ORIENTED_EDGE('',*,*,#510,.F.);
#666=ORIENTED_EDGE('',*,*,#511,.F.);
#667=ORIENTED_EDGE('',*,*,#512,.F.);
#668=ORIENTED_EDGE('',*,*,#511,.T.);
#669=ORIENTED_EDGE('',*,*,#513,.F.);
#670=ORIENTED_EDGE('',*,*,#503,.F.);
#671=ORIENTED_EDGE('',*,*,#512,.T.);
#672=ORIENTED_EDGE('',*,*,#502,.T.);
#673=ORIENTED_EDGE('',*,*,#506,.T.);
#674=ORIENTED_EDGE('',*,*,#509,.T.);
#675=ORIENTED_EDGE('',*,*,#513,.T.);
#676=ORIENTED_EDGE('',*,*,#510,.T.);
#677=ORIENTED_EDGE('',*,*,#507,.T.);
#678=ORIENTED_EDGE('',*,*,#504,.T.);
#679=ORIENTED_EDGE('',*,*,#514,.F.);
#680=ORIENTED_EDGE('',*,*,#515,.T.);
#681=ORIENTED_EDGE('',*,*,#516,.F.);
#682=ORIENTED_EDGE('',*,*,#515,.F.);
#683=ORIENTED_EDGE('',*,*,#516,.T.);
#684=ORIENTED_EDGE('',*,*,#514,.T.);
#685=ORIENTED_EDGE('',*,*,#517,.F.);
#686=ORIENTED_EDGE('',*,*,#518,.T.);
#687=ORIENTED_EDGE('',*,*,#519,.F.);
#688=ORIENTED_EDGE('',*,*,#520,.F.);
#689=ORIENTED_EDGE('',*,*,#521,.F.);
#690=ORIENTED_EDGE('',*,*,#520,.T.);
#691=ORIENTED_EDGE('',*,*,#522,.F.);
#692=ORIENTED_EDGE('',*,*,#523,.F.);
#693=ORIENTED_EDGE('',*,*,#524,.F.);
#694=ORIENTED_EDGE('',*,*,#523,.T.);
#695=ORIENTED_EDGE('',*,*,#525,.F.);
#696=ORIENTED_EDGE('',*,*,#526,.F.);
#697=ORIENTED_EDGE('',*,*,#527,.F.);
#698=ORIENTED_EDGE('',*,*,#526,.T.);
#699=ORIENTED_EDGE('',*,*,#528,.F.);
#700=ORIENTED_EDGE('',*,*,#518,.F.);
#701=ORIENTED_EDGE('',*,*,#527,.T.);
#702=ORIENTED_EDGE('',*,*,#517,.T.);
#703=ORIENTED_EDGE('',*,*,#521,.T.);
#704=ORIENTED_EDGE('',*,*,#524,.T.);
#705=ORIENTED_EDGE('',*,*,#528,.T.);
#706=ORIENTED_EDGE('',*,*,#525,.T.);
#707=ORIENTED_EDGE('',*,*,#522,.T.);
#708=ORIENTED_EDGE('',*,*,#519,.T.);
#709=ORIENTED_EDGE('',*,*,#529,.F.);
#710=ORIENTED_EDGE('',*,*,#530,.T.);
#711=ORIENTED_EDGE('',*,*,#531,.F.);
#712=ORIENTED_EDGE('',*,*,#532,.F.);
#713=ORIENTED_EDGE('',*,*,#533,.F.);
#714=ORIENTED_EDGE('',*,*,#532,.T.);
#715=ORIENTED_EDGE('',*,*,#534,.F.);
#716=ORIENTED_EDGE('',*,*,#535,.F.);
#717=ORIENTED_EDGE('',*,*,#536,.F.);
#718=ORIENTED_EDGE('',*,*,#535,.T.);
#719=ORIENTED_EDGE('',*,*,#537,.F.);
#720=ORIENTED_EDGE('',*,*,#538,.F.);
#721=ORIENTED_EDGE('',*,*,#539,.F.);
#722=ORIENTED_EDGE('',*,*,#538,.T.);
#723=ORIENTED_EDGE('',*,*,#540,.F.);
#724=ORIENTED_EDGE('',*,*,#530,.F.);
#725=ORIENTED_EDGE('',*,*,#539,.T.);
#726=ORIENTED_EDGE('',*,*,#529,.T.);
#727=ORIENTED_EDGE('',*,*,#533,.T.);
#728=ORIENTED_EDGE('',*,*,#536,.T.);
#729=ORIENTED_EDGE('',*,*,#540,.T.);
#730=ORIENTED_EDGE('',*,*,#537,.T.);
#731=ORIENTED_EDGE('',*,*,#534,.T.);
#732=ORIENTED_EDGE('',*,*,#531,.T.);
#733=ORIENTED_EDGE('',*,*,#541,.F.);
#734=ORIENTED_EDGE('',*,*,#542,.F.);
#735=ORIENTED_EDGE('',*,*,#543,.F.);
#736=ORIENTED_EDGE('',*,*,#544,.T.);
#737=ORIENTED_EDGE('',*,*,#545,.T.);
#738=ORIENTED_EDGE('',*,*,#542,.T.);
#739=ORIENTED_EDGE('',*,*,#546,.T.);
#740=ORIENTED_EDGE('',*,*,#547,.F.);
#741=ORIENTED_EDGE('',*,*,#548,.F.);
#742=ORIENTED_EDGE('',*,*,#549,.F.);
#743=ORIENTED_EDGE('',*,*,#550,.T.);
#744=ORIENTED_EDGE('',*,*,#551,.T.);
#745=ORIENTED_EDGE('',*,*,#548,.T.);
#746=ORIENTED_EDGE('',*,*,#552,.T.);
#747=ORIENTED_EDGE('',*,*,#541,.T.);
#748=ORIENTED_EDGE('',*,*,#553,.T.);
#749=ORIENTED_EDGE('',*,*,#549,.T.);
#750=ORIENTED_EDGE('',*,*,#554,.T.);
#751=ORIENTED_EDGE('',*,*,#555,.F.);
#752=ORIENTED_EDGE('',*,*,#556,.F.);
#753=ORIENTED_EDGE('',*,*,#557,.F.);
#754=ORIENTED_EDGE('',*,*,#558,.T.);
#755=ORIENTED_EDGE('',*,*,#559,.T.);
#756=ORIENTED_EDGE('',*,*,#556,.T.);
#757=ORIENTED_EDGE('',*,*,#560,.T.);
#758=ORIENTED_EDGE('',*,*,#561,.F.);
#759=ORIENTED_EDGE('',*,*,#562,.F.);
#760=ORIENTED_EDGE('',*,*,#563,.F.);
#761=ORIENTED_EDGE('',*,*,#564,.T.);
#762=ORIENTED_EDGE('',*,*,#565,.T.);
#763=ORIENTED_EDGE('',*,*,#562,.T.);
#764=ORIENTED_EDGE('',*,*,#566,.T.);
#765=ORIENTED_EDGE('',*,*,#547,.T.);
#766=ORIENTED_EDGE('',*,*,#567,.T.);
#767=ORIENTED_EDGE('',*,*,#563,.T.);
#768=ORIENTED_EDGE('',*,*,#568,.T.);
#769=ORIENTED_EDGE('',*,*,#561,.T.);
#770=ORIENTED_EDGE('',*,*,#569,.T.);
#771=ORIENTED_EDGE('',*,*,#557,.T.);
#772=ORIENTED_EDGE('',*,*,#570,.T.);
#773=ORIENTED_EDGE('',*,*,#555,.T.);
#774=ORIENTED_EDGE('',*,*,#571,.T.);
#775=ORIENTED_EDGE('',*,*,#543,.T.);
#776=ORIENTED_EDGE('',*,*,#572,.T.);
#777=ORIENTED_EDGE('',*,*,#546,.F.);
#778=ORIENTED_EDGE('',*,*,#554,.F.);
#779=ORIENTED_EDGE('',*,*,#551,.F.);
#780=ORIENTED_EDGE('',*,*,#573,.T.);
#781=ORIENTED_EDGE('',*,*,#552,.F.);
#782=ORIENTED_EDGE('',*,*,#568,.F.);
#783=ORIENTED_EDGE('',*,*,#565,.F.);
#784=ORIENTED_EDGE('',*,*,#574,.T.);
#785=ORIENTED_EDGE('',*,*,#553,.F.);
#786=ORIENTED_EDGE('',*,*,#571,.F.);
#787=ORIENTED_EDGE('',*,*,#569,.F.);
#788=ORIENTED_EDGE('',*,*,#567,.F.);
#789=ORIENTED_EDGE('',*,*,#559,.F.);
#790=ORIENTED_EDGE('',*,*,#575,.T.);
#791=ORIENTED_EDGE('',*,*,#566,.F.);
#792=ORIENTED_EDGE('',*,*,#570,.F.);
#793=ORIENTED_EDGE('',*,*,#545,.F.);
#794=ORIENTED_EDGE('',*,*,#576,.T.);
#795=ORIENTED_EDGE('',*,*,#560,.F.);
#796=ORIENTED_EDGE('',*,*,#572,.F.);
#797=ORIENTED_EDGE('',*,*,#544,.F.);
#798=ORIENTED_EDGE('',*,*,#573,.F.);
#799=ORIENTED_EDGE('',*,*,#550,.F.);
#800=ORIENTED_EDGE('',*,*,#574,.F.);
#801=ORIENTED_EDGE('',*,*,#564,.F.);
#802=ORIENTED_EDGE('',*,*,#575,.F.);
#803=ORIENTED_EDGE('',*,*,#558,.F.);
#804=ORIENTED_EDGE('',*,*,#576,.F.);
#805=PLANE('',#933);
#806=PLANE('',#934);
#807=PLANE('',#935);
#808=PLANE('',#936);
#809=PLANE('',#937);
#810=PLANE('',#938);
#811=PLANE('',#942);
#812=PLANE('',#943);
#813=PLANE('',#944);
#814=PLANE('',#945);
#815=PLANE('',#946);
#816=PLANE('',#947);
#817=PLANE('',#948);
#818=PLANE('',#949);
#819=PLANE('',#950);
#820=PLANE('',#951);
#821=PLANE('',#952);
#822=PLANE('',#953);
#823=PLANE('',#954);
#824=PLANE('',#955);
#825=PLANE('',#956);
#826=PLANE('',#957);
#827=PLANE('',#958);
#828=PLANE('',#959);
#829=PLANE('',#960);
#830=PLANE('',#961);
#831=PLANE('',#965);
#832=PLANE('',#966);
#833=PLANE('',#967);
#834=PLANE('',#968);
#835=PLANE('',#969);
#836=PLANE('',#970);
#837=PLANE('',#971);
#838=PLANE('',#972);
#839=PLANE('',#973);
#840=PLANE('',#974);
#841=PLANE('',#975);
#842=PLANE('',#976);
#843=PLANE('',#977);
#844=PLANE('',#978);
#845=PLANE('',#1007);
#846=PLANE('',#1008);
#847=PLANE('',#1009);
#848=PLANE('',#1010);
#849=PLANE('',#1011);
#850=PLANE('',#1012);
#851=ADVANCED_FACE('',(#83),#805,.T.);
#852=ADVANCED_FACE('',(#84),#806,.T.);
#853=ADVANCED_FACE('',(#85),#807,.T.);
#854=ADVANCED_FACE('',(#86),#808,.T.);
#855=ADVANCED_FACE('',(#87),#809,.T.);
#856=ADVANCED_FACE('',(#88),#810,.T.);
#857=ADVANCED_FACE('',(#89),#37,.T.);
#858=ADVANCED_FACE('',(#90),#811,.T.);
#859=ADVANCED_FACE('',(#91),#812,.F.);
#860=ADVANCED_FACE('',(#92),#813,.T.);
#861=ADVANCED_FACE('',(#93),#814,.T.);
#862=ADVANCED_FACE('',(#94),#815,.T.);
#863=ADVANCED_FACE('',(#95),#816,.T.);
#864=ADVANCED_FACE('',(#96),#817,.T.);
#865=ADVANCED_FACE('',(#97),#818,.T.);
#866=ADVANCED_FACE('',(#98),#819,.T.);
#867=ADVANCED_FACE('',(#99),#820,.T.);
#868=ADVANCED_FACE('',(#100),#821,.T.);
#869=ADVANCED_FACE('',(#101),#822,.T.);
#870=ADVANCED_FACE('',(#102),#823,.T.);
#871=ADVANCED_FACE('',(#103),#824,.T.);
#872=ADVANCED_FACE('',(#104),#825,.T.);
#873=ADVANCED_FACE('',(#105),#826,.T.);
#874=ADVANCED_FACE('',(#106),#827,.T.);
#875=ADVANCED_FACE('',(#107),#828,.T.);
#876=ADVANCED_FACE('',(#108),#829,.T.);
#877=ADVANCED_FACE('',(#109),#830,.T.);
#878=ADVANCED_FACE('',(#110),#38,.T.);
#879=ADVANCED_FACE('',(#111),#831,.T.);
#880=ADVANCED_FACE('',(#112),#832,.F.);
#881=ADVANCED_FACE('',(#113),#833,.T.);
#882=ADVANCED_FACE('',(#114),#834,.T.);
#883=ADVANCED_FACE('',(#115),#835,.T.);
#884=ADVANCED_FACE('',(#116),#836,.T.);
#885=ADVANCED_FACE('',(#117),#837,.T.);
#886=ADVANCED_FACE('',(#118),#838,.T.);
#887=ADVANCED_FACE('',(#119),#839,.T.);
#888=ADVANCED_FACE('',(#120),#840,.T.);
#889=ADVANCED_FACE('',(#121),#841,.T.);
#890=ADVANCED_FACE('',(#122),#842,.T.);
#891=ADVANCED_FACE('',(#123),#843,.T.);
#892=ADVANCED_FACE('',(#124),#844,.T.);
#893=ADVANCED_FACE('',(#125),#13,.T.);
#894=ADVANCED_FACE('',(#126),#39,.T.);
#895=ADVANCED_FACE('',(#127),#14,.T.);
#896=ADVANCED_FACE('',(#128),#40,.T.);
#897=ADVANCED_FACE('',(#129),#41,.T.);
#898=ADVANCED_FACE('',(#130),#15,.T.);
#899=ADVANCED_FACE('',(#131),#42,.T.);
#900=ADVANCED_FACE('',(#132),#16,.T.);
#901=ADVANCED_FACE('',(#133),#43,.T.);
#902=ADVANCED_FACE('',(#134),#44,.T.);
#903=ADVANCED_FACE('',(#135),#45,.T.);
#904=ADVANCED_FACE('',(#136),#46,.T.);
#905=ADVANCED_FACE('',(#137),#845,.T.);
#906=ADVANCED_FACE('',(#138),#846,.T.);
#907=ADVANCED_FACE('',(#139),#847,.T.);
#908=ADVANCED_FACE('',(#140),#848,.T.);
#909=ADVANCED_FACE('',(#141),#849,.T.);
#910=ADVANCED_FACE('',(#142),#850,.F.);
#911=CLOSED_SHELL('',(#851,#852,#853,#854,#855,#856));
#912=CLOSED_SHELL('',(#857,#858,#859));
#913=CLOSED_SHELL('',(#860,#861,#862,#863,#864,#865));
#914=CLOSED_SHELL('',(#866,#867,#868,#869,#870,#871));
#915=CLOSED_SHELL('',(#872,#873,#874,#875,#876,#877));
#916=CLOSED_SHELL('',(#878,#879,#880));
#917=CLOSED_SHELL('',(#881,#882,#883,#884,#885,#886));
#918=CLOSED_SHELL('',(#887,#888,#889,#890,#891,#892));
#919=CLOSED_SHELL('',(#893,#894,#895,#896,#897,#898,#899,#900,#901,#902,
#903,#904,#905,#906,#907,#908,#909,#910));
#920=DERIVED_UNIT_ELEMENT(#922,1.);
#921=DERIVED_UNIT_ELEMENT(#1521,-3.);
#922=(
MASS_UNIT()
NAMED_UNIT(*)
SI_UNIT(.KILO.,.GRAM.)
);
#923=DERIVED_UNIT((#920,#921));
#924=MEASURE_REPRESENTATION_ITEM('density measure',
POSITIVE_RATIO_MEASURE(7850.),#923);
#925=PROPERTY_DEFINITION_REPRESENTATION(#930,#927);
#926=PROPERTY_DEFINITION_REPRESENTATION(#931,#928);
#927=REPRESENTATION('material name',(#929),#1518);
#928=REPRESENTATION('density',(#924),#1518);
#929=DESCRIPTIVE_REPRESENTATION_ITEM('Steel','Steel');
#930=PROPERTY_DEFINITION('material property','material name',#1528);
#931=PROPERTY_DEFINITION('material property','density of part',#1528);
#932=AXIS2_PLACEMENT_3D('',#1269,#1013,#1014);
#933=AXIS2_PLACEMENT_3D('',#1270,#1015,#1016);
#934=AXIS2_PLACEMENT_3D('',#1279,#1021,#1022);
#935=AXIS2_PLACEMENT_3D('',#1285,#1026,#1027);
#936=AXIS2_PLACEMENT_3D('',#1291,#1031,#1032);
#937=AXIS2_PLACEMENT_3D('',#1294,#1035,#1036);
#938=AXIS2_PLACEMENT_3D('',#1295,#1037,#1038);
#939=AXIS2_PLACEMENT_3D('',#1296,#1039,#1040);
#940=AXIS2_PLACEMENT_3D('',#1298,#1041,#1042);
#941=AXIS2_PLACEMENT_3D('',#1301,#1044,#1045);
#942=AXIS2_PLACEMENT_3D('',#1302,#1046,#1047);
#943=AXIS2_PLACEMENT_3D('',#1303,#1048,#1049);
#944=AXIS2_PLACEMENT_3D('',#1304,#1050,#1051);
#945=AXIS2_PLACEMENT_3D('',#1313,#1056,#1057);
#946=AXIS2_PLACEMENT_3D('',#1319,#1061,#1062);
#947=AXIS2_PLACEMENT_3D('',#1325,#1066,#1067);
#948=AXIS2_PLACEMENT_3D('',#1328,#1070,#1071);
#949=AXIS2_PLACEMENT_3D('',#1329,#1072,#1073);
#950=AXIS2_PLACEMENT_3D('',#1330,#1074,#1075);
#951=AXIS2_PLACEMENT_3D('',#1339,#1080,#1081);
#952=AXIS2_PLACEMENT_3D('',#1345,#1085,#1086);
#953=AXIS2_PLACEMENT_3D('',#1351,#1090,#1091);
#954=AXIS2_PLACEMENT_3D('',#1354,#1094,#1095);
#955=AXIS2_PLACEMENT_3D('',#1355,#1096,#1097);
#956=AXIS2_PLACEMENT_3D('',#1356,#1098,#1099);
#957=AXIS2_PLACEMENT_3D('',#1365,#1104,#1105);
#958=AXIS2_PLACEMENT_3D('',#1371,#1109,#1110);
#959=AXIS2_PLACEMENT_3D('',#1377,#1114,#1115);
#960=AXIS2_PLACEMENT_3D('',#1380,#1118,#1119);
#961=AXIS2_PLACEMENT_3D('',#1381,#1120,#1121);
#962=AXIS2_PLACEMENT_3D('',#1382,#1122,#1123);
#963=AXIS2_PLACEMENT_3D('',#1384,#1124,#1125);
#964=AXIS2_PLACEMENT_3D('',#1387,#1127,#1128);
#965=AXIS2_PLACEMENT_3D('',#1388,#1129,#1130);
#966=AXIS2_PLACEMENT_3D('',#1389,#1131,#1132);
#967=AXIS2_PLACEMENT_3D('',#1390,#1133,#1134);
#968=AXIS2_PLACEMENT_3D('',#1399,#1139,#1140);
#969=AXIS2_PLACEMENT_3D('',#1405,#1144,#1145);
#970=AXIS2_PLACEMENT_3D('',#1411,#1149,#1150);
#971=AXIS2_PLACEMENT_3D('',#1414,#1153,#1154);
#972=AXIS2_PLACEMENT_3D('',#1415,#1155,#1156);
#973=AXIS2_PLACEMENT_3D('',#1416,#1157,#1158);
#974=AXIS2_PLACEMENT_3D('',#1425,#1163,#1164);
#975=AXIS2_PLACEMENT_3D('',#1431,#1168,#1169);
#976=AXIS2_PLACEMENT_3D('',#1437,#1173,#1174);
#977=AXIS2_PLACEMENT_3D('',#1440,#1177,#1178);
#978=AXIS2_PLACEMENT_3D('',#1441,#1179,#1180);
#979=AXIS2_PLACEMENT_3D('',#1442,#1181,#1182);
#980=AXIS2_PLACEMENT_3D('',#1445,#1183,#1184);
#981=AXIS2_PLACEMENT_3D('',#1447,#1185,#1186);
#982=AXIS2_PLACEMENT_3D('',#1448,#1187,#1188);
#983=AXIS2_PLACEMENT_3D('',#1449,#1189,#1190);
#984=AXIS2_PLACEMENT_3D('',#1452,#1191,#1192);
#985=AXIS2_PLACEMENT_3D('',#1455,#1195,#1196);
#986=AXIS2_PLACEMENT_3D('',#1458,#1197,#1198);
#987=AXIS2_PLACEMENT_3D('',#1460,#1199,#1200);
#988=AXIS2_PLACEMENT_3D('',#1461,#1201,#1202);
#989=AXIS2_PLACEMENT_3D('',#1462,#1203,#1204);
#990=AXIS2_PLACEMENT_3D('',#1465,#1205,#1206);
#991=AXIS2_PLACEMENT_3D('',#1468,#1209,#1210);
#992=AXIS2_PLACEMENT_3D('',#1471,#1213,#1214);
#993=AXIS2_PLACEMENT_3D('',#1474,#1215,#1216);
#994=AXIS2_PLACEMENT_3D('',#1476,#1217,#1218);
#995=AXIS2_PLACEMENT_3D('',#1477,#1219,#1220);
#996=AXIS2_PLACEMENT_3D('',#1478,#1221,#1222);
#997=AXIS2_PLACEMENT_3D('',#1481,#1223,#1224);
#998=AXIS2_PLACEMENT_3D('',#1484,#1227,#1228);
#999=AXIS2_PLACEMENT_3D('',#1487,#1229,#1230);
#1000=AXIS2_PLACEMENT_3D('',#1489,#1231,#1232);
#1001=AXIS2_PLACEMENT_3D('',#1490,#1233,#1234);
#1002=AXIS2_PLACEMENT_3D('',#1491,#1235,#1236);
#1003=AXIS2_PLACEMENT_3D('',#1494,#1237,#1238);
#1004=AXIS2_PLACEMENT_3D('',#1497,#1241,#1242);
#1005=AXIS2_PLACEMENT_3D('',#1500,#1245,#1246);
#1006=AXIS2_PLACEMENT_3D('',#1503,#1249,#1250);
#1007=AXIS2_PLACEMENT_3D('',#1506,#1253,#1254);
#1008=AXIS2_PLACEMENT_3D('',#1508,#1256,#1257);
#1009=AXIS2_PLACEMENT_3D('',#1510,#1259,#1260);
#1010=AXIS2_PLACEMENT_3D('',#1511,#1261,#1262);
#1011=AXIS2_PLACEMENT_3D('',#1513,#1264,#1265);
#1012=AXIS2_PLACEMENT_3D('',#1515,#1267,#1268);
#1013=DIRECTION('axis',(0.,0.,1.));
#1014=DIRECTION('refdir',(1.,0.,0.));
#1015=DIRECTION('center_axis',(1.,0.,0.));
#1016=DIRECTION('ref_axis',(0.,-1.,0.));
#1017=DIRECTION('',(0.,1.,0.));
#1018=DIRECTION('',(0.,0.,-1.));
#1019=DIRECTION('',(0.,-1.,0.));
#1020=DIRECTION('',(0.,0.,-1.));
#1021=DIRECTION('center_axis',(0.,1.,0.));
#1022=DIRECTION('ref_axis',(1.,0.,0.));
#1023=DIRECTION('',(-1.,0.,0.));
#1024=DIRECTION('',(1.,0.,0.));
#1025=DIRECTION('',(0.,0.,-1.));
#1026=DIRECTION('center_axis',(-1.,0.,0.));
#1027=DIRECTION('ref_axis',(0.,1.,0.));
#1028=DIRECTION('',(0.,-1.,0.));
#1029=DIRECTION('',(0.,1.,0.));
#1030=DIRECTION('',(0.,0.,-1.));
#1031=DIRECTION('center_axis',(1.38777878078144E-15,-1.,0.));
#1032=DIRECTION('ref_axis',(-1.,-1.38777878078144E-15,0.));
#1033=DIRECTION('',(1.,1.38777878078144E-15,0.));
#1034=DIRECTION('',(-1.,-1.38777878078144E-15,0.));
#1035=DIRECTION('center_axis',(0.,0.,1.));
#1036=DIRECTION('ref_axis',(1.,0.,0.));
#1037=DIRECTION('center_axis',(0.,0.,-1.));
#1038=DIRECTION('ref_axis',(-1.,0.,0.));
#1039=DIRECTION('center_axis',(0.,0.,-1.));
#1040=DIRECTION('ref_axis',(1.,0.,0.));
#1041=DIRECTION('center_axis',(0.,0.,-1.));
#1042=DIRECTION('ref_axis',(1.,0.,0.));
#1043=DIRECTION('',(0.,0.,1.));
#1044=DIRECTION('center_axis',(0.,0.,1.));
#1045=DIRECTION('ref_axis',(1.,0.,0.));
#1046=DIRECTION('center_axis',(0.,0.,1.));
#1047=DIRECTION('ref_axis',(1.,0.,0.));
#1048=DIRECTION('center_axis',(0.,0.,1.));
#1049=DIRECTION('ref_axis',(1.,0.,0.));
#1050=DIRECTION('center_axis',(1.,0.,0.));
#1051=DIRECTION('ref_axis',(0.,-1.,0.));
#1052=DIRECTION('',(0.,1.,0.));
#1053=DIRECTION('',(0.,0.,-1.));
#1054=DIRECTION('',(0.,-1.,0.));
#1055=DIRECTION('',(0.,0.,-1.));
#1056=DIRECTION('center_axis',(0.,1.,0.));
#1057=DIRECTION('ref_axis',(1.,0.,0.));
#1058=DIRECTION('',(-1.,0.,0.));
#1059=DIRECTION('',(1.,0.,0.));
#1060=DIRECTION('',(0.,0.,-1.));
#1061=DIRECTION('center_axis',(-1.,0.,0.));
#1062=DIRECTION('ref_axis',(0.,1.,0.));
#1063=DIRECTION('',(0.,-1.,0.));
#1064=DIRECTION('',(0.,1.,0.));
#1065=DIRECTION('',(0.,0.,-1.));
#1066=DIRECTION('center_axis',(1.38777878078145E-15,-1.,0.));
#1067=DIRECTION('ref_axis',(-1.,-1.38777878078145E-15,0.));
#1068=DIRECTION('',(1.,1.38777878078145E-15,0.));
#1069=DIRECTION('',(-1.,-1.38777878078145E-15,0.));
#1070=DIRECTION('center_axis',(0.,0.,1.));
#1071=DIRECTION('ref_axis',(1.,0.,0.));
#1072=DIRECTION('center_axis',(0.,0.,-1.));
#1073=DIRECTION('ref_axis',(-1.,0.,0.));
#1074=DIRECTION('center_axis',(1.,0.,0.));
#1075=DIRECTION('ref_axis',(0.,-1.,0.));
#1076=DIRECTION('',(0.,1.,0.));
#1077=DIRECTION('',(0.,0.,-1.));
#1078=DIRECTION('',(0.,-1.,0.));
#1079=DIRECTION('',(0.,0.,-1.));
#1080=DIRECTION('center_axis',(0.,1.,0.));
#1081=DIRECTION('ref_axis',(1.,0.,0.));
#1082=DIRECTION('',(-1.,0.,0.));
#1083=DIRECTION('',(1.,0.,0.));
#1084=DIRECTION('',(0.,0.,-1.));
#1085=DIRECTION('center_axis',(-1.,0.,0.));
#1086=DIRECTION('ref_axis',(0.,1.,0.));
#1087=DIRECTION('',(0.,-1.,0.));
#1088=DIRECTION('',(0.,1.,0.));
#1089=DIRECTION('',(0.,0.,-1.));
#1090=DIRECTION('center_axis',(1.38777878078144E-15,-1.,0.));
#1091=DIRECTION('ref_axis',(-1.,-1.38777878078144E-15,0.));
#1092=DIRECTION('',(1.,1.38777878078144E-15,0.));
#1093=DIRECTION('',(-1.,-1.38777878078144E-15,0.));
#1094=DIRECTION('center_axis',(0.,0.,1.));
#1095=DIRECTION('ref_axis',(1.,0.,0.));
#1096=DIRECTION('center_axis',(0.,0.,-1.));
#1097=DIRECTION('ref_axis',(-1.,0.,0.));
#1098=DIRECTION('center_axis',(1.,0.,0.));
#1099=DIRECTION('ref_axis',(0.,-1.,0.));
#1100=DIRECTION('',(0.,1.,0.));
#1101=DIRECTION('',(0.,0.,-1.));
#1102=DIRECTION('',(0.,-1.,0.));
#1103=DIRECTION('',(0.,0.,-1.));
#1104=DIRECTION('center_axis',(0.,1.,0.));
#1105=DIRECTION('ref_axis',(1.,0.,0.));
#1106=DIRECTION('',(-1.,0.,0.));
#1107=DIRECTION('',(1.,0.,0.));
#1108=DIRECTION('',(0.,0.,-1.));
#1109=DIRECTION('center_axis',(-1.,0.,0.));
#1110=DIRECTION('ref_axis',(0.,1.,0.));
#1111=DIRECTION('',(0.,-1.,0.));
#1112=DIRECTION('',(0.,1.,0.));
#1113=DIRECTION('',(0.,0.,-1.));
#1114=DIRECTION('center_axis',(1.38777878078144E-15,-1.,0.));
#1115=DIRECTION('ref_axis',(-1.,-1.38777878078144E-15,0.));
#1116=DIRECTION('',(1.,1.38777878078144E-15,0.));
#1117=DIRECTION('',(-1.,-1.38777878078144E-15,0.));
#1118=DIRECTION('center_axis',(0.,0.,1.));
#1119=DIRECTION('ref_axis',(1.,0.,0.));
#1120=DIRECTION('center_axis',(0.,0.,-1.));
#1121=DIRECTION('ref_axis',(-1.,0.,0.));
#1122=DIRECTION('center_axis',(0.,0.,-1.));
#1123=DIRECTION('ref_axis',(1.,0.,0.));
#1124=DIRECTION('center_axis',(0.,0.,-1.));
#1125=DIRECTION('ref_axis',(1.,0.,0.));
#1126=DIRECTION('',(0.,0.,1.));
#1127=DIRECTION('center_axis',(0.,0.,1.));
#1128=DIRECTION('ref_axis',(1.,0.,0.));
#1129=DIRECTION('center_axis',(0.,0.,1.));
#1130=DIRECTION('ref_axis',(1.,0.,0.));
#1131=DIRECTION('center_axis',(0.,0.,1.));
#1132=DIRECTION('ref_axis',(1.,0.,0.));
#1133=DIRECTION('center_axis',(0.,1.,0.));
#1134=DIRECTION('ref_axis',(1.,0.,0.));
#1135=DIRECTION('',(-1.,0.,0.));
#1136=DIRECTION('',(0.,0.,-1.));
#1137=DIRECTION('',(1.,0.,0.));
#1138=DIRECTION('',(0.,0.,-1.));
#1139=DIRECTION('center_axis',(-1.,0.,0.));
#1140=DIRECTION('ref_axis',(0.,1.,0.));
#1141=DIRECTION('',(0.,-1.,0.));
#1142=DIRECTION('',(0.,1.,0.));
#1143=DIRECTION('',(0.,0.,-1.));
#1144=DIRECTION('center_axis',(1.38777878078145E-15,-1.,0.));
#1145=DIRECTION('ref_axis',(-1.,-1.38777878078145E-15,0.));
#1146=DIRECTION('',(1.,1.38777878078145E-15,0.));
#1147=DIRECTION('',(-1.,-1.38777878078145E-15,0.));
#1148=DIRECTION('',(0.,0.,-1.));
#1149=DIRECTION('center_axis',(1.,0.,0.));
#1150=DIRECTION('ref_axis',(0.,-1.,0.));
#1151=DIRECTION('',(0.,1.,0.));
#1152=DIRECTION('',(0.,-1.,0.));
#1153=DIRECTION('center_axis',(0.,0.,1.));
#1154=DIRECTION('ref_axis',(1.,0.,0.));
#1155=DIRECTION('center_axis',(0.,0.,-1.));
#1156=DIRECTION('ref_axis',(-1.,0.,0.));
#1157=DIRECTION('center_axis',(1.,0.,0.));
#1158=DIRECTION('ref_axis',(0.,-1.,0.));
#1159=DIRECTION('',(0.,1.,0.));
#1160=DIRECTION('',(0.,0.,-1.));
#1161=DIRECTION('',(0.,-1.,0.));
#1162=DIRECTION('',(0.,0.,-1.));
#1163=DIRECTION('center_axis',(0.,1.,0.));
#1164=DIRECTION('ref_axis',(1.,0.,0.));
#1165=DIRECTION('',(-1.,0.,0.));
#1166=DIRECTION('',(1.,0.,0.));
#1167=DIRECTION('',(0.,0.,-1.));
#1168=DIRECTION('center_axis',(-1.,0.,0.));
#1169=DIRECTION('ref_axis',(0.,1.,0.));
#1170=DIRECTION('',(0.,-1.,0.));
#1171=DIRECTION('',(0.,1.,0.));
#1172=DIRECTION('',(0.,0.,-1.));
#1173=DIRECTION('center_axis',(1.38777878078144E-15,-1.,0.));
#1174=DIRECTION('ref_axis',(-1.,-1.38777878078144E-15,0.));
#1175=DIRECTION('',(1.,1.38777878078144E-15,0.));
#1176=DIRECTION('',(-1.,-1.38777878078144E-15,0.));
#1177=DIRECTION('center_axis',(0.,0.,1.));
#1178=DIRECTION('ref_axis',(1.,0.,0.));
#1179=DIRECTION('center_axis',(0.,0.,-1.));
#1180=DIRECTION('ref_axis',(-1.,0.,0.));
#1181=DIRECTION('center_axis',(0.40824829046386,-0.816496580927729,0.40824829046386));
#1182=DIRECTION('ref_axis',(0.577350269189627,0.577350269189623,0.577350269189627));
#1183=DIRECTION('center_axis',(0.,1.,1.11022302462516E-14));
#1184=DIRECTION('ref_axis',(1.,0.,0.));
#1185=DIRECTION('center_axis',(0.,0.,1.));
#1186=DIRECTION('ref_axis',(0.,1.,0.));
#1187=DIRECTION('center_axis',(1.,0.,0.));
#1188=DIRECTION('ref_axis',(0.,0.,1.));
#1189=DIRECTION('center_axis',(0.,0.,1.));
#1190=DIRECTION('ref_axis',(0.707106781186548,0.707106781186548,0.));
#1191=DIRECTION('center_axis',(0.,0.,1.));
#1192=DIRECTION('ref_axis',(0.707106781186548,0.707106781186548,0.));
#1193=DIRECTION('',(0.,0.,1.));
#1194=DIRECTION('',(0.,0.,-1.));
#1195=DIRECTION('center_axis',(-0.408248290463862,-0.816496580927728,-0.408248290463862));
#1196=DIRECTION('ref_axis',(0.577350269189624,-0.577350269189629,0.577350269189624));
#1197=DIRECTION('center_axis',(1.,0.,0.));
#1198=DIRECTION('ref_axis',(0.,-1.,0.));
#1199=DIRECTION('center_axis',(0.,0.,1.));
#1200=DIRECTION('ref_axis',(1.,0.,0.));
#1201=DIRECTION('center_axis',(0.,-1.,0.));
#1202=DIRECTION('ref_axis',(0.,0.,1.));
#1203=DIRECTION('center_axis',(0.,0.,1.));
#1204=DIRECTION('ref_axis',(0.707106781186548,-0.707106781186548,0.));
#1205=DIRECTION('center_axis',(0.,0.,1.));
#1206=DIRECTION('ref_axis',(0.707106781186548,-0.707106781186548,0.));
#1207=DIRECTION('',(0.,0.,1.));
#1208=DIRECTION('',(0.,0.,-1.));
#1209=DIRECTION('center_axis',(0.,1.,0.));
#1210=DIRECTION('ref_axis',(0.707106781186555,0.,0.70710678118654));
#1211=DIRECTION('',(0.,-1.,0.));
#1212=DIRECTION('',(0.,1.,0.));
#1213=DIRECTION('center_axis',(-0.408248290463862,-0.816496580927728,0.408248290463862));
#1214=DIRECTION('ref_axis',(-0.577350269189624,0.577350269189629,0.577350269189624));
#1215=DIRECTION('center_axis',(-1.,0.,0.));
#1216=DIRECTION('ref_axis',(0.,1.,0.));
#1217=DIRECTION('center_axis',(0.,0.,1.));
#1218=DIRECTION('ref_axis',(-1.,0.,0.));
#1219=DIRECTION('center_axis',(0.,1.,0.));
#1220=DIRECTION('ref_axis',(0.,0.,1.));
#1221=DIRECTION('center_axis',(0.,0.,1.));
#1222=DIRECTION('ref_axis',(-0.707106781186548,0.707106781186548,0.));
#1223=DIRECTION('center_axis',(0.,0.,1.));
#1224=DIRECTION('ref_axis',(-0.707106781186548,0.707106781186548,0.));
#1225=DIRECTION('',(0.,0.,1.));
#1226=DIRECTION('',(0.,0.,-1.));
#1227=DIRECTION('center_axis',(0.40824829046386,-0.816496580927729,-0.40824829046386));
#1228=DIRECTION('ref_axis',(-0.577350269189624,-0.577350269189629,0.577350269189624));
#1229=DIRECTION('center_axis',(0.,-1.,0.));
#1230=DIRECTION('ref_axis',(-1.,0.,0.));
#1231=DIRECTION('center_axis',(0.,0.,1.));
#1232=DIRECTION('ref_axis',(0.,-1.,0.));
#1233=DIRECTION('center_axis',(-1.,0.,0.));
#1234=DIRECTION('ref_axis',(0.,0.,1.));
#1235=DIRECTION('center_axis',(0.,0.,1.));
#1236=DIRECTION('ref_axis',(-0.707106781186548,-0.707106781186548,0.));
#1237=DIRECTION('center_axis',(0.,0.,1.));
#1238=DIRECTION('ref_axis',(-0.707106781186548,-0.707106781186548,0.));
#1239=DIRECTION('',(0.,0.,1.));
#1240=DIRECTION('',(0.,0.,-1.));
#1241=DIRECTION('center_axis',(1.,0.,0.));
#1242=DIRECTION('ref_axis',(0.,-0.707106781186555,0.70710678118654));
#1243=DIRECTION('',(-1.,0.,0.));
#1244=DIRECTION('',(1.,0.,0.));
#1245=DIRECTION('center_axis',(0.,-1.,0.));
#1246=DIRECTION('ref_axis',(-0.707106781186555,0.,0.70710678118654));
#1247=DIRECTION('',(0.,1.,0.));
#1248=DIRECTION('',(0.,-1.,0.));
#1249=DIRECTION('center_axis',(-1.,0.,0.));
#1250=DIRECTION('ref_axis',(0.,0.707106781186555,0.70710678118654));
#1251=DIRECTION('',(1.,0.,0.));
#1252=DIRECTION('',(-1.,0.,0.));
#1253=DIRECTION('center_axis',(1.,0.,0.));
#1254=DIRECTION('ref_axis',(0.,1.,0.));
#1255=DIRECTION('',(0.,1.,0.));
#1256=DIRECTION('center_axis',(0.,-1.,0.));
#1257=DIRECTION('ref_axis',(1.,0.,0.));
#1258=DIRECTION('',(1.,0.,0.));
#1259=DIRECTION('center_axis',(0.,0.,1.));
#1260=DIRECTION('ref_axis',(1.,0.,0.));
#1261=DIRECTION('center_axis',(-1.,0.,0.));
#1262=DIRECTION('ref_axis',(0.,-1.,0.));
#1263=DIRECTION('',(0.,-1.,0.));
#1264=DIRECTION('center_axis',(0.,1.,0.));
#1265=DIRECTION('ref_axis',(-1.,0.,0.));
#1266=DIRECTION('',(-1.,0.,0.));
#1267=DIRECTION('center_axis',(0.,0.,1.));
#1268=DIRECTION('ref_axis',(1.,0.,0.));
#1269=CARTESIAN_POINT('',(0.,0.,0.));
#1270=CARTESIAN_POINT('Origin',(7.77,-3.3,0.));
#1271=CARTESIAN_POINT('',(7.77,-4.3,0.));
#1272=CARTESIAN_POINT('',(7.77,-3.3,0.));
#1273=CARTESIAN_POINT('',(7.77,-4.3,0.));
#1274=CARTESIAN_POINT('',(7.77,-4.3,-3.8));
#1275=CARTESIAN_POINT('',(7.77,-4.3,0.));
#1276=CARTESIAN_POINT('',(7.77,-3.3,-3.8));
#1277=CARTESIAN_POINT('',(7.77,-4.3,-3.8));
#1278=CARTESIAN_POINT('',(7.77,-3.3,0.));
#1279=CARTESIAN_POINT('Origin',(7.37,-3.3,0.));
#1280=CARTESIAN_POINT('',(7.37,-3.3,0.));
#1281=CARTESIAN_POINT('',(7.77,-3.3,0.));
#1282=CARTESIAN_POINT('',(7.37,-3.3,-3.8));
#1283=CARTESIAN_POINT('',(7.77,-3.3,-3.8));
#1284=CARTESIAN_POINT('',(7.37,-3.3,0.));
#1285=CARTESIAN_POINT('Origin',(7.37,-4.3,0.));
#1286=CARTESIAN_POINT('',(7.37,-4.3,0.));
#1287=CARTESIAN_POINT('',(7.37,-3.3,0.));
#1288=CARTESIAN_POINT('',(7.37,-4.3,-3.8));
#1289=CARTESIAN_POINT('',(7.37,-3.3,-3.8));
#1290=CARTESIAN_POINT('',(7.37,-4.3,0.));
#1291=CARTESIAN_POINT('Origin',(7.77,-4.3,0.));
#1292=CARTESIAN_POINT('',(7.37,-4.3,0.));
#1293=CARTESIAN_POINT('',(7.37,-4.3,-3.8));
#1294=CARTESIAN_POINT('Origin',(7.57,-3.8,0.));
#1295=CARTESIAN_POINT('Origin',(7.57,-3.8,-3.8));
#1296=CARTESIAN_POINT('Origin',(-12.75,-3.8,0.));
#1297=CARTESIAN_POINT('',(-13.05,-3.8,-3.8));
#1298=CARTESIAN_POINT('Origin',(-12.75,-3.8,-3.8));
#1299=CARTESIAN_POINT('',(-13.05,-3.8,0.));
#1300=CARTESIAN_POINT('',(-13.05,-3.8,0.));
#1301=CARTESIAN_POINT('Origin',(-12.75,-3.8,0.));
#1302=CARTESIAN_POINT('Origin',(-12.75,-3.8,0.));
#1303=CARTESIAN_POINT('Origin',(-12.75,-3.8,-3.8));
#1304=CARTESIAN_POINT('Origin',(2.69,-3.3,0.));
#1305=CARTESIAN_POINT('',(2.69,-4.3,0.));
#1306=CARTESIAN_POINT('',(2.69,-3.3,0.));
#1307=CARTESIAN_POINT('',(2.69,-4.3,0.));
#1308=CARTESIAN_POINT('',(2.69,-4.3,-3.8));
#1309=CARTESIAN_POINT('',(2.69,-4.3,0.));
#1310=CARTESIAN_POINT('',(2.69,-3.3,-3.8));
#1311=CARTESIAN_POINT('',(2.69,-4.3,-3.8));
#1312=CARTESIAN_POINT('',(2.69,-3.3,0.));
#1313=CARTESIAN_POINT('Origin',(2.29,-3.3,0.));
#1314=CARTESIAN_POINT('',(2.29,-3.3,0.));
#1315=CARTESIAN_POINT('',(2.69,-3.3,0.));
#1316=CARTESIAN_POINT('',(2.29,-3.3,-3.8));
#1317=CARTESIAN_POINT('',(2.69,-3.3,-3.8));
#1318=CARTESIAN_POINT('',(2.29,-3.3,0.));
#1319=CARTESIAN_POINT('Origin',(2.29,-4.3,0.));
#1320=CARTESIAN_POINT('',(2.29,-4.3,0.));
#1321=CARTESIAN_POINT('',(2.29,-3.3,0.));
#1322=CARTESIAN_POINT('',(2.29,-4.3,-3.8));
#1323=CARTESIAN_POINT('',(2.29,-3.3,-3.8));
#1324=CARTESIAN_POINT('',(2.29,-4.3,0.));
#1325=CARTESIAN_POINT('Origin',(2.69,-4.3,0.));
#1326=CARTESIAN_POINT('',(2.29,-4.3,0.));
#1327=CARTESIAN_POINT('',(2.29,-4.3,-3.8));
#1328=CARTESIAN_POINT('Origin',(2.49,-3.8,0.));
#1329=CARTESIAN_POINT('Origin',(2.49,-3.8,-3.8));
#1330=CARTESIAN_POINT('Origin',(12.85,-3.3,0.));
#1331=CARTESIAN_POINT('',(12.85,-4.3,0.));
#1332=CARTESIAN_POINT('',(12.85,-3.3,0.));
#1333=CARTESIAN_POINT('',(12.85,-4.3,0.));
#1334=CARTESIAN_POINT('',(12.85,-4.3,-3.8));
#1335=CARTESIAN_POINT('',(12.85,-4.3,0.));
#1336=CARTESIAN_POINT('',(12.85,-3.3,-3.8));
#1337=CARTESIAN_POINT('',(12.85,-4.3,-3.8));
#1338=CARTESIAN_POINT('',(12.85,-3.3,0.));
#1339=CARTESIAN_POINT('Origin',(12.45,-3.3,0.));
#1340=CARTESIAN_POINT('',(12.45,-3.3,0.));
#1341=CARTESIAN_POINT('',(12.85,-3.3,0.));
#1342=CARTESIAN_POINT('',(12.45,-3.3,-3.8));
#1343=CARTESIAN_POINT('',(12.85,-3.3,-3.8));
#1344=CARTESIAN_POINT('',(12.45,-3.3,0.));
#1345=CARTESIAN_POINT('Origin',(12.45,-4.3,0.));
#1346=CARTESIAN_POINT('',(12.45,-4.3,0.));
#1347=CARTESIAN_POINT('',(12.45,-3.3,0.));
#1348=CARTESIAN_POINT('',(12.45,-4.3,-3.8));
#1349=CARTESIAN_POINT('',(12.45,-3.3,-3.8));
#1350=CARTESIAN_POINT('',(12.45,-4.3,0.));
#1351=CARTESIAN_POINT('Origin',(12.85,-4.3,0.));
#1352=CARTESIAN_POINT('',(12.45,-4.3,0.));
#1353=CARTESIAN_POINT('',(12.45,-4.3,-3.8));
#1354=CARTESIAN_POINT('Origin',(12.65,-3.8,0.));
#1355=CARTESIAN_POINT('Origin',(12.65,-3.8,-3.8));
#1356=CARTESIAN_POINT('Origin',(7.77,4.3,0.));
#1357=CARTESIAN_POINT('',(7.77,3.3,0.));
#1358=CARTESIAN_POINT('',(7.77,4.3,0.));
#1359=CARTESIAN_POINT('',(7.77,3.3,0.));
#1360=CARTESIAN_POINT('',(7.77,3.3,-3.8));
#1361=CARTESIAN_POINT('',(7.77,3.3,0.));
#1362=CARTESIAN_POINT('',(7.77,4.3,-3.8));
#1363=CARTESIAN_POINT('',(7.77,3.3,-3.8));
#1364=CARTESIAN_POINT('',(7.77,4.3,0.));
#1365=CARTESIAN_POINT('Origin',(7.37,4.3,0.));
#1366=CARTESIAN_POINT('',(7.37,4.3,0.));
#1367=CARTESIAN_POINT('',(7.77,4.3,0.));
#1368=CARTESIAN_POINT('',(7.37,4.3,-3.8));
#1369=CARTESIAN_POINT('',(7.77,4.3,-3.8));
#1370=CARTESIAN_POINT('',(7.37,4.3,0.));
#1371=CARTESIAN_POINT('Origin',(7.37,3.3,0.));
#1372=CARTESIAN_POINT('',(7.37,3.3,0.));
#1373=CARTESIAN_POINT('',(7.37,4.3,0.));
#1374=CARTESIAN_POINT('',(7.37,3.3,-3.8));
#1375=CARTESIAN_POINT('',(7.37,4.3,-3.8));
#1376=CARTESIAN_POINT('',(7.37,3.3,0.));
#1377=CARTESIAN_POINT('Origin',(7.77,3.3,0.));
#1378=CARTESIAN_POINT('',(7.37,3.3,0.));
#1379=CARTESIAN_POINT('',(7.37,3.3,-3.8));
#1380=CARTESIAN_POINT('Origin',(7.57,3.8,0.));
#1381=CARTESIAN_POINT('Origin',(7.57,3.8,-3.8));
#1382=CARTESIAN_POINT('Origin',(-12.75,3.8,0.));
#1383=CARTESIAN_POINT('',(-13.05,3.8,-3.8));
#1384=CARTESIAN_POINT('Origin',(-12.75,3.8,-3.8));
#1385=CARTESIAN_POINT('',(-13.05,3.8,0.));
#1386=CARTESIAN_POINT('',(-13.05,3.8,0.));
#1387=CARTESIAN_POINT('Origin',(-12.75,3.8,0.));
#1388=CARTESIAN_POINT('Origin',(-12.75,3.8,0.));
#1389=CARTESIAN_POINT('Origin',(-12.75,3.8,-3.8));
#1390=CARTESIAN_POINT('Origin',(2.29,4.3,0.));
#1391=CARTESIAN_POINT('',(2.69,4.3,0.));
#1392=CARTESIAN_POINT('',(2.29,4.3,0.));
#1393=CARTESIAN_POINT('',(2.69,4.3,0.));
#1394=CARTESIAN_POINT('',(2.69,4.3,-3.8));
#1395=CARTESIAN_POINT('',(2.69,4.3,0.));
#1396=CARTESIAN_POINT('',(2.29,4.3,-3.8));
#1397=CARTESIAN_POINT('',(2.69,4.3,-3.8));
#1398=CARTESIAN_POINT('',(2.29,4.3,0.));
#1399=CARTESIAN_POINT('Origin',(2.29,3.3,0.));
#1400=CARTESIAN_POINT('',(2.29,3.3,0.));
#1401=CARTESIAN_POINT('',(2.29,4.3,0.));
#1402=CARTESIAN_POINT('',(2.29,3.3,-3.8));
#1403=CARTESIAN_POINT('',(2.29,4.3,-3.8));
#1404=CARTESIAN_POINT('',(2.29,3.3,0.));
#1405=CARTESIAN_POINT('Origin',(2.69,3.3,0.));
#1406=CARTESIAN_POINT('',(2.69,3.3,0.));
#1407=CARTESIAN_POINT('',(2.29,3.3,0.));
#1408=CARTESIAN_POINT('',(2.69,3.3,-3.8));
#1409=CARTESIAN_POINT('',(2.29,3.3,-3.8));
#1410=CARTESIAN_POINT('',(2.69,3.3,0.));
#1411=CARTESIAN_POINT('Origin',(2.69,4.3,0.));
#1412=CARTESIAN_POINT('',(2.69,3.3,0.));
#1413=CARTESIAN_POINT('',(2.69,3.3,-3.8));
#1414=CARTESIAN_POINT('Origin',(2.49,3.8,0.));
#1415=CARTESIAN_POINT('Origin',(2.49,3.8,-3.8));
#1416=CARTESIAN_POINT('Origin',(12.85,4.3,0.));
#1417=CARTESIAN_POINT('',(12.85,3.3,0.));
#1418=CARTESIAN_POINT('',(12.85,4.3,0.));
#1419=CARTESIAN_POINT('',(12.85,3.3,0.));
#1420=CARTESIAN_POINT('',(12.85,3.3,-3.8));
#1421=CARTESIAN_POINT('',(12.85,3.3,0.));
#1422=CARTESIAN_POINT('',(12.85,4.3,-3.8));
#1423=CARTESIAN_POINT('',(12.85,3.3,-3.8));
#1424=CARTESIAN_POINT('',(12.85,4.3,0.));
#1425=CARTESIAN_POINT('Origin',(12.45,4.3,0.));
#1426=CARTESIAN_POINT('',(12.45,4.3,0.));
#1427=CARTESIAN_POINT('',(12.85,4.3,0.));
#1428=CARTESIAN_POINT('',(12.45,4.3,-3.8));
#1429=CARTESIAN_POINT('',(12.85,4.3,-3.8));
#1430=CARTESIAN_POINT('',(12.45,4.3,0.));
#1431=CARTESIAN_POINT('Origin',(12.45,3.3,0.));
#1432=CARTESIAN_POINT('',(12.45,3.3,0.));
#1433=CARTESIAN_POINT('',(12.45,4.3,0.));
#1434=CARTESIAN_POINT('',(12.45,3.3,-3.8));
#1435=CARTESIAN_POINT('',(12.45,4.3,-3.8));
#1436=CARTESIAN_POINT('',(12.45,3.3,0.));
#1437=CARTESIAN_POINT('Origin',(12.85,3.3,0.));
#1438=CARTESIAN_POINT('',(12.45,3.3,0.));
#1439=CARTESIAN_POINT('',(12.45,3.3,-3.8));
#1440=CARTESIAN_POINT('Origin',(12.65,3.8,0.));
#1441=CARTESIAN_POINT('Origin',(12.65,3.8,-3.8));
#1442=CARTESIAN_POINT('Origin',(14.55,6.3,20.4));
#1443=CARTESIAN_POINT('',(14.75,6.3,20.4));
#1444=CARTESIAN_POINT('',(14.55,6.3,20.6));
#1445=CARTESIAN_POINT('Origin',(14.55,6.3,20.4));
#1446=CARTESIAN_POINT('',(14.55,6.5,20.4));
#1447=CARTESIAN_POINT('Origin',(14.55,6.3,20.4));
#1448=CARTESIAN_POINT('Origin',(14.55,6.3,20.4));
#1449=CARTESIAN_POINT('Origin',(14.55,6.3,0.));
#1450=CARTESIAN_POINT('',(14.75,6.3,0.));
#1451=CARTESIAN_POINT('',(14.55,6.5,0.));
#1452=CARTESIAN_POINT('Origin',(14.55,6.3,0.));
#1453=CARTESIAN_POINT('',(14.55,6.5,0.));
#1454=CARTESIAN_POINT('',(14.75,6.3,0.));
#1455=CARTESIAN_POINT('Origin',(14.55,-6.3,20.4));
#1456=CARTESIAN_POINT('',(14.55,-6.5,20.4));
#1457=CARTESIAN_POINT('',(14.55,-6.3,20.6));
#1458=CARTESIAN_POINT('Origin',(14.55,-6.3,20.4));
#1459=CARTESIAN_POINT('',(14.75,-6.3,20.4));
#1460=CARTESIAN_POINT('Origin',(14.55,-6.3,20.4));
#1461=CARTESIAN_POINT('Origin',(14.55,-6.3,20.4));
#1462=CARTESIAN_POINT('Origin',(14.55,-6.3,0.));
#1463=CARTESIAN_POINT('',(14.55,-6.5,0.));
#1464=CARTESIAN_POINT('',(14.75,-6.3,0.));
#1465=CARTESIAN_POINT('Origin',(14.55,-6.3,0.));
#1466=CARTESIAN_POINT('',(14.75,-6.3,0.));
#1467=CARTESIAN_POINT('',(14.55,-6.5,0.));
#1468=CARTESIAN_POINT('Origin',(14.55,-3.25,20.4));
#1469=CARTESIAN_POINT('',(14.55,-3.25,20.6));
#1470=CARTESIAN_POINT('',(14.75,-3.25,20.4));
#1471=CARTESIAN_POINT('Origin',(-14.55,6.3,20.4));
#1472=CARTESIAN_POINT('',(-14.55,6.5,20.4));
#1473=CARTESIAN_POINT('',(-14.55,6.3,20.6));
#1474=CARTESIAN_POINT('Origin',(-14.55,6.3,20.4));
#1475=CARTESIAN_POINT('',(-14.75,6.3,20.4));
#1476=CARTESIAN_POINT('Origin',(-14.55,6.3,20.4));
#1477=CARTESIAN_POINT('Origin',(-14.55,6.3,20.4));
#1478=CARTESIAN_POINT('Origin',(-14.55,6.3,0.));
#1479=CARTESIAN_POINT('',(-14.55,6.5,0.));
#1480=CARTESIAN_POINT('',(-14.75,6.3,0.));
#1481=CARTESIAN_POINT('Origin',(-14.55,6.3,0.));
#1482=CARTESIAN_POINT('',(-14.75,6.3,0.));
#1483=CARTESIAN_POINT('',(-14.55,6.5,0.));
#1484=CARTESIAN_POINT('Origin',(-14.55,-6.3,20.4));
#1485=CARTESIAN_POINT('',(-14.75,-6.3,20.4));
#1486=CARTESIAN_POINT('',(-14.55,-6.3,20.6));
#1487=CARTESIAN_POINT('Origin',(-14.55,-6.3,20.4));
#1488=CARTESIAN_POINT('',(-14.55,-6.5,20.4));
#1489=CARTESIAN_POINT('Origin',(-14.55,-6.3,20.4));
#1490=CARTESIAN_POINT('Origin',(-14.55,-6.3,20.4));
#1491=CARTESIAN_POINT('Origin',(-14.55,-6.3,0.));
#1492=CARTESIAN_POINT('',(-14.75,-6.3,0.));
#1493=CARTESIAN_POINT('',(-14.55,-6.5,0.));
#1494=CARTESIAN_POINT('Origin',(-14.55,-6.3,0.));
#1495=CARTESIAN_POINT('',(-14.55,-6.5,0.));
#1496=CARTESIAN_POINT('',(-14.75,-6.3,0.));
#1497=CARTESIAN_POINT('Origin',(-7.375,-6.3,20.4));
#1498=CARTESIAN_POINT('',(-7.375,-6.3,20.6));
#1499=CARTESIAN_POINT('',(-7.375,-6.5,20.4));
#1500=CARTESIAN_POINT('Origin',(-14.55,3.25,20.4));
#1501=CARTESIAN_POINT('',(-14.55,3.25,20.6));
#1502=CARTESIAN_POINT('',(-14.75,3.25,20.4));
#1503=CARTESIAN_POINT('Origin',(7.375,6.3,20.4));
#1504=CARTESIAN_POINT('',(7.375,6.3,20.6));
#1505=CARTESIAN_POINT('',(7.375,6.5,20.4));
#1506=CARTESIAN_POINT('Origin',(14.75,-6.5,0.));
#1507=CARTESIAN_POINT('',(14.75,-6.5,0.));
#1508=CARTESIAN_POINT('Origin',(-14.75,-6.5,0.));
#1509=CARTESIAN_POINT('',(-14.75,-6.5,0.));
#1510=CARTESIAN_POINT('Origin',(0.,-1.11022302462516E-15,20.6));
#1511=CARTESIAN_POINT('Origin',(-14.75,6.5,0.));
#1512=CARTESIAN_POINT('',(-14.75,6.5,0.));
#1513=CARTESIAN_POINT('Origin',(14.75,6.5,0.));
#1514=CARTESIAN_POINT('',(14.75,6.5,0.));
#1515=CARTESIAN_POINT('Origin',(0.,-1.11022302462516E-15,0.));
#1516=UNCERTAINTY_MEASURE_WITH_UNIT(LENGTH_MEASURE(0.01),#1520,
'DISTANCE_ACCURACY_VALUE',
'Maximum model space distance between geometric entities at asserted c
onnectivities');
#1517=UNCERTAINTY_MEASURE_WITH_UNIT(LENGTH_MEASURE(0.01),#1520,
'DISTANCE_ACCURACY_VALUE',
'Maximum model space distance between geometric entities at asserted c
onnectivities');
#1518=(
GEOMETRIC_REPRESENTATION_CONTEXT(3)
GLOBAL_UNCERTAINTY_ASSIGNED_CONTEXT((#1516))
GLOBAL_UNIT_ASSIGNED_CONTEXT((#1520,#1522,#1523))
REPRESENTATION_CONTEXT('','3D')
);
#1519=(
GEOMETRIC_REPRESENTATION_CONTEXT(3)
GLOBAL_UNCERTAINTY_ASSIGNED_CONTEXT((#1517))
GLOBAL_UNIT_ASSIGNED_CONTEXT((#1520,#1522,#1523))
REPRESENTATION_CONTEXT('','3D')
);
#1520=(
LENGTH_UNIT()
NAMED_UNIT(*)
SI_UNIT(.MILLI.,.METRE.)
);
#1521=(
LENGTH_UNIT()
NAMED_UNIT(*)
SI_UNIT($,.METRE.)
);
#1522=(
NAMED_UNIT(*)
PLANE_ANGLE_UNIT()
SI_UNIT($,.RADIAN.)
);
#1523=(
NAMED_UNIT(*)
SI_UNIT($,.STERADIAN.)
SOLID_ANGLE_UNIT()
);
#1524=SHAPE_DEFINITION_REPRESENTATION(#1525,#1526);
#1525=PRODUCT_DEFINITION_SHAPE('',$,#1528);
#1526=SHAPE_REPRESENTATION('',(#932),#1518);
#1527=PRODUCT_DEFINITION_CONTEXT('part definition',#1532,'design');
#1528=PRODUCT_DEFINITION('Songle_Relay_SMIH-05VDC-SL-C',
'Songle_Relay_SMIH-05VDC-SL-C v9',#1529,#1527);
#1529=PRODUCT_DEFINITION_FORMATION('',$,#1534);
#1530=PRODUCT_RELATED_PRODUCT_CATEGORY(
'Songle_Relay_SMIH-05VDC-SL-C v9','Songle_Relay_SMIH-05VDC-SL-C v9',(#1534));
#1531=APPLICATION_PROTOCOL_DEFINITION('international standard',
'automotive_design',2009,#1532);
#1532=APPLICATION_CONTEXT(
'Core Data for Automotive Mechanical Design Process');
#1533=PRODUCT_CONTEXT('part definition',#1532,'mechanical');
#1534=PRODUCT('Songle_Relay_SMIH-05VDC-SL-C',
'Songle_Relay_SMIH-05VDC-SL-C v9',$,(#1533));
#1535=PRESENTATION_STYLE_ASSIGNMENT((#1540));
#1536=PRESENTATION_STYLE_ASSIGNMENT((#1541));
#1537=PRESENTATION_STYLE_ASSIGNMENT((#1542));
#1538=PRESENTATION_STYLE_ASSIGNMENT((#1543));
#1539=PRESENTATION_STYLE_ASSIGNMENT((#1544));
#1540=SURFACE_STYLE_USAGE(.BOTH.,#1545);
#1541=SURFACE_STYLE_USAGE(.BOTH.,#1546);
#1542=SURFACE_STYLE_USAGE(.BOTH.,#1547);
#1543=SURFACE_STYLE_USAGE(.BOTH.,#1548);
#1544=SURFACE_STYLE_USAGE(.BOTH.,#1549);
#1545=SURFACE_SIDE_STYLE('',(#1550));
#1546=SURFACE_SIDE_STYLE('',(#1551));
#1547=SURFACE_SIDE_STYLE('',(#1552));
#1548=SURFACE_SIDE_STYLE('',(#1553));
#1549=SURFACE_SIDE_STYLE('',(#1554));
#1550=SURFACE_STYLE_FILL_AREA(#1555);
#1551=SURFACE_STYLE_FILL_AREA(#1556);
#1552=SURFACE_STYLE_FILL_AREA(#1557);
#1553=SURFACE_STYLE_FILL_AREA(#1558);
#1554=SURFACE_STYLE_FILL_AREA(#1559);
#1555=FILL_AREA_STYLE('Steel - Satin',(#1560));
#1556=FILL_AREA_STYLE('Aluminum - Anodized Glossy (Grey)',(#1561));
#1557=FILL_AREA_STYLE('Steel - Satin',(#1562));
#1558=FILL_AREA_STYLE('ABS (White)',(#1563));
#1559=FILL_AREA_STYLE('Steel - Satin',(#1564));
#1560=FILL_AREA_STYLE_COLOUR('Steel - Satin',#1565);
#1561=FILL_AREA_STYLE_COLOUR('Aluminum - Anodized Glossy (Grey)',#1566);
#1562=FILL_AREA_STYLE_COLOUR('Steel - Satin',#1567);
#1563=FILL_AREA_STYLE_COLOUR('ABS (White)',#1568);
#1564=FILL_AREA_STYLE_COLOUR('Steel - Satin',#1569);
#1565=COLOUR_RGB('Steel - Satin',0.627450980392157,0.627450980392157,0.627450980392157);
#1566=COLOUR_RGB('Aluminum - Anodized Glossy (Grey)',0.705882352941177,
0.701960784313725,0.701960784313725);
#1567=COLOUR_RGB('Steel - Satin',0.305882352941176,0.337254901960784,0.372549019607843);
#1568=COLOUR_RGB('ABS (White)',0.,0.6,1.);
#1569=COLOUR_RGB('Steel - Satin',0.00784313725490196,0.0117647058823529,
0.0156862745098039);
ENDSEC;
END-ISO-10303-21;
